<?xml version="1.0" encoding="UTF-8" standalone="no"?>
<!DOCTYPE svg PUBLIC "-//W3C//DTD SVG 1.1//EN" "http://www.w3.org/Graphics/SVG/1.1/DTD/svg11.dtd">
<svg enable-background="new 322.969 -233.465 3146 1214" x="0px" xmlns:xlink="http://www.w3.org/1999/xlink" y="0px" viewBox="322.969 -233.465 3146 1214" version="1.1" height="1214px" xml:space="preserve" xmlns:a="http://ns.adobe.com/AdobeSVGViewerExtensions/3.0/" width="3146px" xmlns="http://www.w3.org/2000/svg">
  <defs></defs>
  <g id="XMLID_52_">
    <g></g>
    <g>
      <path stroke-linecap="round" d="M1742.837,130.235
			c64.455,107.962,140.592,184.771,218.609,292.196c13.563,22.425,92.923,105.947,86.745,13.696
			c-6.848-100.711-44.715-177.922-51.563-277.156c21.082-44.447,87.014-31.825,109.573,3.223
			c31.959,72.915,58.144,153.214,77.346,244.928c5.506,26.99,4.565,60.561,25.782,80.568c23.364-47.4-16.114-118.838-9.399-180.205
			c6.714-62.575-5.237-123.404,15.039-169.866c22.828-21.485,69.154-19.605,87.014,9.668
			c14.503,24.036,12.623,110.916,12.892,170.805c0.269,79.092,21.216,165.568,55.592,195.379
			c31.153-45.655,8.326-140.727,25.245-199.407c13.965-48.476-3.089-159.392,68.215-152.543
			c58.144,5.64,52.638,76.406,44.581,129.984c-4.7,30.348-7.788,60.292-12.891,83.792c-10.608,48.341,5.371,121.256,3.76,163.957
			c-1.209,30.079,12.22,63.649,16.113,96.683c4.028,35.047,1.478,71.303,3.223,106.35c3.223,70.095,13.025,145.292,6.446,215.924
			c-1.88,19.068-11.146,38.404-12.892,58.01c-3.76,38.808,8.729,81.911,16.114,125.688
			c45.521,270.441,88.625,583.048,125.687,854.026c-118.704,41.493-268.024,69.289-425.402,61.232
			c-40.553-243.183-74.929-508.119-109.573-767.013c-5.236-38.271-6.445-81.24-19.336-103.128
			c-13.16-21.888-41.493-23.097-70.9-38.673c-29.005-15.174-60.964-48.073-99.905-74.123
			c-38.27-25.514-85.403-42.165-109.573-61.232c-29.542-23.23-53.31-74.258-83.792-109.573
			c-35.047-40.553-85.268-64.857-103.127-109.573c-9.4-23.097-6.177-49.953-12.891-74.123
			c-14.502-51.564-46.193-107.425-29.005-164.36c72.915-26.05,130.387,39.479,151.469,106.351
			c6.042,19.471,2.014,42.567,9.668,61.232c19.068,47.267,92.922,76.138,141.801,96.683c32.765-49.818,12.085-114.542,0-167.583
			c-34.913-152.678-231.635-415.331-253.254-475.757" stroke-width="8" stroke="#9C6B54" fill="none" />
    </g>
  </g>
  <path stroke-linecap="round" d="M1645.262,53.824
	c58.586-14.646,75.103,41.407,100.495,79.496" stroke-width="8" stroke="#FCB054" fill="none" />
  <path stroke-linecap="round" d="M1639.262,176.817
	c-31.499-58.497-50.998-86.996,4.5-121.494" stroke-width="8" stroke="#FCB054" fill="none" />
</svg>
