<svg
   xmlns="http://www.w3.org/2000/svg"
   version="1.0"
   width="3146"
   height="1214"
   viewBox="-1333.657 -607.685 3146 1214"
   id="svg2"
   xml:space="preserve">
  <g
   id="XMLID_7_">
    <g
   id="g7" />
    <g
   id="g9">
      <path
   d="M 161.923,127.886 C 155.612,119.157 149.838,110.698 144.332,102.372 119.222,64.102 84.443,29.323 50.335,60.343 18.107,89.616 24.553,129.632 41.204,166.156"
   id="path11"
   style="fill:none;stroke:#fcb054;stroke-width:16;stroke-linecap:round" />
      <path
   d="m 161.923,127.886 c -2.686,-3.223 -5.103,-6.445 -7.52,-9.534"
   id="path13"
   style="fill:none;stroke:#fcb054;stroke-width:16;stroke-linecap:round" />
      <path
   d="m 41.205,166.157 c 6.177,13.428 13.563,26.318 21.083,38.136 65.529,102.859 224.518,222.771 249.628,332.613 12.086,53.041 32.765,117.765 0,167.583 -48.878,-20.545 -122.732,-49.415 -141.8,-96.683 -7.654,-18.665 -3.626,-41.761 -9.668,-61.231 C 139.364,479.703 81.892,414.173 8.978,440.224 -8.21,497.159 23.479,553.02 37.982,604.583 c 6.714,24.171 3.491,51.027 12.891,74.123 17.859,44.716 68.081,69.021 103.128,109.573 30.481,35.316 54.25,86.343 83.791,109.573 24.171,19.068 71.304,35.719 109.573,61.232 38.941,26.051 70.9,58.949 99.905,74.123 29.407,15.577 57.741,16.785 70.9,38.673 12.891,21.888 14.1,64.858 19.336,103.128 34.645,258.894 69.021,523.83 109.573,767.013 157.378,8.058 306.698,-19.739 425.402,-61.231 -37.062,-270.979 -80.165,-583.586 -125.687,-854.027 -7.386,-43.775 -19.874,-86.88 -16.114,-125.688 1.746,-19.604 11.012,-38.941 12.892,-58.009 6.579,-70.632 -3.223,-145.829 -6.446,-215.924 -1.745,-35.048 0.807,-71.304 -3.223,-106.351 -3.894,-33.033 -17.322,-66.604 -16.113,-96.683 1.611,-42.701 -14.368,-115.615 -3.76,-163.957 5.103,-23.499 8.191,-53.443 12.891,-83.791 C 934.978,122.782 940.484,52.015 882.34,46.376 811.037,39.528 828.09,150.444 814.125,198.92 797.206,257.601 820.033,352.671 788.88,398.327 754.504,368.516 733.422,282.039 733.153,202.948 732.884,143.058 734.764,56.178 720.262,32.142 702.403,2.869 656.075,0.989 633.248,22.474 c -20.276,46.461 -8.191,107.29 -14.905,169.865 -6.715,61.366 19.336,132.535 -4.028,179.937 C 593.098,352.268 581.147,316.281 575.641,289.291 556.439,197.577 528.374,118.351 524.615,47.048 502.055,12 436.124,-0.622 415.042,43.825 c -12.757,94.533 15.576,174.028 25.245,274.47 2.819,29.677 22.29,68.618 0,89.969 -33.974,-3.626 -186.785,-163.957 -277.291,-278.901 -0.537,-0.537 -0.94,-1.074 -1.074,-1.478"
   id="path15"
   style="fill:none;stroke:#9c6b54;stroke-width:16;stroke-linecap:round" />
    </g>
  </g>
</svg>