<?xml version="1.0" encoding="UTF-8" standalone="no"?>
<!DOCTYPE svg PUBLIC "-//W3C//DTD SVG 1.1//EN" "http://www.w3.org/Graphics/SVG/1.1/DTD/svg11.dtd">
<svg enable-background="new -140.708 -446.507 3146 1214" x="0px" xmlns:xlink="http://www.w3.org/1999/xlink" y="0px" viewBox="-140.708 -446.507 3146 1214" version="1.0" height="1214px" xml:space="preserve" xmlns:a="http://ns.adobe.com/AdobeSVGViewerExtensions/3.0/" width="3146px" xmlns="http://www.w3.org/2000/svg">
  <defs></defs>
  <g id="XMLID_53_">
    <g></g>
    <g>
      <path stroke-linecap="round" d="M181.271,246.956
			c-0.537-31.287,7.923-56.666,42.299-60.023c38.404-3.76,56.532,25.11,66.872,60.023" stroke-width="16" stroke="#9C6B54" fill="none" />
      <path stroke-linecap="round" d="M757.47,384.997
			c8.057,29.944,17.725,42.567-38.136,122.464c-14.1,20.008-20.008,51.967-14.1,64.053c45.79-1.611,96.146-185.711,121.524-302.804
			c9.802-44.716,18.799-87.417,67.678-80.569c71.975,10.071,32.496,149.053,19.336,199.811
			c-28.333,109.977-94.668,200.75-119.779,310.592c-12.085,53.041-32.765,117.765,0,167.583
			c48.878-20.545,122.733-49.416,141.801-96.683c7.654-18.665,3.625-41.762,9.668-61.232
			c21.083-66.871,78.555-132.4,151.469-106.351c17.188,56.936-14.502,112.797-29.005,164.36
			c-6.714,24.171-3.491,51.026-12.891,74.123c-17.859,44.716-68.081,69.021-103.128,109.573
			c-30.482,35.316-54.25,86.343-83.792,109.573c-24.17,19.068-71.303,35.719-109.573,61.232
			c-38.941,26.051-70.9,58.949-99.905,74.123c-29.408,15.576-57.741,16.785-70.9,38.673c-12.891,21.888-14.1,64.857-19.336,103.128
			c-34.645,258.894-69.021,523.83-109.573,767.013c-157.377,8.057-306.698-19.739-425.402-61.232
			c37.062-270.979,80.166-583.585,125.687-854.026c7.385-43.776,19.874-86.88,16.114-125.688
			c-1.746-19.604-11.011-38.941-12.891-58.009c-6.58-70.632,3.223-145.829,6.445-215.924c1.746-35.048-0.806-71.304,3.223-106.351
			c3.894-33.033,17.322-66.604,16.114-96.683c-1.612-42.701,8.325-114.676,3.76-163.957c-2.417-25.916,2.283-76.54-2.417-106.888
			c-3.223-21.888-7.923-46.327-8.191-67.946" stroke-width="16" stroke="#9C6B54" fill="none" />
      <path stroke-linecap="round" d="M290.441,246.956
			c8.863,29.676,4.028,91.982,9.131,114.005c11.951,51.967-13.697,153.349,17.457,199.004
			c34.376-29.811,53.31-120.315,53.578-199.407c0.269-59.889-1.611-146.769,12.891-170.805
			c17.859-29.274,64.187-31.154,87.014-9.669c20.276,46.462,4.297,110.379,11.011,172.954
			c6.177,56.398-6.312,127.567,19.739,180.474c11.146,21.351,44.044-17.322,82.045-76.003
			c22.022-33.973,33.973-48.072,65.798-77.212" stroke-width="16" stroke="#9C6B54" fill="none" />
    </g>
  </g>
  <path stroke-linecap="round" d="M645.552,384.982c24-38,89.739-31.489,111.739,4.511
	" stroke-width="16" stroke="#FCB054" fill="none" />
</svg>
