<?xml version="1.0" encoding="UTF-8" standalone="no"?>
<!DOCTYPE svg PUBLIC "-//W3C//DTD SVG 1.1//EN" "http://www.w3.org/Graphics/SVG/1.1/DTD/svg11.dtd">
<svg enable-background="new -140.708 -446.507 3146 1214" x="0px" xmlns:xlink="http://www.w3.org/1999/xlink" y="0px" viewBox="-140.708 -446.507 3146 1214" version="1.0" height="1214px" xml:space="preserve" xmlns:a="http://ns.adobe.com/AdobeSVGViewerExtensions/3.0/" width="3146px" xmlns="http://www.w3.org/2000/svg">
  <defs></defs>
  <g id="XMLID_63_">
    <g></g>
    <g>
      <path stroke-linecap="round" d="M1983.192,478.09
			c-15.577,77.614-17.859,91.445,10.071,81.374c31.152-45.655,32.093-129.983,37.867-195.244
			c4.431-50.355-3.357-156.975,68.215-152.678c33.973,2.015,52.638,76.54,44.581,130.118c-4.7,30.348-7.788,60.293-12.892,83.792
			c-10.607,48.341-4.162,117.361-5.773,160.063c-1.209,30.079-3.357,63.381,0.537,96.414c4.028,35.047,1.477,71.303,3.223,106.351
			c3.223,70.095,13.025,145.292,6.445,215.924c-1.88,19.067-11.146,38.404-12.891,58.009c-3.76,38.808,8.728,81.912,16.113,125.688
			c45.521,270.441,88.626,583.048,125.688,854.026c-118.705,41.493-268.025,69.289-425.402,61.232
			c-40.553-243.183-74.929-508.119-109.573-767.013c-5.237-38.271-6.445-81.24-19.337-103.128
			c-13.159-21.888-41.492-23.097-70.9-38.673c-29.005-15.174-60.963-48.072-99.905-74.123
			c-38.27-25.514-85.402-42.164-109.573-61.232c-29.542-23.23-53.31-74.257-83.792-109.573
			c-35.047-40.553-85.268-64.857-103.127-109.573c-9.4-23.097-6.177-49.952-12.891-74.123
			c-14.502-51.563-46.193-107.425-29.005-164.359c72.915-26.051,130.387,39.479,151.469,106.35
			c6.042,19.472,2.014,42.567,9.668,61.232c19.068,47.267,92.922,76.138,141.801,96.683c32.764-49.818,12.085-114.542,0-167.583
			c-25.111-109.842-55.459-202.63-83.792-312.605c-13.159-50.759-52.638-189.739,19.337-199.811
			c48.878-6.849,57.875,35.854,67.678,80.568c25.781,118.974,77.077,226.532,138.577,306.161
			c22.291-21.351,15.711-60.561,12.892-90.237c-9.668-100.442-44.716-177.922-51.564-277.155
			c21.082-44.447,87.015-31.825,109.573,3.223c31.959,72.914,58.145,153.214,77.347,244.928
			c5.505,26.991,4.565,60.562,25.781,80.569c23.634,1.745,42.97-12.892,49.685-74.123" stroke-width="16" stroke="#9C6B54" fill="none" />
    </g>
  </g>
  <path stroke-linecap="round" d="M1978.292,362.281
	c16.33,22.834,19,54.212,6.891,114.805" stroke-width="16" stroke="#FCB054" fill="none" />
  <path stroke-linecap="round" d="M1899.292,362.493c22.828-21.484,72-10,79-0.212" stroke-width="16" stroke="#FCB054" fill="none" />
  <path stroke-linecap="round" d="M1871.292,458.493c6.714-62.575,7.724-49.538,28-96" stroke-width="16" stroke="#FCB054" fill="none" />
</svg>
