<?xml version="1.0" encoding="UTF-8" standalone="no"?>
<!DOCTYPE svg PUBLIC "-//W3C//DTD SVG 1.1//EN" "http://www.w3.org/Graphics/SVG/1.1/DTD/svg11.dtd">
<svg enable-background="new -140.708 -446.507 3146 1214" x="0px" xmlns:xlink="http://www.w3.org/1999/xlink" y="0px" viewBox="-140.708 -446.507 3146 1214" version="1.0" height="1214px" xml:space="preserve" xmlns:a="http://ns.adobe.com/AdobeSVGViewerExtensions/3.0/" width="3146px" xmlns="http://www.w3.org/2000/svg">
  <defs></defs>
  <g id="XMLID_60_">
    <g></g>
    <g>
      <path stroke-linecap="round" d="M2371.4,458.279
			c17.215-26.176,23.683-52.124-3.501-73.385c-30.367-23.729-59.367-7.819-93.629,9.617" stroke-width="16" stroke="#FCB054" fill="none" />
      <path stroke-linecap="round" d="M1819.959,450.609
			c-0.737-4.175-1.369-6.603-1.488-7.545c-17.487-88.654-39.499-163.416-69.354-234.813c-21.984-35.411-87.701-49.109-109.507-5.013
			c5.227,99.332,39.003,177.375,47.028,277.961c2.334,29.719,8.272,69.031-14.364,90.015
			c-60.191-80.623-109.722-189.006-133.556-308.385c-9.071-44.869-17.369-87.712-66.353-81.663
			c-72.129,8.893-34.927,148.5-22.599,199.467c26.532,110.425,55.359,203.696,78.671,313.934
			c11.218,53.231,30.836,118.284-2.738,167.561c-48.536-21.341-121.909-51.414-140.202-98.986
			c-7.348-18.788-2.943-41.815-8.667-61.382c-19.986-67.208-76.38-133.668-149.71-108.813
			c-18.116,56.647,12.657,113.019,26.315,164.813c6.318,24.277,2.657,51.077,11.678,74.323
			c17.126,45.002,66.943,70.124,101.323,111.244c29.901,35.81,52.832,87.218,81.989,110.929
			c23.856,19.46,70.71,36.879,108.559,63.014c38.511,26.684,69.928,60.101,98.681,75.746c29.148,16.056,57.458,17.727,70.259,39.826
			c12.531,22.096,13.037,65.08,17.648,103.431c30.409,259.425,60.451,524.888,97.024,768.701
			c157.225,10.627,306.979-14.725,426.346-54.272c-32.628-271.549-70.618-584.817-111.714-855.967
			c-6.669-43.891-18.451-87.193-14.058-125.934c2.065-19.574,11.646-38.757,13.837-57.791c7.733-70.515,11.46-150.63,9.384-220.769
			c-1.149-36.548,4.527-46.931,7.463-86.903c3.128-43.462,5.384-50.006,3.206-72.872c-2.753-28.785,78.146-105.894,88.2-112.981
			c33.968-24.021,43.881-22.517,74.083-38.004c19.773-10.152,22.078-3.266,34.056-21.2" stroke-width="16" stroke="#9C6B54" fill="none" />
      <path stroke-linecap="round" d="M1818.086,441.984c0,0,0.132,0.136,0.125,0.539
			c0.132,0.136,0.13,0.271,0.26,0.541" stroke-width="16" stroke="#9C6B54" fill="none" />
      <path stroke-linecap="round" d="M2274.27,394.511
			c-31.032,16.951-30.964,20.981-71.006,46.918c-27.148,17.687-91.905,68.468-116.004,72.104
			c-39.978-2.668-78.025-74.065-94.012-155.98c-11.393-58.875-27.153-129.908-41.262-154.179
			c-17.378-29.561-63.668-32.197-86.844-11.089c-21.033,46.124,7.854,102.867,16.102,165.183
			c8.018,60.028,45.159,186.876-22.777,185.766c-27.317-37.781-39.421-94.25-40.256-100.71" stroke-width="16" stroke="#9C6B54" fill="none" />
    </g>
  </g>
</svg>
