<?xml version="1.0" encoding="UTF-8" standalone="no"?>
<!DOCTYPE svg PUBLIC "-//W3C//DTD SVG 1.1//EN" "http://www.w3.org/Graphics/SVG/1.1/DTD/svg11.dtd">
<svg enable-background="new 322.969 -233.465 3146 1214" x="0px" xmlns:xlink="http://www.w3.org/1999/xlink" y="0px" viewBox="322.969 -233.465 3146 1214" version="1.1" height="1214px" xml:space="preserve" xmlns:a="http://ns.adobe.com/AdobeSVGViewerExtensions/3.0/" width="3146px" xmlns="http://www.w3.org/2000/svg">
  <defs></defs>
  <g id="XMLID_53_">
    <g></g>
    <g>
      <path stroke-linecap="round" d="M1934.389,158.501
			c42.03,120.047,52.504,207.062,102.054,317.977c13.428,22.56,74.929,121.524,68.752,29.14
			c-6.715-100.711-44.716-177.923-51.564-277.156c21.082-44.447,87.015-31.825,109.573,3.223
			c31.959,72.915,58.144,153.215,77.346,244.929c5.506,26.99,4.565,60.561,25.782,80.568
			c23.365-47.401-16.113-118.839-9.399-180.205c6.714-62.575-5.237-123.404,15.039-169.865
			c22.828-21.485,69.155-19.605,87.015,9.668c14.502,24.037,12.622,110.916,12.891,170.806
			c0.269,79.092,21.217,165.568,55.593,195.379c31.152-45.655,8.325-140.727,25.244-199.407
			c13.966-48.476-3.088-159.392,68.215-152.543c58.144,5.64,52.639,76.406,44.581,129.984c-4.699,30.348-7.788,60.292-12.891,83.791
			c-10.608,48.342,5.371,121.256,3.76,163.957c-1.208,30.079,12.22,63.649,16.114,96.683c4.028,35.048,1.477,71.304,3.223,106.351
			c3.223,70.095,13.024,145.292,6.445,215.924c-1.88,19.068-11.146,38.404-12.892,58.01c-3.76,38.807,8.729,81.911,16.114,125.687
			c45.521,270.442,88.625,583.048,125.687,854.027c-118.704,41.492-268.024,69.289-425.401,61.232
			c-40.554-243.184-74.929-508.12-109.573-767.014c-5.237-38.27-6.446-81.239-19.337-103.128
			c-13.159-21.888-41.493-23.096-70.9-38.673c-29.005-15.174-60.964-48.072-99.905-74.123
			c-38.27-25.513-85.402-42.164-109.573-61.231c-29.542-23.231-53.309-74.258-83.791-109.573
			c-35.047-40.554-85.269-64.858-103.128-109.573c-9.399-23.097-6.177-49.953-12.891-74.124
			c-14.502-51.563-46.192-107.424-29.004-164.359c72.915-26.051,130.387,39.479,151.469,106.351
			c6.043,19.471,2.014,42.567,9.668,61.232c19.068,47.267,92.922,76.137,141.8,96.682c32.765-49.818,12.086-114.541,0-167.582
			c-34.913-152.678-110.782-466.761-128.641-536.05" stroke-width="8" stroke="#9C6B54" fill="none" />
    </g>
  </g>
  <path stroke-linecap="round" d="M1847.897,58.524
	c58.586-14.646,70.372,57.287,85.495,100.494" stroke-width="8" stroke="#FCB054" fill="none" />
  <path stroke-linecap="round" d="M1820.898,186.017
	c-13.16-50.758-20.999-115.494,26.999-127.493" stroke-width="8" stroke="#FCB054" fill="none" />
</svg>
