<?xml version="1.0" encoding="UTF-8" standalone="no"?>
<!DOCTYPE svg PUBLIC "-//W3C//DTD SVG 1.1//EN" "http://www.w3.org/Graphics/SVG/1.1/DTD/svg11.dtd">
<svg enable-background="new -140.708 -446.507 3146 1214" x="0px" xmlns:xlink="http://www.w3.org/1999/xlink" y="0px" viewBox="-140.708 -446.507 3146 1214" version="1.0" height="1214px" xml:space="preserve" xmlns:a="http://ns.adobe.com/AdobeSVGViewerExtensions/3.0/" width="3146px" xmlns="http://www.w3.org/2000/svg">
  <defs></defs>
  <g id="XMLID_52_">
    <g></g>
    <g>
      <path stroke-linecap="round" d="M861.693,447.945
			c-77.883,57.069-118.436,78.018-205.316,116.153c-22.291-21.351-15.711-60.561-12.891-90.237
			c9.668-100.442,44.715-177.922,51.563-277.155c-21.082-44.447-87.014-31.825-109.573,3.223
			c-31.958,72.914-58.144,153.214-77.346,244.928c-5.505,26.991-4.565,60.562-25.782,80.569
			c-23.365-47.401,16.114-118.839,9.399-180.205c-6.714-62.575,5.371-123.404-14.905-169.865
			c-22.828-21.485-69.154-19.605-87.014,9.668c-14.502,24.036-12.623,110.916-12.891,170.806
			c-0.269,79.091-21.351,165.568-55.727,195.378c-31.153-45.655-8.191-140.726-25.111-199.407
			c-13.965-48.475,2.955-159.392-68.349-152.543c-58.144,5.64-52.504,76.406-44.447,129.984c4.7,30.348,7.789,60.292,12.891,83.791
			c10.608,48.341-5.505,121.256-3.894,163.957c1.208,30.079-12.22,63.649-16.114,96.683c-4.029,35.047-1.477,71.303-3.223,106.351
			c-3.223,70.095-13.025,145.292-6.446,215.924c1.88,19.067,11.146,38.404,12.891,58.009c3.76,38.808-8.729,81.912-16.114,125.688
			c-45.521,270.441-88.625,583.048-125.687,854.026c118.705,41.493,268.025,69.289,425.402,61.232
			c40.553-243.183,74.929-508.119,109.573-767.013c5.237-38.271,6.445-81.24,19.336-103.128
			c13.159-21.888,41.493-23.097,70.9-38.673c29.004-15.174,60.963-48.072,99.905-74.123c38.27-25.514,85.403-42.164,109.573-61.232
			c29.542-23.23,53.31-74.257,83.792-109.573c35.047-40.553,85.269-64.857,103.128-109.573c9.399-23.096,6.177-49.952,12.891-74.123
			c14.502-51.563,46.193-107.425,29.005-164.359c-72.915-26.051-130.387,39.479-151.469,106.351
			c-6.043,19.471-2.015,42.566-9.668,61.231c-19.068,47.268-92.922,76.138-141.801,96.683c-32.765-49.818-12.085-114.542,0-167.583
			c25.111-109.842,44.044-75.331,119.107-153.349" stroke-width="16" stroke="#9C6B54" fill="none" />
    </g>
  </g>
  <path stroke-linecap="round" d="M958.761,395.984
	c-40.957-25.484-63.535,28.488-100.495,55.497" stroke-width="16" stroke="#FCB054" fill="none" />
  <path stroke-linecap="round" d="M913.763,539.977
	c36.344-37.798,112.495-101.995,44.998-143.993" stroke-width="16" stroke="#FCB054" fill="none" />
</svg>
