<?xml version="1.0" encoding="UTF-8" standalone="no"?>
<!DOCTYPE svg PUBLIC "-//W3C//DTD SVG 1.1//EN" "http://www.w3.org/Graphics/SVG/1.1/DTD/svg11.dtd">
<svg enable-background="new -140.708 -446.507 3146 1214" x="0px" xmlns:xlink="http://www.w3.org/1999/xlink" y="0px" viewBox="-140.708 -446.507 3146 1214" version="1.0" height="1214px" xml:space="preserve" xmlns:a="http://ns.adobe.com/AdobeSVGViewerExtensions/3.0/" width="3146px" xmlns="http://www.w3.org/2000/svg">
  <defs></defs>
  <g id="XMLID_54_">
    <g></g>
    <g>
      <path stroke-linecap="round" d="M442.496,457.59
			c-22.559,69.021-24.036,70.497-58.546,80.972c-51.027-31.557-51.43-129.581-68.349-188.263
			c-13.965-48.475,2.955-159.392-68.349-152.543c-58.144,5.64-52.504,76.406-44.447,129.984c4.7,30.348,7.789,60.292,12.891,83.791
			c10.608,48.341-5.505,121.256-3.894,163.957c1.208,30.079-12.22,63.649-16.114,96.683c-4.029,35.047-1.477,71.303-3.223,106.351
			c-3.223,70.095-13.025,145.292-6.446,215.924c1.88,19.067,11.146,38.404,12.891,58.009c3.76,38.808-8.729,81.912-16.114,125.688
			c-45.521,270.441-88.625,583.048-125.687,854.026c118.705,41.493,268.025,69.289,425.402,61.232
			c40.553-243.183,74.929-508.119,109.573-767.013c5.237-38.271,6.445-81.24,19.336-103.128
			c13.159-21.888,41.493-23.097,70.9-38.673c29.004-15.174,60.963-48.072,99.905-74.123c38.27-25.514,85.403-42.164,109.573-61.232
			c29.542-23.23,53.31-74.257,83.792-109.573c35.047-40.553,85.269-64.857,103.128-109.573c9.399-23.096,6.177-49.952,12.891-74.123
			c14.502-51.563,46.193-107.425,29.005-164.359c-72.915-26.051-130.387,39.479-151.469,106.351
			c-6.043,19.471-2.015,42.566-9.668,61.231c-19.068,47.268-92.922,76.138-141.801,96.683c-32.765-49.818-12.085-114.542,0-167.583
			c25.111-109.842,55.458-202.63,83.792-312.605c13.16-50.759,52.638-189.739-19.336-199.811
			c-48.878-6.849-57.875,35.854-67.678,80.568c-25.782,118.974-21.082,232.44-82.583,312.069
			c-24.976-25.514-31.287-76.809-28.467-106.485c9.937-102.59,4.297-167.582,11.145-266.815
			c-21.082-44.447-73.452-31.825-96.011,3.223c-31.959,72.914-5.371,57.875-24.573,149.589
			c-5.506,26.99,1.477,176.982-17.994,184.502c-24.037-1.478-22.425-11.146-12.085-71.975" stroke-width="16" stroke="#9C6B54" fill="none" />
    </g>
  </g>
  <path stroke-linecap="round" d="M478.43,364.582
	c-24.842,13.074-15.931,34.557-34.499,91.496" stroke-width="16" stroke="#FCB054" fill="none" />
  <path stroke-linecap="round" d="M556.426,364.582
	c-32.999-19.499-49.498-14.999-77.996,0" stroke-width="16" stroke="#FCB054" fill="none" />
  <path stroke-linecap="round" d="M565.425,459.077
	c10.5-61.496,17.999-76.496-9-94.495" stroke-width="16" stroke="#FCB054" fill="none" />
</svg>
