<?xml version="1.0" encoding="UTF-8" standalone="no"?>
<!DOCTYPE svg PUBLIC "-//W3C//DTD SVG 1.1//EN" "http://www.w3.org/Graphics/SVG/1.1/DTD/svg11.dtd">
<svg enable-background="new -140.708 -446.507 3146 1214" x="0px" xmlns:xlink="http://www.w3.org/1999/xlink" y="0px" viewBox="-140.708 -446.507 3146 1214" version="1.0" height="1214px" xml:space="preserve" xmlns:a="http://ns.adobe.com/AdobeSVGViewerExtensions/3.0/" width="3146px" xmlns="http://www.w3.org/2000/svg">
  <defs></defs>
  <g id="XMLID_43_">
    <g></g>
    <g>
      <path stroke-linecap="round" d="M919.778,86.95
			c-64.455,107.962-133.475,264.534-211.492,371.958c-13.563,22.425-92.922,105.947-86.746,13.696
			c6.848-100.711,44.715-177.922,51.564-277.155c-21.082-44.447-87.014-31.825-109.573,3.223
			c-31.959,72.914-58.144,153.214-77.346,244.928c-5.505,26.991-4.565,60.562-25.782,80.569
			c-23.365-47.401,16.114-118.839,9.399-180.205c-6.714-62.575,5.237-123.404-15.039-169.866
			c-22.828-21.484-69.155-19.604-87.014,9.669c-14.502,24.036-12.623,110.916-12.891,170.805
			c-0.269,79.092-21.216,165.569-55.592,195.379c-31.153-45.655-8.325-140.727-25.245-199.407
			C260.056,302.069,277.11,191.152,205.807,198c-58.144,5.64-52.638,76.406-44.582,129.984c4.7,30.348,7.789,60.292,12.891,83.791
			c10.608,48.341-5.371,121.256-3.76,163.957c1.208,30.079-12.22,63.649-16.114,96.683c-4.028,35.047-1.477,71.303-3.223,106.351
			c-3.223,70.095-13.025,145.292-6.446,215.924c1.88,19.067,11.146,38.404,12.891,58.009c3.76,38.808-8.728,81.912-16.114,125.688
			c-45.521,270.441-88.625,583.048-125.687,854.026c118.705,41.493,268.025,69.289,425.402,61.232
			c40.553-243.183,74.929-508.119,109.573-767.013c5.237-38.271,6.445-81.24,19.336-103.128c13.16-21.888,41.493-23.097,70.9-38.673
			c29.005-15.174,60.963-48.072,99.905-74.123c38.27-25.514,85.402-42.164,109.573-61.232c29.542-23.23,53.31-74.257,83.791-109.573
			c35.047-40.553,85.269-64.857,103.128-109.573c9.399-23.096,6.177-49.952,12.891-74.123
			c14.502-51.563,46.192-107.425,29.004-164.359c-72.915-26.051-130.387,39.479-151.469,106.35
			c-6.042,19.472-2.014,42.567-9.668,61.232c-19.068,47.268-92.922,76.138-141.801,96.683c-32.764-49.818-12.085-114.542,0-167.583
			c34.913-152.677,224.518-495.094,246.003-555.52" stroke-width="16" stroke="#9C6B54" fill="none" />
    </g>
  </g>
  <path stroke-linecap="round" d="M1017.318,10.456
	c-58.586-14.646-75.102,41.407-100.494,79.496" stroke-width="16" stroke="#FCB054" fill="none" />
  <path stroke-linecap="round" d="M1023.318,133.449
	c31.498-58.497,50.998-86.996-4.5-121.494" stroke-width="16" stroke="#FCB054" fill="none" />
</svg>
