<?xml version="1.0" encoding="UTF-8" standalone="no"?>
<!DOCTYPE svg PUBLIC "-//W3C//DTD SVG 1.1//EN" "http://www.w3.org/Graphics/SVG/1.1/DTD/svg11.dtd">
<svg enable-background="new -140.708 -446.507 3146 1214" x="0px" xmlns:xlink="http://www.w3.org/1999/xlink" y="0px" viewBox="-140.708 -446.507 3146 1214" version="1.0" height="1214px" xml:space="preserve" xmlns:a="http://ns.adobe.com/AdobeSVGViewerExtensions/3.0/" width="3146px" xmlns="http://www.w3.org/2000/svg">
  <defs></defs>
  <g id="XMLID_65_">
    <g></g>
    <g>
      <path stroke-linecap="round" d="M949.608,287.449
			c6.58-9.131,12.757-18.128,18.531-26.99c25.11-38.27,60.023-72.914,93.997-42.03c32.228,29.273,25.917,69.289,9.131,105.948" stroke-width="16" stroke="#FCB054" fill="none" />
      <path stroke-linecap="round" d="M1071.267,324.376
			c-6.043,13.294-13.563,26.319-21.082,38.136c-65.529,102.859-224.518,222.772-249.628,332.614
			c-12.085,53.041-32.765,117.764,0,167.582c48.878-20.545,122.733-49.415,141.801-96.682c7.654-18.665,3.625-41.762,9.668-61.232
			c21.082-66.872,78.555-132.401,151.469-106.351c17.188,56.936-14.502,112.796-29.005,164.36
			c-6.714,24.17-3.491,51.026-12.891,74.123c-17.859,44.715-68.081,69.021-103.127,109.573
			c-30.482,35.315-54.25,86.343-83.792,109.573c-24.17,19.067-71.303,35.719-109.573,61.231
			c-38.941,26.051-70.9,58.95-99.905,74.123c-29.407,15.577-57.741,16.785-70.9,38.674c-12.891,21.888-14.099,64.857-19.336,103.127
			c-34.645,258.895-69.021,523.83-109.573,767.014c-157.377,8.057-306.698-19.739-425.402-61.232
			c37.062-270.979,80.166-583.585,125.687-854.027c7.385-43.775,19.874-86.88,16.113-125.687
			c-1.746-19.605-11.011-38.941-12.891-58.01c-6.58-70.632,3.223-145.829,6.445-215.924c1.746-35.047-0.806-71.303,3.223-106.351
			c3.895-33.033,17.322-66.604,16.114-96.682c-1.611-42.702,14.502-115.616,3.894-163.957c-5.103-23.5-8.191-53.444-12.891-83.792
			c-8.057-53.578-13.697-124.479,44.447-130.118c71.303-6.849,54.384,104.202,68.349,152.678
			c16.919,58.681-6.042,153.752,25.11,199.407c34.376-29.811,55.458-116.287,55.727-195.379
			c0.269-59.89-1.611-146.77,12.891-170.806c17.859-29.273,64.187-31.153,87.014-9.668c20.276,46.461,8.191,107.156,14.905,169.731
			c6.714,61.366-19.336,132.669,4.028,180.07c21.216-20.008,33.167-55.995,38.673-82.985
			c19.202-91.714,47.401-171.074,51.027-242.243c22.559-35.047,88.491-47.669,109.573-3.223
			c12.757,94.399-15.577,174.028-25.245,274.471c-2.82,29.676-22.291,68.617,0,89.968C706.292,562.86,858.7,402.796,949.34,287.717
			c0.269-0.134,0.269-0.134,0.269-0.269c2.954-3.76,5.774-7.385,8.594-11.011" stroke-width="16" stroke="#9C6B54" fill="none" />
    </g>
  </g>
</svg>
