<?xml version="1.0" encoding="UTF-8" standalone="no"?>
<!DOCTYPE svg PUBLIC "-//W3C//DTD SVG 1.1//EN" "http://www.w3.org/Graphics/SVG/1.1/DTD/svg11.dtd">
<svg enable-background="new 322.969 -233.465 3146 1214" x="0px" xmlns:xlink="http://www.w3.org/1999/xlink" y="0px" viewBox="322.969 -233.465 3146 1214" version="1.1" height="1214px" xml:space="preserve" xmlns:a="http://ns.adobe.com/AdobeSVGViewerExtensions/3.0/" width="3146px" xmlns="http://www.w3.org/2000/svg">
  <defs></defs>
  <g id="XMLID_61_">
    <g></g>
    <g>
      <path stroke-linecap="round" d="M2906.987,321.131
			c-25.514,24.036-42.03,35.987-62.038,56.397c-36.928,37.33-84.061,65.933-123.002,131.864
			c-15.308,25.916-36.793,124.612-32.898,157.646c4.028,35.048,1.478,71.304,3.223,106.351
			c3.223,70.095,13.025,145.292,6.445,215.924c-1.88,19.068-11.146,38.404-12.891,58.01c-3.76,38.807,8.729,81.911,16.113,125.687
			c45.521,270.442,88.626,583.049,125.688,854.027c-118.704,41.493-268.025,69.289-425.402,61.232
			c-40.553-243.184-74.929-508.119-109.573-767.014c-5.237-38.27-6.445-81.239-19.337-103.127
			c-13.159-21.888-41.492-23.097-70.899-38.673c-29.005-15.174-60.964-48.073-99.905-74.124
			c-38.271-25.513-85.403-42.164-109.573-61.231c-29.542-23.23-53.31-74.258-83.792-109.573
			c-35.047-40.553-85.268-64.858-103.127-109.573c-9.399-23.097-6.177-49.953-12.891-74.123
			c-14.502-51.564-46.192-107.425-29.004-164.36c72.915-26.051,130.387,39.479,151.469,106.351
			c6.042,19.471,2.014,42.567,9.668,61.232c19.067,47.267,92.922,76.137,141.801,96.682
			c32.765-49.817,24.036-118.032,11.951-171.073c-25.111-109.842-65.933-158.989-167.986-217.535
			c-45.387-26.051-72.243-87.686-0.269-97.757c48.879-6.848,136.564,41.896,171.074,71.975
			c92.923,80.972,65.529,41.493,127.03,121.121c22.29-21.351,15.711-60.561,12.891-90.236
			c-9.668-100.442-0.269-161.137-22.693-260.103c8.997-46.461,81.777-53.578,104.336-18.531
			c31.959,72.915,35.182,152.006,67.813,245.465c9.131,26.051,4.565,60.562,25.781,80.569
			c23.365-47.401-3.76-141.533,16.785-201.556c20.411-59.352,26.723-117.093,64.321-150.932
			c29.541-10.206,72.512,2.283,76.674,36.256c3.223,27.93-23.633,106.216-28.333,166.643c-4.7,60.695,18.263,121.659,34.107,133.073
			c73.586-38.539,221.295-177.654,264.937-220.49" stroke-width="8" stroke="#9C6B54" fill="none" />
    </g>
  </g>
  <path stroke-linecap="round" d="M2940.662,216.907
	c44.343,45.724-2.538,63.685-35.727,106.513" stroke-width="8" stroke="#FCB054" fill="none" />
  <path stroke-linecap="round" d="M2825.41,276.971
	c42.683-41.655,57.6-86.336,115.252-60.064" stroke-width="8" stroke="#FCB054" fill="none" />
</svg>
