<?xml version="1.0" encoding="UTF-8" standalone="no"?>
<!DOCTYPE svg PUBLIC "-//W3C//DTD SVG 1.1//EN" "http://www.w3.org/Graphics/SVG/1.1/DTD/svg11.dtd">
<svg enable-background="new -140.708 -446.507 3146 1214" x="0px" xmlns:xlink="http://www.w3.org/1999/xlink" y="0px" viewBox="-140.708 -446.507 3146 1214" version="1.0" height="1214px" xml:space="preserve" xmlns:a="http://ns.adobe.com/AdobeSVGViewerExtensions/3.0/" width="3146px" xmlns="http://www.w3.org/2000/svg">
  <defs></defs>
  <g id="XMLID_44_">
    <g></g>
    <g>
      <path stroke-linecap="round" d="M1304.257,89.454
			c64.455,107.961,184.502,264.534,262.519,371.958c13.563,22.425,92.923,105.947,86.746,13.696
			c-6.849-100.711-44.716-177.922-51.564-277.156c21.083-44.447,87.015-31.824,109.573,3.223
			c31.959,72.915,58.145,153.215,77.347,244.929c5.505,26.99,4.565,60.561,25.781,80.568c23.365-47.4-16.113-118.838-9.399-180.205
			c6.714-62.574-5.237-123.404,15.039-169.865c22.828-21.485,69.155-19.605,87.015,9.668
			c14.502,24.037,12.622,110.917,12.891,170.806c0.269,79.092,21.217,165.568,55.593,195.379
			c31.153-45.655,8.325-140.727,25.244-199.407c13.966-48.476-3.088-159.392,68.215-152.543
			c58.144,5.64,52.639,76.405,44.582,129.983c-4.7,30.348-7.789,60.293-12.892,83.792c-10.608,48.341,5.371,121.256,3.76,163.957
			c-1.208,30.079,12.22,63.649,16.114,96.683c4.028,35.047,1.477,71.303,3.223,106.35c3.223,70.095,13.025,145.292,6.445,215.924
			c-1.88,19.068-11.146,38.404-12.891,58.01c-3.76,38.808,8.728,81.911,16.113,125.688
			c45.521,270.441,88.626,583.048,125.688,854.026c-118.705,41.493-268.025,69.289-425.402,61.232
			c-40.553-243.183-74.929-508.119-109.573-767.013c-5.237-38.271-6.445-81.24-19.337-103.128
			c-13.159-21.888-41.492-23.097-70.9-38.673c-29.004-15.174-60.963-48.073-99.904-74.123
			c-38.271-25.514-85.403-42.165-109.574-61.232c-29.542-23.23-53.31-74.258-83.792-109.573
			c-35.047-40.553-85.268-64.857-103.127-109.573c-9.4-23.097-6.177-49.953-12.891-74.123
			c-14.502-51.564-46.193-107.425-29.005-164.36c72.915-26.05,130.387,39.479,151.469,106.351
			c6.042,19.471,2.014,42.567,9.668,61.232c19.068,47.267,92.922,76.138,141.801,96.683c32.764-49.818,12.085-114.542,0-167.583
			c-34.913-152.678-275.545-495.094-297.164-555.521" stroke-width="16" stroke="#9C6B54" fill="none" />
    </g>
  </g>
  <path stroke-linecap="round" d="M1206.739,12.989
	c58.586-14.646,75.103,41.407,100.495,79.496" stroke-width="16" stroke="#FCB054" fill="none" />
  <path stroke-linecap="round" d="M1200.74,135.983
	c-31.499-58.497-50.998-86.996,4.5-121.494" stroke-width="16" stroke="#FCB054" fill="none" />
</svg>
