<?xml version="1.0" encoding="utf-8"?>
<!-- Generator: Adobe Illustrator 13.0.2, SVG Export Plug-In  -->
<!DOCTYPE svg PUBLIC "-//W3C//DTD SVG 1.0//EN" "http://www.w3.org/TR/2001/REC-SVG-20010904/DTD/svg10.dtd" [
	<!ENTITY ns_flows "http://ns.adobe.com/Flows/1.0/">
]>
<svg version="1.0"
	 xmlns="http://www.w3.org/2000/svg" xmlns:xlink="http://www.w3.org/1999/xlink" xmlns:a="http://ns.adobe.com/AdobeSVGViewerExtensions/3.0/"
	 x="0px" y="0px" width="3146px" height="1214px" viewBox="-140.708 -446.507 3146 1214"
	 enable-background="new -140.708 -446.507 3146 1214" xml:space="preserve">
<defs>
</defs>
<g id="XMLID_76_" display="none">
	<g display="inline">
	</g>
	<g display="inline">
		<path fill="none" stroke="#9C6B54" stroke-width="16" stroke-linecap="round" d="M1981.83,559.506
			c31.153-45.656,8.326-140.727,25.245-199.407c13.965-48.476-3.088-159.392,68.215-152.544
			c58.144,5.64,52.638,76.406,44.581,129.984c-4.699,30.348-7.788,60.292-12.891,83.791c-10.608,48.342,5.371,121.256,3.76,163.957
			c-1.209,30.079,12.22,63.649,16.113,96.683c4.029,35.047,1.478,71.303,3.223,106.351c3.224,70.095,13.025,145.292,6.446,215.924
			c-1.88,19.067-11.146,38.404-12.892,58.009c-3.76,38.808,8.729,81.912,16.114,125.688
			c45.521,270.441,88.625,583.048,125.687,854.027c-118.704,41.492-268.024,69.289-425.402,61.231
			c-40.553-243.183-74.929-508.119-109.573-767.013c-5.236-38.27-6.445-81.24-19.336-103.128
			c-13.159-21.888-41.493-23.096-70.9-38.673c-29.005-15.174-60.964-48.072-99.905-74.123
			c-38.27-25.514-85.402-42.164-109.573-61.232c-29.542-23.23-53.31-74.257-83.791-109.573
			c-35.047-40.553-85.269-64.857-103.128-109.573c-9.4-23.096-6.177-49.952-12.891-74.123
			c-14.502-51.563-46.192-107.425-29.004-164.359c72.915-26.051,130.387,39.479,151.469,106.351
			c6.042,19.471,2.014,42.566,9.668,61.231c19.068,47.268,92.922,76.138,141.8,96.683c32.765-49.818,12.086-114.542,0-167.583
			c-25.11-109.842-55.458-202.63-83.791-312.605c-13.16-50.759-52.638-189.739,19.336-199.811
			c48.879-6.848,57.875,35.854,67.678,80.568c25.782,118.974,77.077,226.532,138.578,306.161
			c22.291-21.351,15.711-60.561,12.891-90.237c-9.668-100.441-44.715-177.922-51.563-277.155
			c21.082-44.447,87.014-31.825,109.573,3.223c31.959,72.914,58.144,153.215,77.346,244.929c5.506,26.99,4.565,60.561,25.782,80.568
			c23.365-47.401-16.114-118.839-9.399-180.205c6.714-62.575-5.371-123.404,14.905-169.865
			c22.827-21.485,69.154-19.605,87.014,9.668c14.502,24.036,12.622,110.916,12.891,170.806
			C1926.372,443.218,1947.454,529.696,1981.83,559.506z"/>
	</g>
</g>
<g id="XMLID_75_" display="none">
	<g display="inline">
	</g>
	<g display="inline">
		<path fill="none" stroke="#9C6B54" stroke-width="16" stroke-linecap="round" d="M326.201,559.71
			c-31.153-45.655-8.191-140.726-25.11-199.407c-13.965-48.475,2.954-159.391-68.349-152.543
			c-58.144,5.64-52.504,76.406-44.447,129.984c4.7,30.348,7.788,60.292,12.891,83.791c10.608,48.341-5.505,121.256-3.894,163.957
			c1.208,30.079-12.219,63.649-16.114,96.683c-4.028,35.047-1.477,71.303-3.223,106.351c-3.223,70.095-13.025,145.292-6.445,215.924
			c1.88,19.067,11.145,38.404,12.891,58.009c3.76,38.808-8.728,81.912-16.113,125.688
			c-45.521,270.441-88.625,583.048-125.687,854.027c118.704,41.492,268.024,69.288,425.402,61.231
			c40.553-243.183,74.929-508.119,109.573-767.013c5.237-38.271,6.446-81.24,19.336-103.128c13.16-21.888,41.493-23.097,70.9-38.673
			c29.005-15.174,60.964-48.072,99.905-74.123c38.27-25.514,85.403-42.164,109.573-61.232c29.542-23.23,53.31-74.257,83.792-109.573
			c35.047-40.553,85.268-64.857,103.127-109.573c9.4-23.096,6.177-49.952,12.891-74.123
			c14.502-51.563,46.192-107.425,29.005-164.359c-72.915-26.051-130.387,39.479-151.469,106.351
			c-6.042,19.471-2.014,42.566-9.668,61.231c-19.068,47.268-92.923,76.138-141.801,96.683c-32.765-49.818-12.085-114.542,0-167.583
			c25.11-109.842,55.458-202.63,83.791-312.605c13.16-50.759,52.638-189.739-19.336-199.811
			c-48.878-6.849-57.875,35.854-67.677,80.568c-25.782,118.974-77.078,226.532-138.578,306.161
			c-22.291-21.351-15.711-60.561-12.891-90.237c9.668-100.441,44.716-177.922,51.564-277.155
			c-21.082-44.447-87.014-31.825-109.573,3.223c-31.959,72.914-58.144,153.214-77.346,244.929
			c-5.506,26.99-4.566,60.561-25.782,80.568c-23.365-47.401,16.114-118.839,9.4-180.205c-6.714-62.575,5.371-123.404-14.905-169.865
			c-22.828-21.485-69.155-19.605-87.014,9.668c-14.502,24.036-12.623,110.916-12.891,170.806
			C381.659,443.423,360.577,529.901,326.201,559.71z"/>
	</g>
</g>
<g id="XMLID_74_" display="none">
	<g display="inline">
	</g>
	<g display="inline">
		<path fill="none" stroke="#FCB054" stroke-width="16" stroke-linecap="round" d="M2117.588,273.488
			c0.537-31.288-7.923-56.667-42.299-60.024c-38.404-3.625-56.667,25.111-67.006,60.024"/>
		<path fill="none" stroke="#9C6B54" stroke-width="16" stroke-linecap="round" d="M2008.284,273.488
			c-8.863,29.81-11.951,63.917-17.054,85.939c-11.951,52.101,21.753,154.423-9.4,200.079
			c-34.376-29.811-53.443-120.316-53.712-199.407c-0.269-59.89,1.611-146.77-12.891-170.806
			c-17.859-29.273-64.187-31.153-87.015-9.668c-20.276,46.461-8.191,107.29-14.905,169.865
			c-6.714,61.366,30.751,136.832,7.386,184.233c-21.217-20.008-20.276-53.578-25.782-80.568
			c-19.202-91.714-45.387-172.015-77.346-244.929c-22.56-35.048-88.491-47.67-109.573-3.223
			c6.849,99.233,41.896,176.714,51.563,277.155c2.82,29.677,9.4,68.887-12.891,90.237
			c-61.501-79.629-112.796-187.188-138.578-306.161c-9.803-44.715-18.799-87.416-67.678-80.568
			c-71.974,10.071-32.496,149.052-19.336,199.811c28.333,109.976,58.681,202.764,83.791,312.605
			c12.086,53.041,32.765,117.765,0,167.583c-48.878-20.545-122.732-49.415-141.8-96.683c-7.654-18.665-3.626-41.761-9.668-61.231
			c-21.082-66.872-78.554-132.401-151.469-106.351c-17.188,56.935,14.502,112.796,29.004,164.359
			c6.714,24.171,3.491,51.027,12.891,74.123c17.859,44.716,68.081,69.021,103.128,109.573
			c30.481,35.316,54.25,86.343,83.791,109.573c24.171,19.068,71.304,35.719,109.573,61.232c38.941,26.051,70.9,58.949,99.905,74.123
			c29.407,15.577,57.741,16.785,70.9,38.673c12.891,21.888,14.1,64.858,19.336,103.128
			c34.645,258.894,69.021,523.83,109.573,767.013c157.378,8.058,306.698-19.739,425.402-61.231
			c-37.062-270.979-80.165-583.586-125.687-854.027c-7.386-43.775-19.874-86.88-16.114-125.688
			c1.746-19.604,11.012-38.941,12.892-58.009c6.579-70.632-3.223-145.829-6.446-215.924c-1.745-35.048,0.807-71.304-3.223-106.351
			c-3.894-33.033-17.322-66.604-16.113-96.683c1.611-42.701-8.325-114.676-3.76-163.957c2.282-25.781-2.417-49.55,2.282-79.896
			c3.357-21.889,7.923-46.327,8.326-67.946"/>
	</g>
</g>
<g id="XMLID_73_" display="none">
	<g display="inline">
	</g>
	<g display="inline">
		<path fill="none" stroke="#FCB054" stroke-width="16" stroke-linecap="round" d="M174.729,274.509
			c-0.537-31.288,7.923-56.667,42.299-60.024c38.404-3.625,56.532,25.111,66.872,60.024"/>
		<path fill="none" stroke="#9C6B54" stroke-width="16" stroke-linecap="round" d="M283.899,274.509
			c8.863,29.81,11.951,63.917,17.054,85.939c11.951,52.101-21.619,154.423,9.534,200.078c34.376-29.81,53.31-120.315,53.578-199.407
			c0.269-59.889-1.611-146.769,12.891-170.805c17.859-29.273,64.187-31.153,87.014-9.669c20.276,46.462,8.326,107.291,15.04,169.866
			c6.714,61.366-30.75,136.832-7.385,184.233c21.216-20.008,20.276-53.578,25.782-80.568
			c19.202-91.714,45.387-172.015,77.346-244.929c22.56-35.048,88.491-47.67,109.573-3.223
			c-6.848,99.233-41.896,176.714-51.563,277.155c-2.82,29.677-9.4,68.887,12.891,90.237
			c61.501-79.629,112.796-187.188,138.578-306.161c9.803-44.715,18.799-87.417,67.678-80.568
			c71.975,10.071,32.496,149.052,19.336,199.811c-28.333,109.976-58.681,202.764-83.792,312.605
			c-12.085,53.041-32.765,117.765,0,167.583c48.878-20.545,122.733-49.415,141.801-96.683c7.654-18.665,3.625-41.761,9.668-61.231
			c21.082-66.872,78.554-132.401,151.469-106.351c17.188,56.935-14.502,112.796-29.005,164.359
			c-6.714,24.171-3.491,51.027-12.891,74.123c-17.859,44.716-68.081,69.021-103.128,109.573
			c-30.482,35.316-54.25,86.343-83.792,109.573c-24.17,19.068-71.303,35.719-109.573,61.232
			c-38.941,26.051-70.9,58.949-99.905,74.123c-29.408,15.577-57.741,16.785-70.9,38.673c-12.891,21.888-14.1,64.857-19.336,103.128
			c-34.645,258.894-69.021,523.83-109.573,767.013c-157.377,8.057-306.698-19.739-425.402-61.231
			c37.062-270.979,80.166-583.586,125.687-854.027c7.385-43.775,19.874-86.88,16.114-125.688
			c-1.746-19.604-11.011-38.941-12.891-58.009c-6.58-70.632,3.223-145.829,6.446-215.924c1.746-35.048-0.806-71.304,3.223-106.351
			c3.894-33.033,17.322-66.604,16.114-96.683c-1.611-42.701,8.325-114.676,3.76-163.957c-2.417-25.916,2.283-49.55-2.417-79.897
			c-3.223-21.888-7.923-46.326-8.191-67.945"/>
	</g>
</g>
<g id="XMLID_72_" display="none">
	<g display="inline">
	</g>
	<g display="inline">
		<path fill="none" stroke="#FCB054" stroke-width="16" stroke-linecap="round" d="M1926.372,259.522
			c-2.014-14.771-5.773-28.199-13.159-40.149c-17.726-29.273-64.187-31.153-87.014-9.669
			c-13.025,17.859-17.457,33.705-18.263,49.818"/>
		<path fill="none" stroke="#9C6B54" stroke-width="16" stroke-linecap="round" d="M1807.936,259.522
			c-1.343,26.991,7.52,54.787,3.357,93.997c-6.715,61.366,32.765,132.804,9.399,180.205c-21.217-20.008-20.276-53.578-25.782-80.568
			c-19.202-91.714-45.387-172.015-77.346-244.929c-22.56-35.048-88.491-47.67-109.573-3.223
			c6.849,99.233,41.896,176.714,51.563,277.155c2.82,29.677,9.4,68.887-12.891,90.237
			c-61.501-79.629-112.796-187.188-138.578-306.161c-9.803-44.715-18.799-87.416-67.678-80.568
			c-71.974,10.071-32.496,149.052-19.336,199.811c28.333,109.976,58.681,202.764,83.791,312.605
			c12.086,53.041,32.765,117.765,0,167.583c-48.878-20.545-122.732-49.415-141.8-96.683c-7.654-18.665-3.626-41.761-9.668-61.231
			c-21.082-66.872-78.554-132.401-151.469-106.351c-17.188,56.935,14.502,112.796,29.004,164.359
			c6.714,24.171,3.491,51.027,12.891,74.123c17.859,44.716,68.081,69.021,103.128,109.573
			c30.481,35.316,54.25,86.343,83.791,109.573c24.171,19.068,71.304,35.719,109.573,61.232c38.941,26.051,70.9,58.949,99.905,74.123
			c29.407,15.577,57.741,16.785,70.9,38.673c12.891,21.888,14.1,64.858,19.336,103.128
			c34.645,258.894,69.021,523.83,109.573,767.013c157.378,8.058,306.698-19.739,425.402-61.231
			c-37.062-270.979-80.165-583.586-125.687-854.027c-7.386-43.775-19.874-86.88-16.114-125.688
			c1.746-19.604,11.012-38.941,12.892-58.009c6.579-70.632-3.223-145.829-6.446-215.924c-1.745-35.048,0.807-71.304-3.223-106.351
			c-3.894-33.033-17.322-66.604-16.113-96.683c1.611-42.701-14.368-115.615-3.76-163.957c5.103-23.499,8.191-53.443,12.891-83.791
			c8.057-53.578,13.563-124.345-44.581-129.984c-71.303-6.848-54.25,104.068-68.215,152.544
			c-16.919,58.681,5.908,153.751-25.245,199.407c-34.376-29.811-55.458-116.288-55.727-195.379
			c-0.134-40.016,4.028-75.063,0.269-104.605"/>
	</g>
</g>
<g id="XMLID_71_" display="none">
	<g display="inline">
	</g>
	<g display="inline">
		<path fill="none" stroke="#FCB054" stroke-width="16" stroke-linecap="round" d="M373.955,248.471
			c1.88-14.771,5.774-28.064,13.025-40.149c17.859-29.273,64.186-31.153,87.014-9.669c13.025,17.859,17.591,33.705,18.396,49.818"/>
		<path fill="none" stroke="#9C6B54" stroke-width="16" stroke-linecap="round" d="M492.391,248.471
			c1.343,26.99-7.654,54.787-3.357,93.997c6.714,61.366-32.765,132.804-9.4,180.205c21.216-20.008,20.276-53.578,25.782-80.568
			c19.203-91.715,45.387-172.015,77.346-244.929c22.559-35.048,88.491-47.67,109.573-3.223
			c-6.849,99.233-41.896,176.714-51.564,277.155c-2.82,29.677-9.4,68.887,12.891,90.237
			c61.5-79.629,112.796-187.188,138.578-306.161c9.803-44.715,18.799-87.417,67.678-80.568
			c71.975,10.071,32.496,149.052,19.336,199.811c-28.333,109.976-58.681,202.764-83.791,312.605
			c-12.085,53.041-32.765,117.765,0,167.583c48.878-20.545,122.732-49.415,141.8-96.683c7.654-18.665,3.626-41.761,9.668-61.231
			c21.082-66.872,78.554-132.401,151.469-106.351c17.188,56.935-14.502,112.796-29.004,164.359
			c-6.714,24.171-3.491,51.027-12.891,74.123c-17.859,44.716-68.081,69.021-103.128,109.573
			c-30.481,35.316-54.25,86.343-83.791,109.573c-24.171,19.068-71.303,35.719-109.573,61.232
			c-38.942,26.051-70.9,58.949-99.905,74.123c-29.408,15.576-57.741,16.785-70.9,38.673c-12.891,21.888-14.1,64.857-19.336,103.128
			c-34.645,258.894-69.021,523.83-109.573,767.013c-157.377,8.057-306.698-19.739-425.402-61.231
			c37.062-270.979,80.166-583.586,125.687-854.027c7.386-43.775,19.874-86.88,16.114-125.688
			c-1.746-19.604-11.011-38.941-12.891-58.009c-6.58-70.632,3.223-145.829,6.445-215.924c1.746-35.048-0.806-71.304,3.223-106.351
			c3.894-33.033,17.322-66.604,16.114-96.683c-1.611-42.701,14.368-115.481,3.76-163.822c-5.103-23.5-8.191-53.444-12.891-83.792
			c-8.057-53.578-13.562-124.479,44.582-130.118c71.303-6.848,54.25,104.202,68.215,152.678
			c16.919,58.681-5.909,153.617,25.245,199.272c34.376-29.81,55.324-116.287,55.592-195.378c0.269-39.882-3.894-74.93-0.134-104.605
			"/>
	</g>
</g>
<g id="XMLID_70_" display="none">
	<g display="inline">
	</g>
	<g display="inline">
		<path fill="none" stroke="#9C6B54" stroke-width="16" stroke-linecap="round" d="M1612.155,281.544
			c12.891,69.826,39.479,117.898,47.4,200.615c2.82,29.677,9.4,68.887-12.891,90.237
			c-61.501-79.629-112.796-187.188-138.578-306.161c-9.803-44.715-18.799-87.416-67.678-80.568
			c-71.974,10.071-32.496,149.052-19.336,199.811c28.333,109.976,58.681,202.764,83.791,312.605
			c12.086,53.041,32.765,117.765,0,167.583c-48.878-20.545-122.732-49.415-141.8-96.683c-7.654-18.665-3.626-41.761-9.668-61.231
			c-21.082-66.872-78.554-132.401-151.469-106.351c-17.188,56.935,14.502,112.796,29.004,164.359
			c6.714,24.171,3.491,51.027,12.891,74.123c17.859,44.716,68.081,69.021,103.128,109.573
			c30.481,35.316,54.25,86.343,83.791,109.573c24.171,19.068,71.304,35.719,109.573,61.232c38.941,26.051,70.9,58.949,99.905,74.123
			c29.407,15.577,57.741,16.785,70.9,38.673c12.891,21.888,14.1,64.858,19.336,103.128
			c34.645,258.894,69.021,523.83,109.573,767.013c157.378,8.058,306.698-19.739,425.402-61.231
			c-37.062-270.979-80.165-583.586-125.687-854.027c-7.386-43.775-19.874-86.88-16.114-125.688
			c1.746-19.604,11.012-38.941,12.892-58.009c6.579-70.632-3.223-145.829-6.446-215.924c-1.745-35.048,0.807-71.304-3.223-106.351
			c-3.894-33.033-17.322-66.604-16.113-96.683c1.611-42.701-14.368-115.615-3.76-163.957c5.103-23.499,8.191-53.443,12.891-83.791
			c8.057-53.578,13.563-124.345-44.581-129.984c-71.303-6.848-54.25,104.068-68.215,152.544
			c-16.919,58.681,5.908,153.751-25.245,199.407c-34.376-29.811-55.458-116.288-55.727-195.379
			c-0.269-59.89,1.611-146.77-12.891-170.806c-17.859-29.273-64.187-31.153-87.014-9.668
			c-20.276,46.461-8.191,107.29-14.905,169.865c-6.715,61.366,32.765,132.804,9.399,180.205
			c-21.217-20.008-20.276-53.578-25.782-80.568c-15.039-71.706-35.584-119.376-59.083-171.611"/>
		<path fill="none" stroke="#FCB054" stroke-width="16" stroke-linecap="round" d="M1735.828,281.544
			c-6.58-14.637-13.294-29.407-20.276-45.253c-22.56-35.047-88.491-47.67-109.574-3.223c1.209,17.457,3.357,33.436,6.178,48.476"/>
	</g>
</g>
<g id="XMLID_69_" display="none">
	<g display="inline">
	</g>
	<g display="inline">
		<path fill="none" stroke="#9C6B54" stroke-width="16" stroke-linecap="round" d="M686.265,278.512
			c-12.891,69.826-39.344,117.898-47.401,200.616c-2.82,29.676-9.399,68.886,12.891,90.236
			c61.5-79.629,112.796-187.188,138.578-306.16c9.802-44.716,18.799-87.417,67.677-80.569
			c71.975,10.071,32.496,149.053,19.336,199.811c-28.333,109.977-58.681,202.765-83.791,312.606
			c-12.085,53.041-32.765,117.764,0,167.582c48.878-20.545,122.733-49.415,141.801-96.682c7.654-18.665,3.625-41.762,9.668-61.232
			c21.082-66.872,78.555-132.401,151.469-106.351c17.188,56.936-14.502,112.796-29.005,164.36
			c-6.714,24.17-3.491,51.026-12.891,74.123c-17.859,44.715-68.081,69.021-103.127,109.573
			c-30.482,35.315-54.25,86.343-83.792,109.573c-24.17,19.067-71.303,35.719-109.573,61.231
			c-38.941,26.051-70.9,58.949-99.905,74.123c-29.407,15.577-57.741,16.785-70.9,38.673
			c-12.891,21.889-14.099,64.858-19.336,103.128c-34.645,258.895-69.021,523.83-109.573,767.014
			c-157.377,8.057-306.698-19.739-425.402-61.232c37.062-270.979,80.166-583.585,125.687-854.027
			c7.385-43.775,19.874-86.88,16.113-125.687c-1.746-19.605-11.011-38.941-12.891-58.01c-6.58-70.632,3.223-145.829,6.445-215.924
			c1.746-35.047-0.806-71.303,3.223-106.351c3.895-33.033,17.322-66.604,16.114-96.682c-1.611-42.702,14.502-115.616,3.894-163.958
			c-5.103-23.499-8.191-53.443-12.891-83.791c-8.057-53.578-13.697-124.344,44.447-129.983
			c71.303-6.849,54.384,104.067,68.349,152.543c16.919,58.681-6.042,153.752,25.11,199.407
			c34.376-29.811,55.458-116.287,55.727-195.379c0.269-59.89-1.611-146.77,12.891-170.806c17.859-29.273,64.187-31.153,87.014-9.668
			c20.276,46.461,8.191,107.29,14.905,169.865c6.714,61.366-32.765,132.804-9.4,180.205c21.216-20.008,20.276-53.578,25.782-80.568
			c15.04-71.706,35.584-119.376,59.083-171.611"/>
		<path fill="none" stroke="#FCB054" stroke-width="16" stroke-linecap="round" d="M562.592,278.512
			c6.58-14.502,13.294-29.407,20.276-45.253c22.559-35.047,88.491-47.669,109.573-3.223c-1.208,17.457-3.357,33.437-6.177,48.476"/>
	</g>
</g>
<g id="XMLID_68_" display="none">
	<g display="inline">
	</g>
	<g display="inline">
		<path fill="none" stroke="#FCB054" stroke-width="16" stroke-linecap="round" d="M1516.95,301.552
			c-3.357-11.683-6.312-23.365-8.863-35.316c-9.803-44.715-17.859-65.528-66.737-58.681c-42.433,5.908-46.73,49.147-40.284,93.997"
			/>
		<path fill="none" stroke="#9C6B54" stroke-width="16" stroke-linecap="round" d="M1401.065,301.552
			c4.565,31.153,14.368,63.112,20.008,83.926c30.213,109.976,58.681,202.764,83.791,312.605c12.086,53.041,32.765,117.765,0,167.583
			c-48.878-20.545-122.732-49.415-141.8-96.683c-7.654-18.665-3.626-41.761-9.668-61.231
			c-21.082-66.872-78.554-132.401-151.469-106.351c-17.188,56.935,14.502,112.796,29.004,164.359
			c6.714,24.171,3.491,51.027,12.891,74.123c17.859,44.716,68.081,69.021,103.128,109.573
			c30.481,35.316,54.25,86.343,83.791,109.573c24.171,19.068,71.304,35.719,109.573,61.232c38.941,26.051,70.9,58.949,99.905,74.123
			c29.407,15.577,57.741,16.785,70.9,38.673c12.891,21.888,14.1,64.858,19.336,103.128
			c34.645,258.894,69.021,523.83,109.573,767.013c157.378,8.058,306.698-19.739,425.402-61.231
			c-37.062-270.979-80.165-583.586-125.687-854.027c-7.386-43.775-19.874-86.88-16.114-125.688
			c1.746-19.604,11.012-38.941,12.892-58.009c6.579-70.632-3.223-145.829-6.446-215.924c-1.745-35.048,0.807-71.304-3.223-106.351
			c-3.894-33.033-17.322-66.604-16.113-96.683c1.611-42.701-14.368-115.615-3.76-163.957c5.103-23.499,8.191-53.443,12.891-83.791
			c8.057-53.578,13.563-124.345-44.581-129.984c-71.303-6.848-54.25,104.068-68.215,152.544
			c-16.919,58.681,5.908,153.751-25.245,199.407c-34.376-29.811-55.458-116.288-55.727-195.379
			c-0.269-59.89,1.611-146.77-12.891-170.806c-17.859-29.273-64.187-31.153-87.014-9.668
			c-20.276,46.461-8.191,107.29-14.905,169.865c-6.715,61.366,32.765,132.804,9.399,180.205
			c-21.217-20.008-20.276-53.578-25.782-80.568c-19.202-91.714-45.387-172.015-77.346-244.929
			c-22.56-35.048-88.491-47.67-109.573-3.223c6.849,99.233,41.896,176.714,51.563,277.155c2.82,29.677,9.4,68.887-12.891,90.237
			c-42.567-76.406-99.905-166.911-129.715-270.845"/>
	</g>
</g>
<g id="XMLID_67_" display="none">
	<g display="inline">
	</g>
	<g display="inline">
		<path fill="none" stroke="#FCB054" stroke-width="16" stroke-linecap="round" d="M787.47,297.46
			c3.357-11.549,6.311-23.365,8.863-35.182c9.802-44.716,17.994-65.664,66.872-58.815c42.433,5.908,46.596,49.146,40.15,93.997"/>
		<path fill="none" stroke="#9C6B54" stroke-width="16" stroke-linecap="round" d="M903.355,297.46
			c-4.566,31.287-14.234,63.246-20.008,84.06c-30.213,109.977-58.681,202.765-83.791,312.606
			c-12.085,53.041-32.765,117.764,0,167.582c48.878-20.545,122.733-49.415,141.801-96.682c7.654-18.665,3.625-41.762,9.668-61.232
			c21.082-66.872,78.555-132.401,151.469-106.351c17.188,56.936-14.502,112.796-29.005,164.36
			c-6.714,24.17-3.491,51.026-12.891,74.123c-17.859,44.715-68.081,69.021-103.127,109.573
			c-30.482,35.315-54.25,86.343-83.792,109.573c-24.17,19.067-71.303,35.719-109.573,61.231
			c-38.941,26.051-70.9,58.95-99.905,74.123c-29.407,15.577-57.741,16.785-70.9,38.674c-12.891,21.888-14.099,64.857-19.336,103.127
			c-34.645,258.895-69.021,523.83-109.573,767.014c-157.377,8.057-306.698-19.739-425.402-61.232
			c37.062-270.979,80.166-583.585,125.687-854.027c7.385-43.775,19.874-86.88,16.113-125.687
			c-1.746-19.605-11.011-38.941-12.891-58.01c-6.58-70.632,3.223-145.829,6.445-215.924c1.746-35.047-0.806-71.303,3.223-106.351
			c3.895-33.033,17.322-66.604,16.114-96.682c-1.611-42.702,14.502-115.616,3.894-163.957c-5.103-23.5-8.191-53.444-12.891-83.792
			c-8.057-53.578-13.697-124.479,44.447-130.118c71.303-6.849,54.384,104.202,68.349,152.678
			c16.919,58.681-6.042,153.752,25.11,199.407c34.376-29.811,55.458-116.287,55.727-195.379
			c0.269-59.89-1.611-146.77,12.891-170.806c17.859-29.273,64.187-31.153,87.014-9.668c20.276,46.461,8.191,107.156,14.905,169.731
			c6.714,61.366-32.765,132.938-9.4,180.339c21.216-20.008,20.276-53.578,25.782-80.568
			c19.202-91.714,45.387-172.014,77.346-244.929c22.559-35.047,88.491-47.669,109.573-3.223
			c-6.848,99.233-41.896,176.714-51.564,277.156c-2.82,29.676-9.399,68.886,12.891,90.236
			c42.701-76.405,99.905-166.911,129.715-270.979"/>
	</g>
</g>
<g id="XMLID_66_" display="none">
	<g display="inline">
	</g>
	<g display="inline">
		<path fill="none" stroke="#FCB054" stroke-width="16" stroke-linecap="round" d="M1354.872,289.064
			c-6.311-8.729-12.085-17.188-17.591-25.514c-25.11-38.27-59.889-73.049-93.997-42.029c-32.228,29.273-25.782,69.289-9.131,105.813
			"/>
		<path fill="none" stroke="#FCB054" stroke-width="16" stroke-linecap="round" d="M1354.872,289.064
			c-2.686-3.223-5.103-6.445-7.52-9.534"/>
		<path fill="none" stroke="#9C6B54" stroke-width="16" stroke-linecap="round" d="M1234.153,327.334
			c6.177,13.428,13.563,26.318,21.083,38.136c65.529,102.859,224.518,222.771,249.628,332.613
			c12.086,53.041,32.765,117.765,0,167.583c-48.878-20.545-122.732-49.415-141.8-96.683c-7.654-18.665-3.626-41.761-9.668-61.231
			c-21.082-66.872-78.554-132.401-151.469-106.351c-17.188,56.935,14.502,112.796,29.004,164.359
			c6.714,24.171,3.491,51.027,12.891,74.123c17.859,44.716,68.081,69.021,103.128,109.573
			c30.481,35.316,54.25,86.343,83.791,109.573c24.171,19.068,71.304,35.719,109.573,61.232c38.941,26.051,70.9,58.949,99.905,74.123
			c29.407,15.577,57.741,16.785,70.9,38.673c12.891,21.888,14.1,64.858,19.336,103.128
			c34.645,258.894,69.021,523.83,109.573,767.013c157.378,8.058,306.698-19.739,425.402-61.231
			c-37.062-270.979-80.165-583.586-125.687-854.027c-7.386-43.775-19.874-86.88-16.114-125.688
			c1.746-19.604,11.012-38.941,12.892-58.009c6.579-70.632-3.223-145.829-6.446-215.924c-1.745-35.048,0.807-71.304-3.223-106.351
			c-3.894-33.033-17.322-66.604-16.113-96.683c1.611-42.701-14.368-115.615-3.76-163.957c5.103-23.499,8.191-53.443,12.891-83.791
			c8.057-53.578,13.563-124.345-44.581-129.984c-71.303-6.848-54.25,104.068-68.215,152.544
			c-16.919,58.681,5.908,153.751-25.245,199.407c-34.376-29.811-55.458-116.288-55.727-195.379
			c-0.269-59.89,1.611-146.77-12.891-170.806c-17.859-29.273-64.187-31.153-87.014-9.668
			c-20.276,46.461-8.191,107.29-14.905,169.865c-6.715,61.366,19.336,132.535-4.028,179.937
			c-21.217-20.008-33.168-55.995-38.674-82.985c-19.202-91.714-47.267-170.94-51.026-242.243
			c-22.56-35.048-88.491-47.67-109.573-3.223c-12.757,94.533,15.576,174.028,25.245,274.47c2.819,29.677,22.29,68.618,0,89.969
			c-33.974-3.626-186.785-163.957-277.291-278.901c-0.537-0.537-0.94-1.074-1.074-1.478"/>
	</g>
</g>
<g id="XMLID_65_" display="none">
	<g display="inline">
	</g>
	<g display="inline">
		<path fill="none" stroke="#FCB054" stroke-width="16" stroke-linecap="round" d="M949.608,287.449
			c6.58-9.131,12.757-18.128,18.531-26.99c25.11-38.27,60.023-72.914,93.997-42.03c32.228,29.273,25.917,69.289,9.131,105.948"/>
		<path fill="none" stroke="#9C6B54" stroke-width="16" stroke-linecap="round" d="M1071.267,324.376
			c-6.043,13.294-13.563,26.319-21.082,38.136c-65.529,102.859-224.518,222.772-249.628,332.614
			c-12.085,53.041-32.765,117.764,0,167.582c48.878-20.545,122.733-49.415,141.801-96.682c7.654-18.665,3.625-41.762,9.668-61.232
			c21.082-66.872,78.555-132.401,151.469-106.351c17.188,56.936-14.502,112.796-29.005,164.36
			c-6.714,24.17-3.491,51.026-12.891,74.123c-17.859,44.715-68.081,69.021-103.127,109.573
			c-30.482,35.315-54.25,86.343-83.792,109.573c-24.17,19.067-71.303,35.719-109.573,61.231
			c-38.941,26.051-70.9,58.95-99.905,74.123c-29.407,15.577-57.741,16.785-70.9,38.674c-12.891,21.888-14.099,64.857-19.336,103.127
			c-34.645,258.895-69.021,523.83-109.573,767.014c-157.377,8.057-306.698-19.739-425.402-61.232
			c37.062-270.979,80.166-583.585,125.687-854.027c7.385-43.775,19.874-86.88,16.113-125.687
			c-1.746-19.605-11.011-38.941-12.891-58.01c-6.58-70.632,3.223-145.829,6.445-215.924c1.746-35.047-0.806-71.303,3.223-106.351
			c3.895-33.033,17.322-66.604,16.114-96.682c-1.611-42.702,14.502-115.616,3.894-163.957c-5.103-23.5-8.191-53.444-12.891-83.792
			c-8.057-53.578-13.697-124.479,44.447-130.118c71.303-6.849,54.384,104.202,68.349,152.678
			c16.919,58.681-6.042,153.752,25.11,199.407c34.376-29.811,55.458-116.287,55.727-195.379
			c0.269-59.89-1.611-146.77,12.891-170.806c17.859-29.273,64.187-31.153,87.014-9.668c20.276,46.461,8.191,107.156,14.905,169.731
			c6.714,61.366-19.336,132.669,4.028,180.07c21.216-20.008,33.167-55.995,38.673-82.985
			c19.202-91.714,47.401-171.074,51.027-242.243c22.559-35.047,88.491-47.669,109.573-3.223
			c12.757,94.399-15.577,174.028-25.245,274.471c-2.82,29.676-22.291,68.617,0,89.968C706.292,562.86,858.7,402.796,949.34,287.717
			c0.269-0.134,0.269-0.134,0.269-0.269c2.954-3.76,5.774-7.385,8.594-11.011"/>
	</g>
</g>
<g id="XMLID_64_" display="none">
	<g display="inline">
	</g>
	<g display="inline">
		<path fill="none" stroke="#FCB054" stroke-width="16" stroke-linecap="round" d="M2280.45,314.666
			c16.785-26.453,22.828-52.504-4.699-73.317c-30.751-23.23-61.367-8.191-88.491,16.114"/>
		<path fill="none" stroke="#9C6B54" stroke-width="16" stroke-linecap="round" d="M2187.259,257.462
			c-22.962,20.813-43.507,48.341-59.353,64.454c-37.464,38.002-62.172,143.01-112.662,165.568
			c-27.93,8.058-72.914-43.238-73.183-122.329c-0.269-59.89,1.611-146.77-12.891-170.806c-17.859-29.273-64.187-31.153-87.015-9.668
			c-20.276,46.461-2.148,118.301-8.862,180.876c-6.714,61.366,22.022,131.998-12.622,171.208
			c-21.217-20.008-20.276-53.578-25.782-80.568c-19.202-91.714-45.387-172.014-77.346-244.929
			c-22.56-35.047-88.491-47.67-109.573-3.223c6.848,99.233,41.896,176.714,51.563,277.156c2.82,29.676,9.399,68.886-12.891,90.236
			c-61.501-79.628-112.796-187.188-138.578-306.16c-9.803-44.716-18.8-87.417-67.678-80.568
			c-71.975,10.07-32.496,149.052-19.336,199.81c28.333,109.977,58.681,202.765,83.792,312.606
			c12.085,53.041,32.765,117.765,0,167.582c-48.879-20.545-122.733-49.415-141.801-96.682c-7.654-18.665-3.625-41.762-9.668-61.232
			c-21.082-66.872-78.554-132.401-151.469-106.351c-17.188,56.936,14.502,112.796,29.004,164.36
			c6.714,24.17,3.492,51.026,12.891,74.123c17.859,44.716,68.081,69.021,103.128,109.573c30.482,35.315,54.25,86.343,83.792,109.573
			c24.17,19.067,71.303,35.719,109.573,61.232c38.941,26.05,70.9,58.949,99.905,74.123c29.407,15.576,57.74,16.785,70.9,38.673
			c12.891,21.888,14.099,64.857,19.336,103.128c34.645,258.894,69.021,523.83,109.573,767.013
			c157.377,8.057,306.698-19.739,425.402-61.232c-37.062-270.979-80.166-583.585-125.688-854.027
			c-7.385-43.775-19.873-86.88-16.113-125.687c1.746-19.605,11.011-38.941,12.891-58.01c6.58-70.632-3.223-145.829-6.445-215.924
			c-1.745-35.047-5.237-71.169-3.223-106.351c2.417-43.507,0-96.95,4.432-119.51c8.19-41.896,33.302-90.773,62.978-130.387
			c15.442-20.948,23.768-43.507,43.642-66.872c14.233-16.919,31.019-35.45,42.566-53.578"/>
	</g>
</g>
<g id="XMLID_63_" display="none">
	<g display="inline">
	</g>
	<g display="inline">
		<path fill="none" stroke="#9C6B54" stroke-width="16" stroke-linecap="round" d="M1983.192,478.09
			c-15.577,77.614-17.859,91.445,10.071,81.374c31.152-45.655,32.093-129.983,37.867-195.244
			c4.431-50.355-3.357-156.975,68.215-152.678c33.973,2.015,52.638,76.54,44.581,130.118c-4.7,30.348-7.788,60.293-12.892,83.792
			c-10.607,48.341-4.162,117.361-5.773,160.063c-1.209,30.079-3.357,63.381,0.537,96.414c4.028,35.047,1.477,71.303,3.223,106.351
			c3.223,70.095,13.025,145.292,6.445,215.924c-1.88,19.067-11.146,38.404-12.891,58.009c-3.76,38.808,8.728,81.912,16.113,125.688
			c45.521,270.441,88.626,583.048,125.688,854.026c-118.705,41.493-268.025,69.289-425.402,61.232
			c-40.553-243.183-74.929-508.119-109.573-767.013c-5.237-38.271-6.445-81.24-19.337-103.128
			c-13.159-21.888-41.492-23.097-70.9-38.673c-29.005-15.174-60.963-48.072-99.905-74.123
			c-38.27-25.514-85.402-42.164-109.573-61.232c-29.542-23.23-53.31-74.257-83.792-109.573
			c-35.047-40.553-85.268-64.857-103.127-109.573c-9.4-23.097-6.177-49.952-12.891-74.123
			c-14.502-51.563-46.193-107.425-29.005-164.359c72.915-26.051,130.387,39.479,151.469,106.35
			c6.042,19.472,2.014,42.567,9.668,61.232c19.068,47.267,92.922,76.138,141.801,96.683c32.764-49.818,12.085-114.542,0-167.583
			c-25.111-109.842-55.459-202.63-83.792-312.605c-13.159-50.759-52.638-189.739,19.337-199.811
			c48.878-6.849,57.875,35.854,67.678,80.568c25.781,118.974,77.077,226.532,138.577,306.161
			c22.291-21.351,15.711-60.561,12.892-90.237c-9.668-100.442-44.716-177.922-51.564-277.155
			c21.082-44.447,87.015-31.825,109.573,3.223c31.959,72.914,58.145,153.214,77.347,244.928
			c5.505,26.991,4.565,60.562,25.781,80.569c23.634,1.745,42.97-12.892,49.685-74.123"/>
	</g>
</g>
<path display="none" fill="none" stroke="#FCB054" stroke-width="16" stroke-linecap="round" d="M1978.292,362.281
	c16.33,22.834,19,54.212,6.891,114.805"/>
<path display="none" fill="none" stroke="#FCB054" stroke-width="16" stroke-linecap="round" d="M1899.292,362.493
	c22.828-21.484,72-10,79-0.212"/>
<path display="none" fill="none" stroke="#FCB054" stroke-width="16" stroke-linecap="round" d="M1871.292,458.493
	c6.714-62.575,7.724-49.538,28-96"/>
<g id="XMLID_62_" display="none">
	<g display="inline">
	</g>
	<g display="inline">
		<path fill="none" stroke="#9C6B54" stroke-width="16" stroke-linecap="round" d="M2117.533,243.53
			c0.537-31.287-7.923-56.666-42.299-60.023c-38.404-3.76-56.532,25.11-66.872,60.023"/>
		<path fill="none" stroke="#9C6B54" stroke-width="16" stroke-linecap="round" d="M1671.317,365.458
			c-8.057,30.078-13.563,23.364,2.686,119.106c4.969,29.273-5.103,63.516-27.394,84.866
			c-61.5-79.629-112.796-187.188-138.577-306.161c-9.803-44.715-18.8-87.417-67.678-80.568
			c-71.975,10.071-32.496,149.052-19.337,199.811c28.333,109.976,58.681,202.764,83.792,312.605
			c12.085,53.041,32.764,117.765,0,167.583c-48.879-20.545-122.733-49.415-141.801-96.683c-7.654-18.665-3.625-41.761-9.668-61.231
			c-21.083-66.872-78.555-132.401-151.469-106.351c-17.188,56.935,14.502,112.796,29.005,164.359
			c6.714,24.171,3.491,51.027,12.891,74.123c17.859,44.716,68.08,69.021,103.127,109.573c30.482,35.316,54.25,86.343,83.792,109.573
			c24.17,19.068,71.303,35.719,109.573,61.232c38.942,26.051,70.9,58.949,99.905,74.123c29.408,15.576,57.741,16.785,70.9,38.673
			c12.892,21.888,14.1,64.857,19.337,103.128c34.645,258.894,69.021,523.83,109.573,767.013
			c157.377,8.057,306.697-19.739,425.402-61.232c-37.062-270.979-80.166-583.585-125.688-854.026
			c-7.386-43.775-19.873-86.88-16.113-125.688c1.745-19.604,11.011-38.941,12.891-58.009c6.58-70.632-3.223-145.829-6.445-215.924
			c-1.746-35.048,0.806-71.304-3.223-106.351c-3.895-33.033-17.322-66.604-16.114-96.683c1.611-42.701-8.325-114.676-3.76-163.957
			c2.417-25.916-2.282-76.54,2.417-106.888c3.223-21.888,7.923-46.327,8.191-67.946"/>
		<path fill="none" stroke="#9C6B54" stroke-width="16" stroke-linecap="round" d="M2008.362,243.53
			c-8.862,29.677-4.028,91.982-9.131,114.005c-11.951,51.967,13.697,153.349-17.456,199.004
			c-34.376-29.81-53.31-120.315-53.578-199.407c-0.269-59.889,1.611-146.769-12.892-170.805
			c-17.859-29.273-64.186-31.153-87.014-9.669c-20.276,46.462-4.297,110.245-11.011,172.82
			c-6.178,56.397,29.541,128.238,3.356,181.279c-7.385-35.316-5.773-48.207-11.279-75.197
			c-19.202-91.714,2.283-21.889-29.676-94.803"/>
	</g>
</g>
<path display="none" fill="none" stroke="#FCB054" stroke-width="16" stroke-linecap="round" d="M1783.292,365.493
	c-24-38-88-42-110-6"/>
<g id="XMLID_61_" display="none">
	<g display="inline">
	</g>
	<g display="inline">
		<path fill="none" stroke="#FCB054" stroke-width="16" stroke-linecap="round" d="M2207.5,437.612
			c16.785-26.453,22.828-52.504-4.699-73.317c-30.751-23.23-61.367-8.191-88.491,16.113"/>
		<path fill="none" stroke="#9C6B54" stroke-width="16" stroke-linecap="round" d="M2114.31,380.408
			c-22.963,20.813-35.719,59.486-51.027,76.138c-22.021,23.901-42.029,34.913-67.946,46.998
			c-27.93,8.057-53.98-60.292-54.249-139.384c-0.269-59.889,1.611-146.769-12.892-170.805
			c-17.859-29.273-64.186-31.153-87.014-9.669c-20.276,46.462-2.148,118.168-8.862,180.742
			c-6.714,61.366,22.021,131.998-12.623,171.343c-21.216-20.008-20.276-53.578-25.781-80.568
			c-19.202-91.714-45.388-172.014-77.346-244.929c-22.56-35.047-88.491-47.67-109.573-3.223
			c6.848,99.233,41.896,176.714,51.563,277.156c2.82,29.676,9.399,68.886-12.891,90.236
			c-61.501-79.629-112.797-187.188-138.578-306.16c-9.803-44.716-18.8-87.417-67.678-80.569
			c-71.975,10.071-32.496,149.052-19.336,199.811c28.333,109.976,58.68,202.765,83.792,312.606
			c12.085,53.041,32.765,117.764,0,167.582c-48.879-20.545-122.733-49.415-141.801-96.682c-7.654-18.666-3.626-41.762-9.668-61.232
			c-21.082-66.872-78.554-132.401-151.469-106.351c-17.188,56.935,14.502,112.796,29.004,164.359
			c6.714,24.171,3.491,51.027,12.891,74.123c17.859,44.716,68.081,69.021,103.128,109.574
			c30.481,35.315,54.25,86.342,83.791,109.573c24.17,19.067,71.303,35.719,109.574,61.231c38.941,26.051,70.9,58.949,99.904,74.123
			c29.408,15.577,57.741,16.785,70.9,38.673c12.892,21.888,14.1,64.858,19.337,103.128
			c34.645,258.894,69.021,523.83,109.573,767.013c157.377,8.058,306.697-19.739,425.402-61.231
			c-37.062-270.979-80.166-583.585-125.688-854.027c-7.385-43.775-19.873-86.88-16.113-125.687
			c1.745-19.605,11.011-38.941,12.891-58.01c6.58-70.632-3.223-145.829-6.445-215.924c-1.746-35.047-3.76-52.638-1.746-87.819
			c2.418-43.508,4.432-50.222,2.015-73.049c-3.223-28.736,6.445-67.946,13.965-78.018c15.577-20.948,20.143-42.567,40.017-65.932
			c14.233-16.92,12.487-29.811,24.17-47.938"/>
	</g>
</g>
<g id="XMLID_60_" display="none">
	<g display="inline">
	</g>
	<g display="inline">
		<path fill="none" stroke="#FCB054" stroke-width="16" stroke-linecap="round" d="M2371.4,458.279
			c17.215-26.176,23.683-52.124-3.501-73.385c-30.367-23.729-59.367-7.819-93.629,9.617"/>
		<path fill="none" stroke="#9C6B54" stroke-width="16" stroke-linecap="round" d="M1819.959,450.609
			c-0.737-4.175-1.369-6.603-1.488-7.545c-17.487-88.654-39.499-163.416-69.354-234.813c-21.984-35.411-87.701-49.109-109.507-5.013
			c5.227,99.332,39.003,177.375,47.028,277.961c2.334,29.719,8.272,69.031-14.364,90.015
			c-60.191-80.623-109.722-189.006-133.556-308.385c-9.071-44.869-17.369-87.712-66.353-81.663
			c-72.129,8.893-34.927,148.5-22.599,199.467c26.532,110.425,55.359,203.696,78.671,313.934
			c11.218,53.231,30.836,118.284-2.738,167.561c-48.536-21.341-121.909-51.414-140.202-98.986
			c-7.348-18.788-2.943-41.815-8.667-61.382c-19.986-67.208-76.38-133.668-149.71-108.813
			c-18.116,56.647,12.657,113.019,26.315,164.813c6.318,24.277,2.657,51.077,11.678,74.323
			c17.126,45.002,66.943,70.124,101.323,111.244c29.901,35.81,52.832,87.218,81.989,110.929
			c23.856,19.46,70.71,36.879,108.559,63.014c38.511,26.684,69.928,60.101,98.681,75.746c29.148,16.056,57.458,17.727,70.259,39.826
			c12.531,22.096,13.037,65.08,17.648,103.431c30.409,259.425,60.451,524.888,97.024,768.701
			c157.225,10.627,306.979-14.725,426.346-54.272c-32.628-271.549-70.618-584.817-111.714-855.967
			c-6.669-43.891-18.451-87.193-14.058-125.934c2.065-19.574,11.646-38.757,13.837-57.791c7.733-70.515,11.46-150.63,9.384-220.769
			c-1.149-36.548,4.527-46.931,7.463-86.903c3.128-43.462,5.384-50.006,3.206-72.872c-2.753-28.785,78.146-105.894,88.2-112.981
			c33.968-24.021,43.881-22.517,74.083-38.004c19.773-10.152,22.078-3.266,34.056-21.2"/>
		<path fill="none" stroke="#9C6B54" stroke-width="16" stroke-linecap="round" d="M1818.086,441.984c0,0,0.132,0.136,0.125,0.539
			c0.132,0.136,0.13,0.271,0.26,0.541"/>
		<path fill="none" stroke="#9C6B54" stroke-width="16" stroke-linecap="round" d="M2274.27,394.511
			c-31.032,16.951-30.964,20.981-71.006,46.918c-27.148,17.687-91.905,68.468-116.004,72.104
			c-39.978-2.668-78.025-74.065-94.012-155.98c-11.393-58.875-27.153-129.908-41.262-154.179
			c-17.378-29.561-63.668-32.197-86.844-11.089c-21.033,46.124,7.854,102.867,16.102,165.183
			c8.018,60.028,45.159,186.876-22.777,185.766c-27.317-37.781-39.421-94.25-40.256-100.71"/>
	</g>
</g>
<g id="XMLID_59_" display="none">
	<g display="inline">
	</g>
	<g display="inline">
		<path fill="none" stroke="#FCB054" stroke-width="16" stroke-linecap="round" d="M47.238,454.005
			c-9.002-49.543-0.763-63.108,4.537-67.492c10.336-8.495,54.022-39.023,78.945,31.479"/>
		<path fill="none" stroke="#9C6B54" stroke-width="16" stroke-linecap="round" d="M510.788,434.476
			c0.247-1.347,0.495-2.56,0.749-3.504c0.121-0.808,0.242-1.615,0.497-2.425c17.245-87.039,44.433-149.127,76.358-225.394
			c21.983-35.411,105.39-43.221,106.871,6.312c-28.134,86.411-45.91,140.958-53.935,241.545
			c-2.334,29.719,1.27,94.123,23.906,115.106c39.689-53.159,116.544-223.498,133.556-308.384
			c9.07-44.87,21.501-81.334,70.485-75.285c72.129,8.894,12.292,144.036-0.036,195.002
			c-26.532,110.425-36.857,201.782-60.169,312.021c-11.217,53.231-30.836,118.284,2.738,167.56
			c48.536-21.341,121.909-51.414,140.202-98.986c7.348-18.788,2.943-41.815,8.667-61.382
			c19.986-67.208,76.38-133.667,149.711-108.812c18.116,56.646-12.657,113.018-26.315,164.812
			c-6.318,24.277-2.657,51.077-11.678,74.324c-17.126,45.001-66.943,70.124-101.323,111.244
			c-29.9,35.809-52.831,87.218-81.989,110.928c-23.856,19.46-70.71,36.879-108.558,63.015c-38.511,26.684-69.928,60.1-98.681,75.746
			c-29.149,16.055-57.458,17.726-70.259,39.826c-12.532,22.096-13.038,65.079-17.648,103.43
			c-30.409,259.426-60.451,524.888-97.024,768.701c-157.225,10.628-306.979-14.725-426.346-54.272
			c32.628-271.548,70.619-584.816,111.714-855.967c6.669-43.891,18.451-87.192,14.058-125.934
			c-2.065-19.573-11.646-38.756-13.837-57.791c-8.374-76.816-10.728-138.689-27.179-208.524
			c-6.056-25.418,15.354-71.295-15.021-97.39c-28.469-24.515-89.263-219.061-93.012-243.038"/>
		<path fill="none" stroke="#9C6B54" stroke-width="16" stroke-linecap="round" d="M254.224,570.955
			c27.113-25.558,27.503-124.945,43.487-206.994c11.53-58.743,73.568-141.41,87.675-165.681
			c17.379-29.562,63.669-32.198,86.845-11.089c21.033,46.124-41.62,99.39-50,161.842c-8.019,59.894-11.127,190.215,56.81,189.104
			c32.441-44.715,37.578-124.841,32.992-109.59"/>
		<path fill="none" stroke="#9C6B54" stroke-width="16" stroke-linecap="round" d="M131.258,417.983
			c15.043,49.445,84.083,197.926,122.966,152.972"/>
	</g>
</g>
<g id="XMLID_58_" display="none">
	<g display="inline">
	</g>
	<g display="inline">
		<path fill="none" stroke="#9C6B54" stroke-width="16" stroke-linecap="round" d="M1353.404,707.816
			c6.043,19.471,2.014,42.567,9.668,61.232c19.068,47.267,92.922,76.138,141.801,96.683c32.765-49.818,12.085-114.542,0-167.583
			c-25.11-109.842-55.458-202.63-83.792-312.606c-13.16-50.758-52.638-189.738,19.336-199.81
			c48.878-6.849,57.875,35.853,67.678,80.568c25.782,118.973,77.077,226.532,138.578,306.161
			c22.29-21.352,15.711-60.562,12.891-90.237c-9.668-100.442-44.716-177.922-51.563-277.156
			c21.082-44.447,87.014-31.824,109.573,3.223c31.959,72.915,58.144,153.215,77.346,244.929c5.505,26.99,4.565,60.561,25.782,80.568
			c23.364-47.4-16.114-118.973-9.4-180.339c6.714-62.575-5.371-123.27,14.905-169.731c22.828-21.484,69.155-19.604,87.015,9.669
			c14.502,24.036,12.622,110.916,12.891,170.805c0.269,79.092,21.351,165.568,55.727,195.379
			c31.153-45.655,8.191-140.727,25.11-199.407c13.966-48.476-2.954-159.525,68.35-152.678
			c58.144,5.641,52.504,76.541,44.446,130.119c-4.699,30.347-7.788,60.292-12.891,83.791
			c-10.608,48.341,5.506,121.256,3.895,163.957c-1.209,30.079,12.219,63.649,16.113,96.683c4.028,35.047,1.478,71.303,3.223,106.351
			c3.223,70.094,13.025,145.292,6.445,215.923c-1.88,19.068-11.146,38.405-12.891,58.01c-3.76,38.808,8.729,81.911,16.113,125.688
			c45.521,270.441,88.626,583.048,125.688,854.026c-118.704,41.493-268.025,69.289-425.402,61.232
			c-40.553-243.183-74.929-508.119-109.573-767.013c-5.237-38.271-6.445-81.24-19.337-103.128
			c-13.159-21.888-41.492-23.097-70.899-38.673c-29.005-15.174-60.964-48.073-99.905-74.123
			c-38.271-25.514-85.403-42.164-109.574-61.232c-29.542-23.23-53.309-74.258-83.791-109.573
			c-35.047-40.553-85.269-64.857-103.128-109.573c-9.399-23.097-6.177-49.952-12.891-74.123"/>
	</g>
</g>
<path display="none" fill="none" stroke="#FCB054" stroke-width="16" stroke-linecap="round" d="M1233.94,767.493
	c-14.502-51.564-46.192-107.425-29.004-164.36c72.914-26.05,130.387,39.479,151.469,106.351"/>
<g id="XMLID_57_" display="none">
	<g display="inline">
	</g>
	<g display="inline">
		<path fill="none" stroke="#9C6B54" stroke-width="16" stroke-linecap="round" d="M947.506,703.788
			c-6.042,19.471-2.014,42.567-9.668,61.232c-19.068,47.267-92.922,76.137-141.801,96.682c-32.765-49.818-12.085-114.541,0-167.582
			c25.11-109.842,55.458-202.63,83.792-312.606c13.159-50.758,52.638-189.739-19.336-199.811
			c-48.878-6.848-57.875,35.854-67.678,80.569c-25.782,118.973-77.077,226.532-138.578,306.16
			c-22.291-21.351-15.711-60.561-12.891-90.236c9.668-100.442,44.716-177.923,51.564-277.156
			c-21.082-44.447-87.014-31.824-109.573,3.223c-31.959,72.915-58.144,153.215-77.346,244.929
			c-5.505,26.99-4.565,60.561-25.782,80.568c-23.365-47.401,16.113-118.973,9.399-180.339
			c-6.714-62.575,5.371-123.271-14.905-169.731c-22.828-21.485-69.155-19.605-87.014,9.668
			c-14.502,24.036-12.622,110.916-12.891,170.806c-0.269,79.092-21.351,165.568-55.727,195.379
			c-31.153-45.655-8.191-140.727-25.111-199.407c-13.965-48.476,2.954-159.526-68.349-152.678
			c-58.144,5.64-52.503,76.54-44.447,130.118c4.7,30.348,7.788,60.292,12.891,83.792c10.608,48.341-5.506,121.255-3.895,163.957
			c1.209,30.078-12.219,63.648-16.113,96.682c-4.029,35.048-1.477,71.304-3.223,106.351c-3.223,70.095-13.025,145.292-6.445,215.924
			c1.88,19.068,11.146,38.404,12.891,58.01c3.76,38.807-8.729,81.911-16.114,125.687
			c-45.521,270.442-88.625,583.048-125.687,854.027c118.704,41.493,268.025,69.289,425.402,61.232
			c40.553-243.184,74.929-508.119,109.574-767.014c5.237-38.27,6.445-81.239,19.336-103.127
			c13.159-21.889,41.493-23.097,70.9-38.674c29.004-15.173,60.963-48.072,99.905-74.123c38.27-25.513,85.403-42.164,109.573-61.231
			c29.542-23.23,53.31-74.258,83.792-109.573c35.047-40.553,85.269-64.858,103.128-109.573c9.399-23.097,6.177-49.953,12.891-74.123
			"/>
	</g>
</g>
<path display="none" fill="none" stroke="#FCB054" stroke-width="16" stroke-linecap="round" d="M1066.933,763.471
	c14.502-51.564,46.192-107.425,29.004-164.36c-72.914-26.05-130.387,39.479-151.469,106.351"/>
<g id="XMLID_56_" display="none">
	<g display="inline">
	</g>
	<g display="inline">
		<path fill="none" stroke="#9C6B54" stroke-width="16" stroke-linecap="round" d="M2669.258,187.571
			c-18.611,24.212-29.91,21.915-59.952,53.863c-34.439,36.858-34.002,37.992-78.049,80.023
			c-21.75,20.735-66.614,67.564-105.93,138.065c-17.158,30.772-56.09,77.981-64.014,147.98
			c-8.026,69.609-22.862,146.569-11.211,216.544c3.045,18.916-0.982,39.977,2.329,59.378c6.262,38.483,29.33,76.978,47.635,117.422
			c112.987,249.89,234.391,541.166,339.335,793.732c-104.197,70.395-241.491,135.353-395.72,167.698
			c-101.23-224.799-202.037-472.208-301.562-713.705c-14.824-35.669-26.951-76.91-44.998-94.786
			c-18.307-17.809-46.012-11.751-78.419-19.313c-31.915-7.275-71.208-30.936-115.505-46.193
			c-43.512-14.909-93.332-18.989-121.566-31.263c-34.489-14.928-70.484-58.206-108.965-84.58
			c-44.231-30.274-98.99-40.968-127.662-79.649c-14.979-19.936-18.712-46.726-31.369-68.385
			c-27.173-46.16-72.062-92.092-69.962-151.527c63.86-43.785,136.144,4.92,173.583,64.204
			c10.809,17.286,12.803,40.646,24.964,56.741c30.492,40.842,109.268,49.922,161.77,57.322
			c18.976-56.527-17.526-113.836-42.739-162.041c-52.293-99.806-105.301-181.786-160.745-280.9
			c-25.669-45.724-99.287-170.04-32.261-198.134c45.516-19.088,65.105,19.907,85.987,60.645
			c55.271,108.464,213.012,234.757,261.117,227.068c16.108-26.33-0.254-62.565-10.549-90.541
			c-34.964-94.655-64.661-144.594-96.591-238.799c9.05-48.354,76.021-52.964,106.771-24.829
			c49.498,62.353,72.403,116.027,114.36,199.811c12.207,24.693,59.441,47.926,85.059,61.861
			c18.883-15.813,42.835-9.77,38.85-121.762c-2.147-62.898-7.533-111.75,2.117-161.512c17.612-25.893,63.202-34.168,87.035-9.624
			c19.381,20.302,43.51,110.733,56.836,169.155c17.574,77.161,29.187,65.905,70.028,85.963
			c94.661-37.049,122.829-118.221,308.011-238.027"/>
	</g>
</g>
<path display="none" fill="none" stroke="#FCB054" stroke-width="16" stroke-linecap="round" d="M2675.292,103.493
	c34,38,8.396,68.713-8,90"/>
<path display="none" fill="none" stroke="#FCB054" stroke-width="16" stroke-linecap="round" d="M2571.292,131.493
	c68.683-42.927,58-52,106-28"/>
<g id="XMLID_55_" display="none">
	<g display="inline">
	</g>
	<g display="inline">
		<path fill="none" stroke="#FCB054" stroke-width="16" stroke-linecap="round" d="M256.312,435.463
			c4.566-43.91,18.128-69.424,54.115-72.378c30.75-2.551,33.705-0.806,57.875,26.453"/>
		<path fill="none" stroke="#9C6B54" stroke-width="16" stroke-linecap="round" d="M368.303,389.539
			c6.58,33.57-18.934,197.931,6.982,210.016c27.931,8.057,8.728-158.317,8.997-237.408c0.269-59.89-1.611-146.77,12.891-170.806
			c17.859-29.273,64.187-31.153,87.014-9.668c20.276,46.461,2.148,118.167,8.862,180.742c6.714,61.366,1.612,139.786,36.256,179.131
			c21.216-20.008,20.276-53.578,25.782-80.569c19.202-91.714,21.753-179.802,53.712-252.717
			c22.559-35.047,88.491-47.669,109.573-3.223c-6.848,99.233-28.333,183.831-38.001,284.273c-2.82,29.676-9.4,68.886,12.891,90.236
			c61.5-79.629,99.233-194.305,125.016-313.277c9.802-44.716,18.799-87.417,67.677-80.568
			c71.975,10.07,32.496,149.052,19.336,199.81c-28.333,109.977-58.681,202.765-83.791,312.606
			c-12.085,53.041-32.765,117.765,0,167.583c48.878-20.546,122.732-49.416,141.801-96.683c7.654-18.665,3.625-41.762,9.668-61.232
			c21.082-66.872,78.554-132.4,151.469-106.351c17.188,56.936-14.502,112.796-29.004,164.36
			c-6.714,24.17-3.491,51.026-12.891,74.123c-17.859,44.716-68.081,69.021-103.128,109.573
			c-30.481,35.315-54.25,86.343-83.791,109.573c-24.171,19.067-71.303,35.719-109.573,61.232
			c-38.941,26.05-70.9,58.949-99.905,74.123c-29.407,15.576-57.741,16.785-70.9,38.673c-12.891,21.888-14.1,64.857-19.336,103.128
			c-34.645,258.894-69.021,523.83-109.573,767.013c-157.377,8.057-306.698-19.739-425.402-61.232
			c37.062-270.979,80.166-583.585,125.687-854.027c7.385-43.775,19.874-86.879,16.113-125.687
			c-1.746-19.605,1.612-39.613-0.269-58.681c-6.58-70.632,9.131-95.205,5.774-165.3c-4.297-92.788,48.207-382.298,48.072-402.843"/>
	</g>
</g>
<g id="XMLID_54_" display="none">
	<g display="inline">
	</g>
	<g display="inline">
		<path fill="none" stroke="#9C6B54" stroke-width="16" stroke-linecap="round" d="M442.496,457.59
			c-22.559,69.021-24.036,70.497-58.546,80.972c-51.027-31.557-51.43-129.581-68.349-188.263
			c-13.965-48.475,2.955-159.392-68.349-152.543c-58.144,5.64-52.504,76.406-44.447,129.984c4.7,30.348,7.789,60.292,12.891,83.791
			c10.608,48.341-5.505,121.256-3.894,163.957c1.208,30.079-12.22,63.649-16.114,96.683c-4.029,35.047-1.477,71.303-3.223,106.351
			c-3.223,70.095-13.025,145.292-6.446,215.924c1.88,19.067,11.146,38.404,12.891,58.009c3.76,38.808-8.729,81.912-16.114,125.688
			c-45.521,270.441-88.625,583.048-125.687,854.026c118.705,41.493,268.025,69.289,425.402,61.232
			c40.553-243.183,74.929-508.119,109.573-767.013c5.237-38.271,6.445-81.24,19.336-103.128
			c13.159-21.888,41.493-23.097,70.9-38.673c29.004-15.174,60.963-48.072,99.905-74.123c38.27-25.514,85.403-42.164,109.573-61.232
			c29.542-23.23,53.31-74.257,83.792-109.573c35.047-40.553,85.269-64.857,103.128-109.573c9.399-23.096,6.177-49.952,12.891-74.123
			c14.502-51.563,46.193-107.425,29.005-164.359c-72.915-26.051-130.387,39.479-151.469,106.351
			c-6.043,19.471-2.015,42.566-9.668,61.231c-19.068,47.268-92.922,76.138-141.801,96.683c-32.765-49.818-12.085-114.542,0-167.583
			c25.111-109.842,55.458-202.63,83.792-312.605c13.16-50.759,52.638-189.739-19.336-199.811
			c-48.878-6.849-57.875,35.854-67.678,80.568c-25.782,118.974-21.082,232.44-82.583,312.069
			c-24.976-25.514-31.287-76.809-28.467-106.485c9.937-102.59,4.297-167.582,11.145-266.815
			c-21.082-44.447-73.452-31.825-96.011,3.223c-31.959,72.914-5.371,57.875-24.573,149.589
			c-5.506,26.99,1.477,176.982-17.994,184.502c-24.037-1.478-22.425-11.146-12.085-71.975"/>
	</g>
</g>
<path display="none" fill="none" stroke="#FCB054" stroke-width="16" stroke-linecap="round" d="M478.43,364.582
	c-24.842,13.074-15.931,34.557-34.499,91.496"/>
<path display="none" fill="none" stroke="#FCB054" stroke-width="16" stroke-linecap="round" d="M556.426,364.582
	c-32.999-19.499-49.498-14.999-77.996,0"/>
<path display="none" fill="none" stroke="#FCB054" stroke-width="16" stroke-linecap="round" d="M565.425,459.077
	c10.5-61.496,17.999-76.496-9-94.495"/>
<g id="XMLID_53_" display="none">
	<g display="inline">
	</g>
	<g display="inline">
		<path fill="none" stroke="#9C6B54" stroke-width="16" stroke-linecap="round" d="M181.271,246.956
			c-0.537-31.287,7.923-56.666,42.299-60.023c38.404-3.76,56.532,25.11,66.872,60.023"/>
		<path fill="none" stroke="#9C6B54" stroke-width="16" stroke-linecap="round" d="M757.47,384.997
			c8.057,29.944,17.725,42.567-38.136,122.464c-14.1,20.008-20.008,51.967-14.1,64.053c45.79-1.611,96.146-185.711,121.524-302.804
			c9.802-44.716,18.799-87.417,67.678-80.569c71.975,10.071,32.496,149.053,19.336,199.811
			c-28.333,109.977-94.668,200.75-119.779,310.592c-12.085,53.041-32.765,117.765,0,167.583
			c48.878-20.545,122.733-49.416,141.801-96.683c7.654-18.665,3.625-41.762,9.668-61.232
			c21.083-66.871,78.555-132.4,151.469-106.351c17.188,56.936-14.502,112.797-29.005,164.36
			c-6.714,24.171-3.491,51.026-12.891,74.123c-17.859,44.716-68.081,69.021-103.128,109.573
			c-30.482,35.316-54.25,86.343-83.792,109.573c-24.17,19.068-71.303,35.719-109.573,61.232
			c-38.941,26.051-70.9,58.949-99.905,74.123c-29.408,15.576-57.741,16.785-70.9,38.673c-12.891,21.888-14.1,64.857-19.336,103.128
			c-34.645,258.894-69.021,523.83-109.573,767.013c-157.377,8.057-306.698-19.739-425.402-61.232
			c37.062-270.979,80.166-583.585,125.687-854.026c7.385-43.776,19.874-86.88,16.114-125.688
			c-1.746-19.604-11.011-38.941-12.891-58.009c-6.58-70.632,3.223-145.829,6.445-215.924c1.746-35.048-0.806-71.304,3.223-106.351
			c3.894-33.033,17.322-66.604,16.114-96.683c-1.612-42.701,8.325-114.676,3.76-163.957c-2.417-25.916,2.283-76.54-2.417-106.888
			c-3.223-21.888-7.923-46.327-8.191-67.946"/>
		<path fill="none" stroke="#9C6B54" stroke-width="16" stroke-linecap="round" d="M290.441,246.956
			c8.863,29.676,4.028,91.982,9.131,114.005c11.951,51.967-13.697,153.349,17.457,199.004
			c34.376-29.811,53.31-120.315,53.578-199.407c0.269-59.889-1.611-146.769,12.891-170.805
			c17.859-29.274,64.187-31.154,87.014-9.669c20.276,46.462,4.297,110.379,11.011,172.954
			c6.177,56.398-6.312,127.567,19.739,180.474c11.146,21.351,44.044-17.322,82.045-76.003
			c22.022-33.973,33.973-48.072,65.798-77.212"/>
	</g>
</g>
<path display="none" fill="none" stroke="#FCB054" stroke-width="16" stroke-linecap="round" d="M645.552,384.982
	c24-38,89.739-31.489,111.739,4.511"/>
<g id="XMLID_52_" display="none">
	<g display="inline">
	</g>
	<g display="inline">
		<path fill="none" stroke="#9C6B54" stroke-width="16" stroke-linecap="round" d="M861.693,447.945
			c-77.883,57.069-118.436,78.018-205.316,116.153c-22.291-21.351-15.711-60.561-12.891-90.237
			c9.668-100.442,44.715-177.922,51.563-277.155c-21.082-44.447-87.014-31.825-109.573,3.223
			c-31.958,72.914-58.144,153.214-77.346,244.928c-5.505,26.991-4.565,60.562-25.782,80.569
			c-23.365-47.401,16.114-118.839,9.399-180.205c-6.714-62.575,5.371-123.404-14.905-169.865
			c-22.828-21.485-69.154-19.605-87.014,9.668c-14.502,24.036-12.623,110.916-12.891,170.806
			c-0.269,79.091-21.351,165.568-55.727,195.378c-31.153-45.655-8.191-140.726-25.111-199.407
			c-13.965-48.475,2.955-159.392-68.349-152.543c-58.144,5.64-52.504,76.406-44.447,129.984c4.7,30.348,7.789,60.292,12.891,83.791
			c10.608,48.341-5.505,121.256-3.894,163.957c1.208,30.079-12.22,63.649-16.114,96.683c-4.029,35.047-1.477,71.303-3.223,106.351
			c-3.223,70.095-13.025,145.292-6.446,215.924c1.88,19.067,11.146,38.404,12.891,58.009c3.76,38.808-8.729,81.912-16.114,125.688
			c-45.521,270.441-88.625,583.048-125.687,854.026c118.705,41.493,268.025,69.289,425.402,61.232
			c40.553-243.183,74.929-508.119,109.573-767.013c5.237-38.271,6.445-81.24,19.336-103.128
			c13.159-21.888,41.493-23.097,70.9-38.673c29.004-15.174,60.963-48.072,99.905-74.123c38.27-25.514,85.403-42.164,109.573-61.232
			c29.542-23.23,53.31-74.257,83.792-109.573c35.047-40.553,85.269-64.857,103.128-109.573c9.399-23.096,6.177-49.952,12.891-74.123
			c14.502-51.563,46.193-107.425,29.005-164.359c-72.915-26.051-130.387,39.479-151.469,106.351
			c-6.043,19.471-2.015,42.566-9.668,61.231c-19.068,47.268-92.922,76.138-141.801,96.683c-32.765-49.818-12.085-114.542,0-167.583
			c25.111-109.842,44.044-75.331,119.107-153.349"/>
	</g>
</g>
<path display="none" fill="none" stroke="#FCB054" stroke-width="16" stroke-linecap="round" d="M958.761,395.984
	c-40.957-25.484-63.535,28.488-100.495,55.497"/>
<path display="none" fill="none" stroke="#FCB054" stroke-width="16" stroke-linecap="round" d="M913.763,539.977
	c36.344-37.798,112.495-101.995,44.998-143.993"/>
<g id="XMLID_51_">
	<g>
	</g>
	<g>
		<path fill="none" stroke="#9C6B54" stroke-width="16" stroke-linecap="round" d="M1017.721,434.443
			c-79.897,47.133-220.624,99.905-307.503,138.041c-22.291-21.351-34.242-64.857-31.422-94.533
			c9.668-100.442,36.927-178.057,43.776-277.291c-21.082-44.447-78.286-29.272-100.845,5.774
			c-31.959,72.915-46.729,149.857-65.932,241.571c-5.506,26.991-14.771,60.964-35.987,80.972
			c-12.623-52.906,6.177-118.436-0.537-179.802c-6.714-62.575,5.371-123.404-14.905-169.866
			c-22.828-21.485-69.155-19.604-87.014,9.669c-14.502,24.036-12.623,110.916-12.891,170.805
			c-0.269,79.092-21.351,165.568-55.727,195.379c-31.153-45.655-8.191-140.727-25.11-199.407
			c-13.965-48.476,2.954-159.392-68.349-152.543c-58.144,5.64-52.504,76.406-44.447,129.984c4.7,30.347,7.789,60.292,12.891,83.791
			c10.608,48.341-5.505,121.256-3.894,163.957c1.208,30.079-12.22,63.649-16.114,96.683c-4.028,35.047-1.477,71.303-3.223,106.351
			c-3.223,70.095-13.025,145.292-6.445,215.924c1.88,19.067,11.145,38.404,12.891,58.009c3.76,38.808-8.728,81.911-16.114,125.688
			c-45.521,270.441-88.625,583.048-125.687,854.026c118.705,41.493,268.025,69.289,425.402,61.232
			c40.553-243.183,74.929-508.119,109.573-767.013c5.237-38.271,6.445-81.24,19.336-103.128c13.16-21.888,41.493-23.097,70.9-38.673
			c29.005-15.174,60.963-48.073,99.905-74.123c38.27-25.514,85.402-42.164,109.573-61.232c29.542-23.23,53.31-74.257,83.791-109.573
			c35.047-40.553,85.269-64.857,103.128-109.573c9.399-23.097,6.177-49.952,12.891-74.123
			c14.502-51.563,46.192-107.425,29.004-164.36c-72.915-26.05-130.387,39.479-151.469,106.351
			c-6.042,19.471-2.014,42.567-9.668,61.232c-19.068,47.267-64.32,72.243-113.199,92.788c-32.765-49.818-9.131-102.859,2.954-155.9
			c25.111-109.842,133.476-123.001,230.023-177.653"/>
	</g>
</g>
<path fill="none" stroke="#FCB054" stroke-width="16" stroke-linecap="round" d="M1136.241,420.976
	c-40.957-25.484-71.997-4.5-118.494,13.499"/>
<path fill="none" stroke="#FCB054" stroke-width="16" stroke-linecap="round" d="M1083.743,527.471
	c37.614-26.33,95.995-44.998,52.498-106.495"/>
<g id="XMLID_50_" display="none">
	<g display="inline">
	</g>
	<g display="inline">
		<path fill="none" stroke="#9C6B54" stroke-width="16" stroke-linecap="round" d="M1410.978,457.9
			c77.883,57.069,118.436,78.018,205.315,116.153c22.291-21.352,15.711-60.562,12.892-90.237
			c-9.669-100.442-44.716-177.922-51.564-277.156c21.082-44.446,87.015-31.824,109.573,3.224
			c31.959,72.914,58.144,153.214,77.346,244.928c5.506,26.991,4.565,60.561,25.782,80.569
			c23.365-47.401-16.113-118.839-9.399-180.205c6.714-62.575-5.371-123.404,14.905-169.866
			c22.827-21.484,69.154-19.604,87.014,9.669c14.502,24.036,12.622,110.916,12.891,170.805
			c0.269,79.092,21.351,165.568,55.727,195.379c31.153-45.655,8.191-140.727,25.111-199.407
			c13.965-48.476-2.954-159.392,68.349-152.543c58.144,5.64,52.504,76.406,44.447,129.984c-4.7,30.347-7.788,60.292-12.892,83.791
			c-10.607,48.341,5.506,121.256,3.895,163.957c-1.209,30.079,12.22,63.649,16.113,96.683c4.029,35.047,1.478,71.303,3.224,106.351
			c3.223,70.095,13.024,145.292,6.445,215.924c-1.88,19.067-11.146,38.404-12.892,58.009c-3.76,38.808,8.729,81.911,16.114,125.688
			c45.521,270.441,88.625,583.048,125.687,854.026c-118.704,41.493-268.024,69.289-425.401,61.232
			c-40.554-243.183-74.93-508.119-109.574-767.013c-5.236-38.271-6.445-81.24-19.336-103.128
			c-13.159-21.888-41.493-23.097-70.9-38.673c-29.005-15.174-60.964-48.073-99.905-74.123
			c-38.27-25.514-85.402-42.164-109.573-61.232c-29.542-23.23-53.31-74.257-83.791-109.573
			c-35.047-40.553-85.269-64.857-103.128-109.573c-9.399-23.097-6.177-49.952-12.891-74.123
			c-14.502-51.563-46.192-107.425-29.004-164.36c72.915-26.05,130.387,39.479,151.469,106.351
			c6.042,19.471,2.014,42.567,9.668,61.232c19.068,47.267,92.922,76.138,141.8,96.683c32.765-49.818,12.086-114.542,0-167.583
			c-25.11-109.842-44.044-75.332-119.107-153.349"/>
	</g>
</g>
<path display="none" fill="none" stroke="#FCB054" stroke-width="16" stroke-linecap="round" d="M1313.905,405.958
	c40.957-25.484,63.535,28.488,100.495,55.497"/>
<path display="none" fill="none" stroke="#FCB054" stroke-width="16" stroke-linecap="round" d="M1358.903,549.952
	c-36.345-37.798-112.495-101.995-44.998-143.993"/>
<g id="XMLID_49_" display="none">
	<g display="inline">
	</g>
	<g display="inline">
		<path fill="none" stroke="#9C6B54" stroke-width="16" stroke-linecap="round" d="M1617.702,425.452
			c31.556,71.975,19.202,98.965,52.504,129.044c16.517-35.987-10.608-96.011-20.948-126.09
			c-24.036-68.887-15.71-124.21-22.559-223.443c21.082-44.447,67.946-33.168,90.505,1.88
			c31.959,72.914,29.677,154.691,48.879,246.405c5.505,26.99,13.563,53.176,25.781,80.568c23.365-47.4-16.113-118.838-9.399-180.205
			c6.714-62.574-5.371-123.404,14.905-169.865c22.828-21.484,69.155-19.604,87.015,9.668
			c14.502,24.037,12.622,110.916,12.891,170.806c0.269,79.092,21.351,165.568,55.727,195.379
			c31.153-45.655,8.191-140.727,25.11-199.407c13.965-48.476-2.954-159.392,68.349-152.543
			c58.145,5.64,52.504,76.405,44.447,129.983c-4.699,30.348-7.788,60.293-12.891,83.792c-10.608,48.341,5.506,121.256,3.894,163.957
			c-1.208,30.079,12.22,63.649,16.114,96.682c4.028,35.048,1.477,71.304,3.223,106.351c3.223,70.095,13.025,145.292,6.445,215.924
			c-1.88,19.068-11.146,38.404-12.891,58.01c-3.76,38.808,8.729,81.911,16.113,125.687
			c45.521,270.442,88.626,583.049,125.688,854.027c-118.705,41.493-268.025,69.289-425.402,61.232
			c-40.553-243.183-74.929-508.119-109.573-767.013c-5.237-38.271-6.445-81.24-19.337-103.128
			c-13.159-21.888-41.492-23.097-70.9-38.673c-29.004-15.174-60.963-48.073-99.904-74.123
			c-38.271-25.514-85.403-42.165-109.574-61.232c-29.542-23.23-53.31-74.258-83.791-109.573
			c-35.047-40.553-85.269-64.857-103.128-109.573c-9.4-23.097-6.177-49.953-12.891-74.123
			c-14.502-51.564-46.192-107.425-29.004-164.36c72.915-26.051,130.387,39.479,151.469,106.351
			c6.042,19.471,2.014,42.567,9.668,61.232c19.068,47.267,92.922,76.137,141.801,96.683
			c41.224-84.866,52.101-120.719,54.652-171.746c6.042-117.093-13.429-121.524-37.465-193.499"/>
	</g>
</g>
<path display="none" fill="none" stroke="#FCB054" stroke-width="16" stroke-linecap="round" d="M1491.725,498.965
	c-28.499-166.491,87.796-159.626,121.494-80.995"/>
<g id="XMLID_48_" display="none">
	<g display="inline">
	</g>
	<g display="inline">
		<path fill="none" stroke="#9C6B54" stroke-width="16" stroke-linecap="round" d="M2076.751,140.512
			c3.356,33.301,15.711,124.478,16.382,148.514c1.611,46.462,20.68,246.54,19.068,289.242
			c-1.209,30.078,12.219,63.648,16.113,96.682c4.028,35.048,1.478,71.304,3.223,106.351c3.223,70.095,13.025,145.292,6.445,215.924
			c-1.88,19.068-11.146,38.404-12.891,58.01c-3.76,38.807,8.729,81.911,16.113,125.687
			c45.521,270.442,88.626,583.048,125.688,854.027c-118.704,41.492-268.025,69.289-425.402,61.232
			c-40.553-243.184-74.929-508.12-109.573-767.014c-5.237-38.27-6.445-81.239-19.336-103.128
			c-13.16-21.888-41.493-23.096-70.9-38.673c-29.005-15.174-60.964-48.072-99.905-74.123
			c-38.271-25.513-85.403-42.164-109.574-61.231c-29.542-23.231-53.309-74.258-83.791-109.573
			c-35.047-40.554-85.269-64.858-103.128-109.573c-9.399-23.097-6.177-49.953-12.891-74.123
			c-14.502-51.564-46.192-107.425-29.004-164.36c72.915-26.051,130.387,39.479,151.469,106.351
			c6.043,19.471,2.014,42.567,9.668,61.232c19.068,47.267,92.922,76.137,141.801,96.682c32.765-49.818,12.085-114.541,0-167.582
			c-25.11-109.842-55.458-202.63-83.792-312.606c-13.16-50.758-52.638-189.739,19.336-199.811
			c48.878-6.848,57.875,35.854,67.678,80.569c25.782,118.973,77.077,226.531,138.578,306.16
			c22.29-21.351,15.711-60.561,12.891-90.236c-9.668-100.442-44.716-177.923-51.563-277.156
			c21.082-44.447,87.014-31.824,109.573,3.223c31.959,72.915,58.144,153.215,77.346,244.929c5.505,26.99,4.565,60.561,25.782,80.568
			c23.364-47.401,17.591-114.676,11.548-177.788c-5.908-62.575-26.185-125.821-5.908-172.282
			c22.827-21.485,69.154-19.605,87.014,9.668c14.503,24.036,16.517,114.139,26.856,173.223
			c10.474,59.89,22.559,158.988,40.553,166.509c15.039-52.504-8.191-318.515-6.043-379.613"/>
	</g>
</g>
<path display="none" fill="none" stroke="#FCB054" stroke-width="16" stroke-linecap="round" d="M2017.661,23.008
	c58.363-2.484,52.979,63.095,58.498,116.994"/>
<path display="none" fill="none" stroke="#FCB054" stroke-width="16" stroke-linecap="round" d="M1975.663,146
	c2.162-59.602-28.498-119.992,41.998-122.992"/>
<g id="XMLID_47_" display="none">
	<g display="inline">
	</g>
	<g display="inline">
		<path fill="none" stroke="#9C6B54" stroke-width="16" stroke-linecap="round" d="M1896.71,131.495
			c13.025,59.487,69.961,386.46,87.954,393.98c15.039-52.503,8.862-252.045,11.011-313.009
			c10.475-22.425,71.975-52.503,98.966-2.954c3.356,33.437,0.269,54.921,1.074,78.957c1.477,46.462,20.545,246.54,18.934,289.241
			c-1.209,30.079,12.219,63.649,16.113,96.683c4.028,35.048,1.478,71.304,3.223,106.351c3.223,70.095,13.025,145.292,6.445,215.924
			c-1.88,19.068-11.145,38.404-12.891,58.01c-3.76,38.807,8.729,81.911,16.113,125.687
			c45.521,270.442,88.626,583.048,125.688,854.027c-118.704,41.492-268.024,69.289-425.402,61.231
			c-40.553-243.183-74.929-508.119-109.573-767.013c-5.237-38.27-6.445-81.24-19.336-103.128
			c-13.16-21.888-41.493-23.096-70.9-38.673c-29.005-15.174-60.964-48.072-99.905-74.123
			c-38.271-25.513-85.403-42.164-109.573-61.231c-29.542-23.231-53.31-74.258-83.792-109.574
			c-35.047-40.553-85.269-64.857-103.128-109.573c-9.399-23.096-6.177-49.952-12.891-74.123
			c-14.502-51.563-46.193-107.425-29.005-164.359c72.915-26.051,130.387,39.479,151.469,106.351
			c6.043,19.471,2.014,42.566,9.668,61.232c19.068,47.267,92.923,76.137,141.801,96.682c32.765-49.818,12.085-114.541,0-167.582
			c-25.11-109.843-55.458-202.631-83.792-312.606c-13.16-50.759-52.638-189.739,19.336-199.811
			c48.878-6.848,57.875,35.854,67.678,80.569c25.782,118.973,77.077,226.531,138.578,306.16
			c22.29-21.351,15.711-60.561,12.891-90.236c-9.668-100.442-44.716-177.923-51.563-277.156
			c21.082-44.447,87.014-31.824,109.573,3.223c31.959,72.914,58.144,153.215,77.346,244.929c5.506,26.99,4.565,60.561,25.782,80.568
			c23.364-47.401-17.591-327.243-32.899-388.609"/>
	</g>
</g>
<path display="none" fill="none" stroke="#FCB054" stroke-width="16" stroke-linecap="round" d="M1826.647,17.979
	c58.059,2.511,61.059,59.507,70.058,112.005"/>
<path display="none" fill="none" stroke="#FCB054" stroke-width="16" stroke-linecap="round" d="M1791.71,135.983
	c-10.5-56.997-35.56-115.005,34.937-118.005"/>
<g id="XMLID_46_" display="none">
	<g display="inline">
	</g>
	<g display="inline">
		<path fill="none" stroke="#9C6B54" stroke-width="16" stroke-linecap="round" d="M1695.662,78.92
			c19.605,61.501,81.509,272.457,100.711,364.17c5.505,26.99,4.565,60.561,25.782,80.568c23.364-47.401-16.114-118.839-9.4-180.205
			c6.714-62.575-5.236-123.404,15.04-169.865c22.827-21.485,69.154-19.605,87.014,9.668
			c14.503,24.036,12.622,110.916,12.891,170.806c0.269,79.092,21.217,165.568,55.593,195.379
			c31.153-45.655,8.325-140.727,25.245-199.407c13.965-48.476-3.089-159.392,68.215-152.543
			c58.144,5.64,52.638,76.405,44.581,129.983c-4.7,30.348-7.788,60.292-12.892,83.791c-10.607,48.342,5.372,121.256,3.761,163.957
			c-1.209,30.079,12.219,63.649,16.113,96.683c4.028,35.048,1.478,71.304,3.223,106.351c3.223,70.095,13.025,145.292,6.445,215.924
			c-1.88,19.068-11.146,38.404-12.891,58.01c-3.76,38.807,8.729,81.911,16.113,125.687
			c45.521,270.442,88.626,583.048,125.688,854.027c-118.704,41.492-268.025,69.289-425.402,61.232
			c-40.553-243.184-74.929-508.12-109.573-767.014c-5.237-38.27-6.445-81.239-19.336-103.128
			c-13.16-21.888-41.493-23.096-70.9-38.673c-29.005-15.174-60.964-48.072-99.905-74.123
			c-38.271-25.513-85.403-42.164-109.574-61.231c-29.542-23.231-53.309-74.258-83.791-109.573
			c-35.047-40.554-85.269-64.858-103.128-109.573c-9.399-23.097-6.177-49.953-12.891-74.124
			c-14.502-51.563-46.192-107.424-29.004-164.359c72.915-26.051,130.387,39.479,151.469,106.351
			c6.043,19.471,2.014,42.567,9.668,61.232c19.068,47.267,92.922,76.137,141.801,96.682c32.765-49.818,12.085-114.541,0-167.582
			c-25.11-109.842-55.458-202.63-83.792-312.606c-13.16-50.758-52.638-189.739,19.336-199.811
			c48.878-6.848,57.875,35.854,67.678,80.569c25.782,118.973,77.077,226.531,138.578,306.16
			c22.29-21.351,15.711-60.561,12.891-90.236c-8.729-90.103-65.798-286.556-85.269-385.655"/>
	</g>
</g>
<path display="none" fill="none" stroke="#FCB054" stroke-width="16" stroke-linecap="round" d="M1575.202,82
	c-6-107.994,79.496-97.494,119.994-7.499"/>
<g id="XMLID_45_" display="none">
	<g display="inline">
	</g>
	<g display="inline">
		<path fill="none" stroke="#9C6B54" stroke-width="16" stroke-linecap="round" d="M1482.712,128.478
			c42.03,120.047,52.504,207.061,102.054,317.977c13.428,22.56,74.929,121.524,68.752,29.14
			c-6.715-100.711-44.716-177.923-51.564-277.156c21.082-44.447,87.015-31.824,109.573,3.223
			c31.959,72.915,58.144,153.215,77.346,244.929c5.506,26.99,4.565,60.561,25.782,80.568
			c23.365-47.401-16.113-118.839-9.399-180.205c6.714-62.575-5.237-123.404,15.039-169.865
			c22.828-21.485,69.155-19.605,87.015,9.668c14.502,24.036,12.622,110.916,12.891,170.806
			c0.269,79.092,21.217,165.568,55.593,195.379c31.152-45.655,8.325-140.727,25.244-199.407
			c13.966-48.476-3.088-159.392,68.215-152.543c58.144,5.64,52.639,76.405,44.581,129.983c-4.699,30.348-7.788,60.292-12.891,83.791
			c-10.608,48.342,5.371,121.256,3.76,163.957c-1.208,30.079,12.22,63.649,16.114,96.683c4.028,35.048,1.477,71.304,3.223,106.351
			c3.223,70.095,13.024,145.292,6.445,215.924c-1.88,19.068-11.146,38.404-12.892,58.01c-3.76,38.807,8.729,81.911,16.114,125.687
			c45.521,270.442,88.625,583.048,125.687,854.027c-118.704,41.492-268.024,69.289-425.401,61.232
			c-40.554-243.184-74.929-508.12-109.573-767.014c-5.237-38.27-6.446-81.239-19.337-103.128
			c-13.159-21.888-41.493-23.096-70.9-38.673c-29.005-15.174-60.964-48.072-99.905-74.123
			c-38.27-25.513-85.402-42.164-109.573-61.231c-29.542-23.231-53.309-74.258-83.791-109.573
			c-35.047-40.554-85.269-64.858-103.128-109.573c-9.399-23.097-6.177-49.953-12.891-74.124
			c-14.502-51.563-46.192-107.424-29.004-164.359c72.915-26.051,130.387,39.479,151.469,106.351
			c6.043,19.471,2.014,42.567,9.668,61.232c19.068,47.267,92.922,76.137,141.8,96.682c32.765-49.818,12.086-114.541,0-167.582
			c-34.913-152.678-110.782-466.761-128.641-536.05"/>
	</g>
</g>
<path display="none" fill="none" stroke="#FCB054" stroke-width="16" stroke-linecap="round" d="M1396.221,28.5
	c58.586-14.646,70.372,57.287,85.495,100.494"/>
<path display="none" fill="none" stroke="#FCB054" stroke-width="16" stroke-linecap="round" d="M1369.222,155.993
	c-13.16-50.758-20.999-115.494,26.999-127.493"/>
<g id="XMLID_44_" display="none">
	<g display="inline">
	</g>
	<g display="inline">
		<path fill="none" stroke="#9C6B54" stroke-width="16" stroke-linecap="round" d="M1304.257,89.454
			c64.455,107.961,184.502,264.534,262.519,371.958c13.563,22.425,92.923,105.947,86.746,13.696
			c-6.849-100.711-44.716-177.922-51.564-277.156c21.083-44.447,87.015-31.824,109.573,3.223
			c31.959,72.915,58.145,153.215,77.347,244.929c5.505,26.99,4.565,60.561,25.781,80.568c23.365-47.4-16.113-118.838-9.399-180.205
			c6.714-62.574-5.237-123.404,15.039-169.865c22.828-21.485,69.155-19.605,87.015,9.668
			c14.502,24.037,12.622,110.917,12.891,170.806c0.269,79.092,21.217,165.568,55.593,195.379
			c31.153-45.655,8.325-140.727,25.244-199.407c13.966-48.476-3.088-159.392,68.215-152.543
			c58.144,5.64,52.639,76.405,44.582,129.983c-4.7,30.348-7.789,60.293-12.892,83.792c-10.608,48.341,5.371,121.256,3.76,163.957
			c-1.208,30.079,12.22,63.649,16.114,96.683c4.028,35.047,1.477,71.303,3.223,106.35c3.223,70.095,13.025,145.292,6.445,215.924
			c-1.88,19.068-11.146,38.404-12.891,58.01c-3.76,38.808,8.728,81.911,16.113,125.688
			c45.521,270.441,88.626,583.048,125.688,854.026c-118.705,41.493-268.025,69.289-425.402,61.232
			c-40.553-243.183-74.929-508.119-109.573-767.013c-5.237-38.271-6.445-81.24-19.337-103.128
			c-13.159-21.888-41.492-23.097-70.9-38.673c-29.004-15.174-60.963-48.073-99.904-74.123
			c-38.271-25.514-85.403-42.165-109.574-61.232c-29.542-23.23-53.31-74.258-83.792-109.573
			c-35.047-40.553-85.268-64.857-103.127-109.573c-9.4-23.097-6.177-49.953-12.891-74.123
			c-14.502-51.564-46.193-107.425-29.005-164.36c72.915-26.05,130.387,39.479,151.469,106.351
			c6.042,19.471,2.014,42.567,9.668,61.232c19.068,47.267,92.922,76.138,141.801,96.683c32.764-49.818,12.085-114.542,0-167.583
			c-34.913-152.678-275.545-495.094-297.164-555.521"/>
	</g>
</g>
<path display="none" fill="none" stroke="#FCB054" stroke-width="16" stroke-linecap="round" d="M1206.739,12.989
	c58.586-14.646,75.103,41.407,100.495,79.496"/>
<path display="none" fill="none" stroke="#FCB054" stroke-width="16" stroke-linecap="round" d="M1200.74,135.983
	c-31.499-58.497-50.998-86.996,4.5-121.494"/>
<g id="XMLID_43_" display="none">
	<g display="inline">
	</g>
	<g display="inline">
		<path fill="none" stroke="#9C6B54" stroke-width="16" stroke-linecap="round" d="M919.778,86.95
			c-64.455,107.962-133.475,264.534-211.492,371.958c-13.563,22.425-92.922,105.947-86.746,13.696
			c6.848-100.711,44.715-177.922,51.564-277.155c-21.082-44.447-87.014-31.825-109.573,3.223
			c-31.959,72.914-58.144,153.214-77.346,244.928c-5.505,26.991-4.565,60.562-25.782,80.569
			c-23.365-47.401,16.114-118.839,9.399-180.205c-6.714-62.575,5.237-123.404-15.039-169.866
			c-22.828-21.484-69.155-19.604-87.014,9.669c-14.502,24.036-12.623,110.916-12.891,170.805
			c-0.269,79.092-21.216,165.569-55.592,195.379c-31.153-45.655-8.325-140.727-25.245-199.407
			C260.056,302.069,277.11,191.152,205.807,198c-58.144,5.64-52.638,76.406-44.582,129.984c4.7,30.348,7.789,60.292,12.891,83.791
			c10.608,48.341-5.371,121.256-3.76,163.957c1.208,30.079-12.22,63.649-16.114,96.683c-4.028,35.047-1.477,71.303-3.223,106.351
			c-3.223,70.095-13.025,145.292-6.446,215.924c1.88,19.067,11.146,38.404,12.891,58.009c3.76,38.808-8.728,81.912-16.114,125.688
			c-45.521,270.441-88.625,583.048-125.687,854.026c118.705,41.493,268.025,69.289,425.402,61.232
			c40.553-243.183,74.929-508.119,109.573-767.013c5.237-38.271,6.445-81.24,19.336-103.128c13.16-21.888,41.493-23.097,70.9-38.673
			c29.005-15.174,60.963-48.072,99.905-74.123c38.27-25.514,85.402-42.164,109.573-61.232c29.542-23.23,53.31-74.257,83.791-109.573
			c35.047-40.553,85.269-64.857,103.128-109.573c9.399-23.096,6.177-49.952,12.891-74.123
			c14.502-51.563,46.192-107.425,29.004-164.359c-72.915-26.051-130.387,39.479-151.469,106.35
			c-6.042,19.472-2.014,42.567-9.668,61.232c-19.068,47.268-92.922,76.138-141.801,96.683c-32.764-49.818-12.085-114.542,0-167.583
			c34.913-152.677,224.518-495.094,246.003-555.52"/>
	</g>
</g>
<path display="none" fill="none" stroke="#FCB054" stroke-width="16" stroke-linecap="round" d="M1017.318,10.456
	c-58.586-14.646-75.102,41.407-100.494,79.496"/>
<path display="none" fill="none" stroke="#FCB054" stroke-width="16" stroke-linecap="round" d="M1023.318,133.449
	c31.498-58.497,50.998-86.996-4.5-121.494"/>
<g id="XMLID_42_" display="none">
	<g display="inline">
	</g>
	<g display="inline">
		<path fill="none" stroke="#9C6B54" stroke-width="16" stroke-linecap="round" d="M756.34,85.44
			c-19.068,104.605-37.733,244.123-76.137,392.504c-11.951,46.461-41.761,83.388-44.984,1.477
			c-3.894-100.845,38.539-178.728,45.387-277.962c-21.082-44.447-87.014-31.824-109.573,3.224
			c-31.959,72.914-46.998,150.126-66.2,241.84c-5.506,26.99-6.043,85.402-26.991,80.971c-2.148-61.231,6.177-116.152-0.537-177.519
			c-6.714-62.575,5.237-123.404-15.04-169.866c-22.828-21.485-69.155-19.604-87.014,9.669
			c-14.502,24.036-12.622,110.916-12.891,170.805c-0.269,79.092-21.217,165.568-55.592,195.379
			c-31.153-45.655-8.326-140.727-25.245-199.407c-13.965-48.476,3.088-159.392-68.215-152.543
			c-58.144,5.64-52.638,76.406-44.581,129.984c4.7,30.347,7.788,60.292,12.891,83.791c10.608,48.341-5.372,121.256-3.76,163.957
			c1.209,30.079-12.219,63.649-16.113,96.683c-4.029,35.047-1.478,71.303-3.223,106.351c-3.223,70.095-13.025,145.292-6.445,215.924
			c1.88,19.067,11.146,38.404,12.891,58.009c3.76,38.808-8.729,81.911-16.114,125.688
			c-45.521,270.441-88.625,583.048-125.687,854.026c118.704,41.493,268.025,69.289,425.402,61.232
			c40.553-243.183,74.929-508.119,109.574-767.013c5.237-38.271,6.445-81.24,19.336-103.128
			c13.159-21.888,41.493-23.097,70.9-38.673c29.004-15.174,60.963-48.073,99.905-74.123c38.27-25.514,85.403-42.164,109.573-61.232
			c29.542-23.23,53.31-74.257,83.792-109.573c35.047-40.553,85.268-64.857,103.127-109.573c9.4-23.097,6.177-49.952,12.891-74.123
			c14.502-51.563,46.193-107.425,29.005-164.36c-72.915-26.05-130.387,39.479-151.469,106.351
			c-6.042,19.471-2.014,42.567-9.668,61.232c-19.068,47.267-92.922,76.138-141.801,96.683c-32.765-49.818-12.085-114.542,0-167.583
			c34.913-152.678,53.578-502.613,75.063-563.04"/>
	</g>
</g>
<path display="none" fill="none" stroke="#FCB054" stroke-width="16" stroke-linecap="round" d="M819.757,9.989
	c-59.997,4.5-49.104,37.065-62.997,77.996"/>
<path display="none" fill="none" stroke="#FCB054" stroke-width="16" stroke-linecap="round" d="M859.862,131.916
	c19.893-63.429,17.287-108.859-38.604-121.926"/>
<g id="XMLID_41_" display="none">
	<g display="inline">
	</g>
	<g display="inline">
		<path fill="none" stroke="#9C6B54" stroke-width="16" stroke-linecap="round" d="M558.255,70.051
			c-19.471,61.366-36.122,277.291-55.324,369.004c-5.506,26.99-4.565,60.561-25.782,80.568
			c-23.365-47.401,16.114-118.839,9.4-180.205c-6.714-62.575,2.551-105.947-17.725-152.409
			c-22.828-21.484-69.155-19.604-87.014,9.669c-14.502,24.036-9.937,93.459-10.205,153.349
			c-0.269,79.091-21.217,165.568-55.593,195.379c-31.153-45.656-8.325-140.727-25.245-199.407
			c-13.965-48.476,3.088-159.392-68.215-152.544c-58.144,5.641-52.638,76.406-44.581,129.984c4.7,30.348,7.788,60.292,12.891,83.791
			c10.608,48.342-5.371,121.256-3.76,163.957c1.208,30.079-12.219,63.649-16.114,96.683c-4.028,35.048-1.477,71.304-3.223,106.351
			c-3.223,70.095-13.025,145.292-6.445,215.924c1.88,19.068,11.145,38.404,12.891,58.01c3.76,38.807-8.729,81.911-16.114,125.687
			c-45.521,270.442-88.625,583.048-125.687,854.027c118.704,41.492,268.025,69.289,425.402,61.231
			c40.553-243.183,74.929-508.119,109.573-767.013c5.237-38.27,6.446-81.24,19.336-103.128c13.16-21.888,41.493-23.096,70.9-38.673
			c29.005-15.174,60.964-48.072,99.905-74.123c38.27-25.513,85.403-42.164,109.573-61.231
			c29.542-23.231,53.31-74.258,83.792-109.574c35.047-40.553,85.268-64.857,103.127-109.573c9.4-23.096,6.177-49.952,12.891-74.123
			c14.502-51.563,46.193-107.425,29.005-164.359c-72.915-26.051-130.387,39.479-151.469,106.351
			c-6.042,19.471-2.014,42.566-9.668,61.231c-19.068,47.268-92.922,76.138-141.801,96.683c-32.765-49.818-12.085-114.542,0-167.582
			c25.11-109.843,55.458-202.631,83.791-312.606c13.16-50.759,52.638-189.739-19.336-199.811
			c-48.878-6.848-57.875,35.854-67.677,80.569c-25.782,118.973-77.078,226.531-138.578,306.16
			c-22.291-21.351-15.711-60.561-12.891-90.236c8.594-90.103,2.551-285.481,22.022-384.581"/>
	</g>
</g>
<path display="none" fill="none" stroke="#FCB054" stroke-width="16" stroke-linecap="round" d="M660.766,78.986
	c11.999-77.996-84.486-88.558-101.995-13.5"/>
<g id="XMLID_40_" display="none">
	<g display="inline">
	</g>
	<g display="inline">
		<path fill="none" stroke="#9C6B54" stroke-width="16" stroke-linecap="round" d="M339.571,123.445
			c-13.025,59.486-32.496,391.026-50.49,398.546c-15.04-52.504-8.594-232.038-10.742-293.001
			c-5.909-37.062-85.403-35.45-95.877,20.008c-3.357,33.436-3.625,11.951-4.431,35.987c-1.477,46.461-20.545,246.54-18.934,289.241
			c1.208,30.079-12.22,63.649-16.114,96.682c-4.028,35.048-1.477,71.304-3.223,106.351c-3.223,70.095-13.025,145.292-6.445,215.924
			c1.88,19.068,11.145,38.404,12.891,58.01c3.76,38.808-8.728,81.911-16.113,125.687
			c-45.521,270.442-88.625,583.049-125.687,854.027c118.704,41.493,268.024,69.289,425.402,61.232
			c40.553-243.183,74.929-508.119,109.573-767.013c5.237-38.271,6.446-81.24,19.336-103.128c13.16-21.888,41.493-23.097,70.9-38.673
			c29.005-15.174,60.964-48.073,99.905-74.123c38.27-25.514,85.402-42.165,109.573-61.232c29.542-23.23,53.31-74.258,83.791-109.573
			c35.047-40.553,85.269-64.857,103.128-109.573c9.4-23.097,6.177-49.953,12.891-74.123c14.502-51.564,46.192-107.425,29.004-164.36
			c-72.915-26.051-130.387,39.479-151.469,106.351c-6.042,19.471-2.014,42.567-9.668,61.232
			c-19.068,47.267-92.923,76.137-141.801,96.683c-32.765-49.818-12.085-114.542,0-167.583
			c25.11-109.842,55.458-202.63,83.791-312.606c13.16-50.758,69.155-186.784-2.82-196.855c-48.878-6.849-52.37,37.464-67.678,80.568
			C735.7,377.504,684.673,481.707,623.173,561.334c-22.291-21.351-15.711-60.561-12.891-90.236
			c9.668-100.442,64.187-167.448,71.035-266.682c-21.082-44.447-87.014-31.825-109.573,3.223
			c-31.959,72.914-77.614,142.74-96.816,234.454c-5.506,26.99-4.566,60.561-25.782,80.568
			c-23.365-47.4-13.697-335.836,1.611-397.203"/>
	</g>
</g>
<path display="none" fill="none" stroke="#FCB054" stroke-width="16" stroke-linecap="round" d="M409.586,9.944
	c-62.308-5.955-61.059,59.507-70.058,112.005"/>
<path display="none" fill="none" stroke="#FCB054" stroke-width="16" stroke-linecap="round" d="M450.774,123.983
	c4.5-59.997,7.5-110.994-41.188-114.039"/>
<g id="XMLID_39_" display="none">
	<g display="inline">
	</g>
	<g display="inline">
		<path fill="none" stroke="#9C6B54" stroke-width="16" stroke-linecap="round" d="M151.68,118.498
			c-3.357,33.436,13.428,140.458,12.623,164.495c-1.477,46.461,17.994,217.535,25.513,266.95
			c3.357,22.425-14.905,94.399-18.799,127.433c-4.028,35.047-1.477,71.303-3.223,106.351
			c-3.223,70.095-13.025,145.292-6.445,215.924c1.88,19.067,11.145,38.404,12.891,58.009c3.76,38.808-8.728,81.912-16.114,125.688
			c-45.521,270.441-88.625,583.048-125.687,854.027c118.705,41.492,268.025,69.289,425.402,61.231
			c40.553-243.183,74.929-508.119,109.573-767.013c5.237-38.271,6.445-81.24,19.336-103.128c13.16-21.888,41.493-23.096,70.9-38.673
			c29.005-15.174,60.963-48.072,99.905-74.123c38.27-25.514,85.402-42.164,109.573-61.232c29.542-23.23,53.31-74.257,83.791-109.573
			c35.047-40.553,85.269-64.857,103.128-109.573c9.399-23.096,6.177-49.952,12.891-74.123
			c14.502-51.563,46.192-107.425,29.004-164.359c-72.915-26.051-130.387,39.479-151.469,106.351
			c-6.042,19.471-2.014,42.566-9.668,61.231c-19.068,47.268-92.922,76.138-141.8,96.683c-32.765-49.818-12.085-114.542,0-167.583
			c25.11-109.842,55.458-202.63,83.791-312.605c13.16-50.759,52.638-189.739-19.336-199.811
			c-48.878-6.849-57.875,35.854-67.678,80.568c-25.782,118.974-77.077,226.532-138.578,306.161
			c-22.291-21.351-15.711-60.561-12.891-90.237c9.668-100.441,44.715-177.922,51.564-277.155
			c-21.082-44.447-87.014-31.825-109.573,3.223c-31.959,72.914-58.144,153.215-77.346,244.929
			c-5.505,26.99-4.565,60.561-25.782,80.568c-23.365-47.401-17.591-114.676-11.548-177.654
			c5.909-62.709,26.185-125.955,5.909-172.416c-22.828-21.485-69.155-19.605-87.014,9.668
			C370.021,212.763,367.872,303,357.532,361.95c-10.474,60.023-21.351,155.497-39.344,163.017
			c-15.04-52.504-63.783-339.462-65.932-400.426"/>
	</g>
</g>
<path display="none" fill="none" stroke="#FCB054" stroke-width="16" stroke-linecap="round" d="M194.276,26.488
	c-38.998,1.5-43.498,38.998-41.999,91.496"/>
<path display="none" fill="none" stroke="#FCB054" stroke-width="16" stroke-linecap="round" d="M251.639,127.466
	c-9.366-61.979-9.366-102.478-57.363-100.978"/>
</svg>
