<?xml version="1.0" encoding="UTF-8" standalone="no"?>
<!DOCTYPE svg PUBLIC "-//W3C//DTD SVG 1.1//EN" "http://www.w3.org/Graphics/SVG/1.1/DTD/svg11.dtd">
<svg enable-background="new -140.708 -446.507 3146 1214" x="0px" xmlns:xlink="http://www.w3.org/1999/xlink" y="0px" viewBox="-140.708 -446.507 3146 1214" version="1.0" height="1214px" xml:space="preserve" xmlns:a="http://ns.adobe.com/AdobeSVGViewerExtensions/3.0/" width="3146px" xmlns="http://www.w3.org/2000/svg">
  <defs></defs>
  <g id="XMLID_57_">
    <g></g>
    <g>
      <path stroke-linecap="round" d="M947.506,703.788
			c-6.042,19.471-2.014,42.567-9.668,61.232c-19.068,47.267-92.922,76.137-141.801,96.682c-32.765-49.818-12.085-114.541,0-167.582
			c25.11-109.842,55.458-202.63,83.792-312.606c13.159-50.758,52.638-189.739-19.336-199.811
			c-48.878-6.848-57.875,35.854-67.678,80.569c-25.782,118.973-77.077,226.532-138.578,306.16
			c-22.291-21.351-15.711-60.561-12.891-90.236c9.668-100.442,44.716-177.923,51.564-277.156
			c-21.082-44.447-87.014-31.824-109.573,3.223c-31.959,72.915-58.144,153.215-77.346,244.929
			c-5.505,26.99-4.565,60.561-25.782,80.568c-23.365-47.401,16.113-118.973,9.399-180.339
			c-6.714-62.575,5.371-123.271-14.905-169.731c-22.828-21.485-69.155-19.605-87.014,9.668
			c-14.502,24.036-12.622,110.916-12.891,170.806c-0.269,79.092-21.351,165.568-55.727,195.379
			c-31.153-45.655-8.191-140.727-25.111-199.407c-13.965-48.476,2.954-159.526-68.349-152.678
			c-58.144,5.64-52.503,76.54-44.447,130.118c4.7,30.348,7.788,60.292,12.891,83.792c10.608,48.341-5.506,121.255-3.895,163.957
			c1.209,30.078-12.219,63.648-16.113,96.682c-4.029,35.048-1.477,71.304-3.223,106.351c-3.223,70.095-13.025,145.292-6.445,215.924
			c1.88,19.068,11.146,38.404,12.891,58.01c3.76,38.807-8.729,81.911-16.114,125.687
			c-45.521,270.442-88.625,583.048-125.687,854.027c118.704,41.493,268.025,69.289,425.402,61.232
			c40.553-243.184,74.929-508.119,109.574-767.014c5.237-38.27,6.445-81.239,19.336-103.127
			c13.159-21.889,41.493-23.097,70.9-38.674c29.004-15.173,60.963-48.072,99.905-74.123c38.27-25.513,85.403-42.164,109.573-61.231
			c29.542-23.23,53.31-74.258,83.792-109.573c35.047-40.553,85.269-64.858,103.128-109.573c9.399-23.097,6.177-49.953,12.891-74.123
			" stroke-width="16" stroke="#9C6B54" fill="none" />
    </g>
  </g>
  <path stroke-linecap="round" d="M1066.933,763.471
	c14.502-51.564,46.192-107.425,29.004-164.36c-72.914-26.05-130.387,39.479-151.469,106.351" stroke-width="16" stroke="#FCB054" fill="none" />
</svg>
