<?xml version="1.0" encoding="UTF-8" standalone="no"?>
<!DOCTYPE svg PUBLIC "-//W3C//DTD SVG 1.1//EN" "http://www.w3.org/Graphics/SVG/1.1/DTD/svg11.dtd">
<svg enable-background="new 322.969 -233.465 3146 1214" x="0px" xmlns:xlink="http://www.w3.org/1999/xlink" y="0px" viewBox="322.969 -233.465 3146 1214" version="1.1" height="1214px" xml:space="preserve" xmlns:a="http://ns.adobe.com/AdobeSVGViewerExtensions/3.0/" width="3146px" xmlns="http://www.w3.org/2000/svg">
  <defs></defs>
  <g id="XMLID_32_">
    <g></g>
    <g>
      <path stroke-linecap="round" d="M403.11,134.18
			c-8.193,32.59-7.979,92.885-12.278,116.548c-8.231,45.75-13.895,217.835-13.655,267.819c0.054,22.675-28.5,91.221-37.166,123.334
			c-9.092,34.086-27.56,93.123-34.393,127.542c-13.401,68.877-21.021,104.944-7.316,189.758c1.924,11.82,5.431,39.619,4.301,59.269
			c-1.935,38.941-29.949,66.033-49.068,122.124c-88.328,259.672-172.633,563.912-248.782,826.6
			c111.392,58.346,255.069,107.603,411.94,122.562c75.553-234.679,148.165-491.778,220.162-742.861
			c10.757-37.099,18.214-79.434,34.157-99.21c16.208-19.737,44.415-16.804,75.778-27.93c30.906-10.786,67.317-38.677,109.639-58.775
			c41.579-19.665,90.635-29.271,117.326-44.613c32.611-18.678,63.561-65.697,98.863-96.195
			c40.582-35.013,42.781-51.791,66.965-93.428c12.665-21.479,13.39-48.519,23.554-71.453c21.861-48.9,61.352-99.548,52.643-158.38
			c-85.069-32.481-153.257,58.188-165.348,83.146c-8.815,18.383-8.195,41.819-18.487,59.17
			c-25.751,43.984-47.935,48.997-99.285,62.2c-25.156-54.061,0.725-84.181,20.41-134.895
			c40.847-105.011,85.931-232.336,150.621-300.175c36.265-37.957,77.593-109.372,5.801-120.488
			c-35.697-5.529-58.028,16.157-92.788,48.499c-41.985,39.015-111.188,197.398-183.635,267.216
			c-18.942-24.37,5.021-1.839,10.295-31.194c26.383-145.96,76.283-192.631,97.517-289.808
			c-14.381-47.044-81.448-44.164-108.873-12.777c-31.271,33.534-16.361,76.992-79.287,171.557
			c-15.33,22.988-38.291,84.893-62.196,101.596c-21.835-53.571,35.364-136.9,50.218-203.663
			c13.654-61.375,8.888-65.877,8.911-101.978c-19.454-24.582-51.023-36.018-85.176-7.794
			c-21.631,17.852-15.671,27.145-43.791,91.819c-19.085,43.88-87.005,270.046-96.04,53.991
			c-9.141-68.803-28.781-225.749-22.912-278.498" stroke-width="8" stroke="#9C6B54" fill="none" />
    </g>
  </g>
  <path stroke-linecap="round" d="M458.643,49.323
	c-38.801-4.198-48.716,32.244-54.882,84.4" stroke-width="8" stroke="#FCB054" fill="none" />
  <path stroke-linecap="round" d="M500.681,157.582
	c-0.235-62.683,5.666-102.749-42.038-108.258" stroke-width="8" stroke="#FCB054" fill="none" />
</svg>
