<?xml version="1.0" encoding="UTF-8" standalone="no"?>
<!DOCTYPE svg PUBLIC "-//W3C//DTD SVG 1.1//EN" "http://www.w3.org/Graphics/SVG/1.1/DTD/svg11.dtd">
<svg enable-background="new -140.708 -446.507 3146 1214" x="0px" xmlns:xlink="http://www.w3.org/1999/xlink" y="0px" viewBox="-140.708 -446.507 3146 1214" version="1.0" height="1214px" xml:space="preserve" xmlns:a="http://ns.adobe.com/AdobeSVGViewerExtensions/3.0/" width="3146px" xmlns="http://www.w3.org/2000/svg">
  <defs></defs>
  <g id="XMLID_47_">
    <g></g>
    <g>
      <path stroke-linecap="round" d="M1896.71,131.495
			c13.025,59.487,69.961,386.46,87.954,393.98c15.039-52.503,8.862-252.045,11.011-313.009
			c10.475-22.425,71.975-52.503,98.966-2.954c3.356,33.437,0.269,54.921,1.074,78.957c1.477,46.462,20.545,246.54,18.934,289.241
			c-1.209,30.079,12.219,63.649,16.113,96.683c4.028,35.048,1.478,71.304,3.223,106.351c3.223,70.095,13.025,145.292,6.445,215.924
			c-1.88,19.068-11.145,38.404-12.891,58.01c-3.76,38.807,8.729,81.911,16.113,125.687
			c45.521,270.442,88.626,583.048,125.688,854.027c-118.704,41.492-268.024,69.289-425.402,61.231
			c-40.553-243.183-74.929-508.119-109.573-767.013c-5.237-38.27-6.445-81.24-19.336-103.128
			c-13.16-21.888-41.493-23.096-70.9-38.673c-29.005-15.174-60.964-48.072-99.905-74.123
			c-38.271-25.513-85.403-42.164-109.573-61.231c-29.542-23.231-53.31-74.258-83.792-109.574
			c-35.047-40.553-85.269-64.857-103.128-109.573c-9.399-23.096-6.177-49.952-12.891-74.123
			c-14.502-51.563-46.193-107.425-29.005-164.359c72.915-26.051,130.387,39.479,151.469,106.351
			c6.043,19.471,2.014,42.566,9.668,61.232c19.068,47.267,92.923,76.137,141.801,96.682c32.765-49.818,12.085-114.541,0-167.582
			c-25.11-109.843-55.458-202.631-83.792-312.606c-13.16-50.759-52.638-189.739,19.336-199.811
			c48.878-6.848,57.875,35.854,67.678,80.569c25.782,118.973,77.077,226.531,138.578,306.16
			c22.29-21.351,15.711-60.561,12.891-90.236c-9.668-100.442-44.716-177.923-51.563-277.156
			c21.082-44.447,87.014-31.824,109.573,3.223c31.959,72.914,58.144,153.215,77.346,244.929c5.506,26.99,4.565,60.561,25.782,80.568
			c23.364-47.401-17.591-327.243-32.899-388.609" stroke-width="16" stroke="#9C6B54" fill="none" />
    </g>
  </g>
  <path stroke-linecap="round" d="M1826.647,17.979
	c58.059,2.511,61.059,59.507,70.058,112.005" stroke-width="16" stroke="#FCB054" fill="none" />
  <path stroke-linecap="round" d="M1791.71,135.983
	c-10.5-56.997-35.56-115.005,34.937-118.005" stroke-width="16" stroke="#FCB054" fill="none" />
</svg>
