<?xml version="1.0" encoding="UTF-8" standalone="no"?>
<!DOCTYPE svg PUBLIC "-//W3C//DTD SVG 1.1//EN" "http://www.w3.org/Graphics/SVG/1.1/DTD/svg11.dtd">
<svg enable-background="new -140.708 -446.507 3146 1214" x="0px" xmlns:xlink="http://www.w3.org/1999/xlink" y="0px" viewBox="-140.708 -446.507 3146 1214" version="1.0" height="1214px" xml:space="preserve" xmlns:a="http://ns.adobe.com/AdobeSVGViewerExtensions/3.0/" width="3146px" xmlns="http://www.w3.org/2000/svg">
  <defs></defs>
  <g id="XMLID_58_">
    <g></g>
    <g>
      <path stroke-linecap="round" d="M1353.404,707.816
			c6.043,19.471,2.014,42.567,9.668,61.232c19.068,47.267,92.922,76.138,141.801,96.683c32.765-49.818,12.085-114.542,0-167.583
			c-25.11-109.842-55.458-202.63-83.792-312.606c-13.16-50.758-52.638-189.738,19.336-199.81
			c48.878-6.849,57.875,35.853,67.678,80.568c25.782,118.973,77.077,226.532,138.578,306.161
			c22.29-21.352,15.711-60.562,12.891-90.237c-9.668-100.442-44.716-177.922-51.563-277.156
			c21.082-44.447,87.014-31.824,109.573,3.223c31.959,72.915,58.144,153.215,77.346,244.929c5.505,26.99,4.565,60.561,25.782,80.568
			c23.364-47.4-16.114-118.973-9.4-180.339c6.714-62.575-5.371-123.27,14.905-169.731c22.828-21.484,69.155-19.604,87.015,9.669
			c14.502,24.036,12.622,110.916,12.891,170.805c0.269,79.092,21.351,165.568,55.727,195.379
			c31.153-45.655,8.191-140.727,25.11-199.407c13.966-48.476-2.954-159.525,68.35-152.678
			c58.144,5.641,52.504,76.541,44.446,130.119c-4.699,30.347-7.788,60.292-12.891,83.791
			c-10.608,48.341,5.506,121.256,3.895,163.957c-1.209,30.079,12.219,63.649,16.113,96.683c4.028,35.047,1.478,71.303,3.223,106.351
			c3.223,70.094,13.025,145.292,6.445,215.923c-1.88,19.068-11.146,38.405-12.891,58.01c-3.76,38.808,8.729,81.911,16.113,125.688
			c45.521,270.441,88.626,583.048,125.688,854.026c-118.704,41.493-268.025,69.289-425.402,61.232
			c-40.553-243.183-74.929-508.119-109.573-767.013c-5.237-38.271-6.445-81.24-19.337-103.128
			c-13.159-21.888-41.492-23.097-70.899-38.673c-29.005-15.174-60.964-48.073-99.905-74.123
			c-38.271-25.514-85.403-42.164-109.574-61.232c-29.542-23.23-53.309-74.258-83.791-109.573
			c-35.047-40.553-85.269-64.857-103.128-109.573c-9.399-23.097-6.177-49.952-12.891-74.123" stroke-width="16" stroke="#9C6B54" fill="none" />
    </g>
  </g>
  <path stroke-linecap="round" d="M1233.94,767.493
	c-14.502-51.564-46.192-107.425-29.004-164.36c72.914-26.05,130.387,39.479,151.469,106.351" stroke-width="16" stroke="#FCB054" fill="none" />
</svg>
