<?xml version="1.0" encoding="UTF-8" standalone="no"?>
<!DOCTYPE svg PUBLIC "-//W3C//DTD SVG 1.1//EN" "http://www.w3.org/Graphics/SVG/1.1/DTD/svg11.dtd">
<svg enable-background="new -140.708 -446.507 3146 1214" x="0px" xmlns:xlink="http://www.w3.org/1999/xlink" y="0px" viewBox="-140.708 -446.507 3146 1214" version="1.0" height="1214px" xml:space="preserve" xmlns:a="http://ns.adobe.com/AdobeSVGViewerExtensions/3.0/" width="3146px" xmlns="http://www.w3.org/2000/svg">
  <defs></defs>
  <g id="XMLID_69_">
    <g></g>
    <g>
      <path stroke-linecap="round" d="M686.265,278.512
			c-12.891,69.826-39.344,117.898-47.401,200.616c-2.82,29.676-9.399,68.886,12.891,90.236
			c61.5-79.629,112.796-187.188,138.578-306.16c9.802-44.716,18.799-87.417,67.677-80.569
			c71.975,10.071,32.496,149.053,19.336,199.811c-28.333,109.977-58.681,202.765-83.791,312.606
			c-12.085,53.041-32.765,117.764,0,167.582c48.878-20.545,122.733-49.415,141.801-96.682c7.654-18.665,3.625-41.762,9.668-61.232
			c21.082-66.872,78.555-132.401,151.469-106.351c17.188,56.936-14.502,112.796-29.005,164.36
			c-6.714,24.17-3.491,51.026-12.891,74.123c-17.859,44.715-68.081,69.021-103.127,109.573
			c-30.482,35.315-54.25,86.343-83.792,109.573c-24.17,19.067-71.303,35.719-109.573,61.231
			c-38.941,26.051-70.9,58.949-99.905,74.123c-29.407,15.577-57.741,16.785-70.9,38.673
			c-12.891,21.889-14.099,64.858-19.336,103.128c-34.645,258.895-69.021,523.83-109.573,767.014
			c-157.377,8.057-306.698-19.739-425.402-61.232c37.062-270.979,80.166-583.585,125.687-854.027
			c7.385-43.775,19.874-86.88,16.113-125.687c-1.746-19.605-11.011-38.941-12.891-58.01c-6.58-70.632,3.223-145.829,6.445-215.924
			c1.746-35.047-0.806-71.303,3.223-106.351c3.895-33.033,17.322-66.604,16.114-96.682c-1.611-42.702,14.502-115.616,3.894-163.958
			c-5.103-23.499-8.191-53.443-12.891-83.791c-8.057-53.578-13.697-124.344,44.447-129.983
			c71.303-6.849,54.384,104.067,68.349,152.543c16.919,58.681-6.042,153.752,25.11,199.407
			c34.376-29.811,55.458-116.287,55.727-195.379c0.269-59.89-1.611-146.77,12.891-170.806c17.859-29.273,64.187-31.153,87.014-9.668
			c20.276,46.461,8.191,107.29,14.905,169.865c6.714,61.366-32.765,132.804-9.4,180.205c21.216-20.008,20.276-53.578,25.782-80.568
			c15.04-71.706,35.584-119.376,59.083-171.611" stroke-width="16" stroke="#9C6B54" fill="none" />
      <path stroke-linecap="round" d="M562.592,278.512
			c6.58-14.502,13.294-29.407,20.276-45.253c22.559-35.047,88.491-47.669,109.573-3.223c-1.208,17.457-3.357,33.437-6.177,48.476" stroke-width="16" stroke="#FCB054" fill="none" />
    </g>
  </g>
</svg>
