<?xml version="1.0" encoding="UTF-8" standalone="no"?>
<!DOCTYPE svg PUBLIC "-//W3C//DTD SVG 1.1//EN" "http://www.w3.org/Graphics/SVG/1.1/DTD/svg11.dtd">
<svg enable-background="new 322.969 -233.465 3146 1214" x="0px" xmlns:xlink="http://www.w3.org/1999/xlink" y="0px" viewBox="322.969 -233.465 3146 1214" version="1.1" height="1214px" xml:space="preserve" xmlns:a="http://ns.adobe.com/AdobeSVGViewerExtensions/3.0/" width="3146px" xmlns="http://www.w3.org/2000/svg">
  <defs></defs>
  <g id="XMLID_50_">
    <g></g>
    <g>
      <path stroke-linecap="round" d="M1193.277,135.935
			c-6.095,106.086-11.599,234.47-37.614,386.164c-8.133,47.232-22.522,90.5-43.573,11.274
			c-25.845-97.555-1.464-182.83-16.475-281.16c-30.289-38.763-91.866-12.033-106.218,27.098
			c-15.247,78.137-13.043,156.769-11.732,250.462c0.528,27.541,12.773,84.658-8.637,84.913
			c-15.482-59.281-19.364-114.693-39.331-173.108c-20.231-59.594-21.867-121.564-51.809-162.469
			c-26.973-15.975-71.768-4.013-82.796,28.457c-8.897,26.625,11.93,110.992,24.76,169.492
			c17.028,77.237,15.491,166.202-11.537,202.806c-40.38-37.741-38.888-135.503-68.226-189.065
			c-24.225-44.25-31.83-156.211-99.912-133.941c-55.504,18.214-34.662,86.064-15.088,136.586
			c11.22,28.586,20.78,57.131,30.896,78.946c20.919,44.854,21.266,119.497,32.173,160.813c7.755,29.087,1.99,64.781,5.412,97.866
			c3.73,35.081,14.146,69.901,20.104,104.483c12.178,69.104,19.051,144.625,40.912,212.11c6.003,18.195,19.271,35.039,25.261,53.788
			c12.152,37.047,9.389,81.838,11.751,126.17c14.7,273.852,40.976,588.319,64.048,860.847
			c124.904,14.539,276.689,9.021,428.499-33.244c-13.589-246.166-37.961-512.21-60.75-772.415
			c-3.256-38.489-11.47-80.685-3.676-104.86c8.057-24.235,35.44-31.608,60.731-53.237c24.986-21.146,48.98-60.236,81.285-94.17
			c31.767-33.262,74.12-59.813,93.537-83.704c23.749-29.127,35.787-84.115,57.812-125.24c25.334-47.233,69.028-81.93,76.68-129.468
			c4.124-24.593-4.893-50.095-3.625-75.148c2.879-53.486,21.592-114.924-7.627-166.725c-76.846-9.481-118.603,67.026-124.557,136.89
			c-1.64,20.321,7.34,41.979,3.952,61.865c-8.274,50.292-74.031,94.608-117.236,125.342
			c-42.863-41.45-36.833-109.129-36.635-163.529c0.693-156.617-8.273-475.513-3.449-541.82" stroke-width="16" stroke="#9C6B54" fill="none" />
    </g>
  </g>
  <path stroke-linecap="round" d="M1246.958,53.254
	c-58.991,11.831-44.183,42.813-52.945,85.139" stroke-width="16" stroke="#FCB054" fill="none" />
  <path stroke-linecap="round" d="M1301.728,169.335
	c1.807-65.975,3.792-110.158-53.281-116.266" stroke-width="16" stroke="#FCB054" fill="none" />
</svg>
