<?xml version="1.0" encoding="UTF-8" standalone="no"?>
<!-- Created with Inkscape (http://www.inkscape.org/) -->

<svg
   xmlns:dc="http://purl.org/dc/elements/1.1/"
   xmlns:cc="http://creativecommons.org/ns#"
   xmlns:rdf="http://www.w3.org/1999/02/22-rdf-syntax-ns#"
   xmlns:svg="http://www.w3.org/2000/svg"
   xmlns="http://www.w3.org/2000/svg"
   version="1.0"
   width="3146"
   height="1214"
   viewBox="-140.708 -446.507 3146 1214"
   id="svg4539"
   xml:space="preserve"
   style="display:inline"><metadata
   id="metadata4556"><rdf:RDF><cc:Work
       rdf:about=""><dc:format>image/svg+xml</dc:format><dc:type
         rdf:resource="http://purl.org/dc/dcmitype/StillImage" /><dc:title></dc:title></cc:Work></rdf:RDF></metadata>
  <defs
   id="defs4541" />
<g
   id="layer3"
   style="display:inline"><g
     transform="matrix(0.9769353,-0.21353555,0.21353555,0.9769353,25.457565,338.81883)"
     id="XMLID_76_"
     style="display:inline"><g
       id="g8462" /><g
       id="g8464"><path
         d="m 2536.617,785.13959 c -12.8163,26.04975 -24.2198,51.87168 -35.5898,71.62684 -24.7813,42.8412 -43.838,96.85436 -58.3345,137.05167 -10.2821,28.2928 -11.6954,26.1767 -18.0132,58.8338 -6.7993,34.6164 9.7098,90.4556 18.8985,124.3226 18.1175,67.7898 15.6181,62.8026 24.2733,133.2103 2.2349,19.0287 -2.6883,39.8983 -0.2076,59.424 4.6136,38.7158 26.0188,78.1587 42.5812,119.3481 102.2198,254.483 211.0823,550.6756 305.1532,807.4905 -107.1062,65.8825 -247.0465,124.9235 -402.5153,150.6571 -91.5459,-228.9145 -181.7022,-480.3993 -270.8303,-725.9243 -13.2872,-36.2692 -23.6439,-77.99 -40.9115,-96.6205 -17.5293,-18.5732 -45.4678,-13.703 -77.5227,-22.6413 -31.5762,-8.6304 -69.823,-33.9453 -113.4287,-51.0801 -42.8354,-16.7535 -92.4357,-22.9551 -120.1209,-36.422 -33.8211,-16.3859 -67.9369,-61.1607 -105.2561,-89.1534 -42.8982,-32.1338 -97.1516,-45.1531 -124.1471,-85.0242 -14.115,-20.5561 -16.7011,-47.4809 -28.4216,-69.6607 -25.1781,-47.277 -68.0657,-95.0836 -63.4315,-154.3747 65.6704,-41.0201 135.8098,10.7262 170.6851,71.554 10.0604,17.7317 11.0569,41.1542 22.52,57.7543 28.7216,42.1061 107.037,54.5397 159.1747,64.1737 21.3714,-55.6655 3.4236,-138.5937 -19.7098,-187.8305 -47.986,-101.9466 -113.5227,-162.00141 -164.6858,-263.38977 -23.6953,-46.77813 -91.9399,-174.12264 -23.7767,-199.33134 46.2893,-17.12746 64.1962,22.66867 83.3211,64.25806 63.2732,98.04392 129.3004,172.20347 202.7675,235.34844 4.081,-30.59574 0.4072,-28.35931 -8.6846,-56.74868 -30.8927,-96.05989 -81.6763,-164.27004 -109.5562,-259.75197 11.1048,-47.92359 78.2113,-49.67154 107.734,-20.24906 46.7916,64.40787 75.454,149.32169 113.7973,234.82003 11.1423,25.19176 31.4574,46.13302 56.4573,61.14798 12.7043,-51.29697 -13.1424,-90.84102 -12.7307,-152.57195 0.2872,-62.93351 -17.9479,-122.20993 -2.5238,-170.49899 20.513,-23.7043 66.7897,-26.56619 87.5465,0.72937 16.8812,22.42899 51.0785,154.59646 57.4636,214.14573 22.8961,55.36226 39.5742,71.74456 67.3275,113.03894 l 0,0 0,0 c 60.8732,-29.15188 134.5701,-103.92662 168.5026,-154.70241 3.2055,-4.79908 6.2724,-10.49999 9.2888,-16.79143"
         transform="matrix(0.97693529,0.21353555,-0.21353555,0.97693529,5.3619769,-802.69477)"
         id="path10018"
         style="fill:none;stroke:#9c6b54;stroke-width:16;stroke-linecap:round" /><path
         d="m 2433.7108,751.30775 c 23.3512,-48.70355 43.6852,-132.7951 102.011,-107.84931 53.6887,23.02294 26.9621,88.77883 3.0222,137.3833 -0.7134,1.43266 -1.4224,2.8656 -2.127,4.29785"
         transform="matrix(0.97693529,0.21353555,-0.21353555,0.97693529,5.3619769,-802.69477)"
         id="path8466"
         style="color:#000000;fill:none;stroke:#fcb054;stroke-width:16;stroke-linecap:round;stroke-linejoin:miter;stroke-miterlimit:4;stroke-opacity:1;stroke-dasharray:none;stroke-dashoffset:0;marker:none;visibility:visible;display:inline;overflow:visible;enable-background:accumulate" /></g></g></g></svg>