<?xml version="1.0" encoding="UTF-8" standalone="no"?>
<!DOCTYPE svg PUBLIC "-//W3C//DTD SVG 1.1//EN" "http://www.w3.org/Graphics/SVG/1.1/DTD/svg11.dtd">
<svg enable-background="new -140.708 -446.507 3146 1214" x="0px" xmlns:xlink="http://www.w3.org/1999/xlink" y="0px" viewBox="-140.708 -446.507 3146 1214" version="1.0" height="1214px" xml:space="preserve" xmlns:a="http://ns.adobe.com/AdobeSVGViewerExtensions/3.0/" width="3146px" xmlns="http://www.w3.org/2000/svg">
  <defs></defs>
  <g id="XMLID_49_">
    <g></g>
    <g>
      <path stroke-linecap="round" d="M1617.702,425.452
			c31.556,71.975,19.202,98.965,52.504,129.044c16.517-35.987-10.608-96.011-20.948-126.09
			c-24.036-68.887-15.71-124.21-22.559-223.443c21.082-44.447,67.946-33.168,90.505,1.88
			c31.959,72.914,29.677,154.691,48.879,246.405c5.505,26.99,13.563,53.176,25.781,80.568c23.365-47.4-16.113-118.838-9.399-180.205
			c6.714-62.574-5.371-123.404,14.905-169.865c22.828-21.484,69.155-19.604,87.015,9.668
			c14.502,24.037,12.622,110.916,12.891,170.806c0.269,79.092,21.351,165.568,55.727,195.379
			c31.153-45.655,8.191-140.727,25.11-199.407c13.965-48.476-2.954-159.392,68.349-152.543
			c58.145,5.64,52.504,76.405,44.447,129.983c-4.699,30.348-7.788,60.293-12.891,83.792c-10.608,48.341,5.506,121.256,3.894,163.957
			c-1.208,30.079,12.22,63.649,16.114,96.682c4.028,35.048,1.477,71.304,3.223,106.351c3.223,70.095,13.025,145.292,6.445,215.924
			c-1.88,19.068-11.146,38.404-12.891,58.01c-3.76,38.808,8.729,81.911,16.113,125.687
			c45.521,270.442,88.626,583.049,125.688,854.027c-118.705,41.493-268.025,69.289-425.402,61.232
			c-40.553-243.183-74.929-508.119-109.573-767.013c-5.237-38.271-6.445-81.24-19.337-103.128
			c-13.159-21.888-41.492-23.097-70.9-38.673c-29.004-15.174-60.963-48.073-99.904-74.123
			c-38.271-25.514-85.403-42.165-109.574-61.232c-29.542-23.23-53.31-74.258-83.791-109.573
			c-35.047-40.553-85.269-64.857-103.128-109.573c-9.4-23.097-6.177-49.953-12.891-74.123
			c-14.502-51.564-46.192-107.425-29.004-164.36c72.915-26.051,130.387,39.479,151.469,106.351
			c6.042,19.471,2.014,42.567,9.668,61.232c19.068,47.267,92.922,76.137,141.801,96.683
			c41.224-84.866,52.101-120.719,54.652-171.746c6.042-117.093-13.429-121.524-37.465-193.499" stroke-width="16" stroke="#9C6B54" fill="none" />
    </g>
  </g>
  <path stroke-linecap="round" d="M1491.725,498.965
	c-28.499-166.491,87.796-159.626,121.494-80.995" stroke-width="16" stroke="#FCB054" fill="none" />
</svg>
