<?xml version="1.0" encoding="UTF-8" standalone="no"?>
<!DOCTYPE svg PUBLIC "-//W3C//DTD SVG 1.1//EN" "http://www.w3.org/Graphics/SVG/1.1/DTD/svg11.dtd">
<svg enable-background="new -140.708 -446.507 3146 1214" x="0px" xmlns:xlink="http://www.w3.org/1999/xlink" y="0px" viewBox="-140.708 -446.507 3146 1214" version="1.0" height="1214px" xml:space="preserve" xmlns:a="http://ns.adobe.com/AdobeSVGViewerExtensions/3.0/" width="3146px" xmlns="http://www.w3.org/2000/svg">
  <defs></defs>
  <g id="XMLID_51_">
    <g></g>
    <g>
      <path stroke-linecap="round" d="M1017.721,434.443
			c-79.897,47.133-220.624,99.905-307.503,138.041c-22.291-21.351-34.242-64.857-31.422-94.533
			c9.668-100.442,36.927-178.057,43.776-277.291c-21.082-44.447-78.286-29.272-100.845,5.774
			c-31.959,72.915-46.729,149.857-65.932,241.571c-5.506,26.991-14.771,60.964-35.987,80.972
			c-12.623-52.906,6.177-118.436-0.537-179.802c-6.714-62.575,5.371-123.404-14.905-169.866
			c-22.828-21.485-69.155-19.604-87.014,9.669c-14.502,24.036-12.623,110.916-12.891,170.805
			c-0.269,79.092-21.351,165.568-55.727,195.379c-31.153-45.655-8.191-140.727-25.11-199.407
			c-13.965-48.476,2.954-159.392-68.349-152.543c-58.144,5.64-52.504,76.406-44.447,129.984c4.7,30.347,7.789,60.292,12.891,83.791
			c10.608,48.341-5.505,121.256-3.894,163.957c1.208,30.079-12.22,63.649-16.114,96.683c-4.028,35.047-1.477,71.303-3.223,106.351
			c-3.223,70.095-13.025,145.292-6.445,215.924c1.88,19.067,11.145,38.404,12.891,58.009c3.76,38.808-8.728,81.911-16.114,125.688
			c-45.521,270.441-88.625,583.048-125.687,854.026c118.705,41.493,268.025,69.289,425.402,61.232
			c40.553-243.183,74.929-508.119,109.573-767.013c5.237-38.271,6.445-81.24,19.336-103.128c13.16-21.888,41.493-23.097,70.9-38.673
			c29.005-15.174,60.963-48.073,99.905-74.123c38.27-25.514,85.402-42.164,109.573-61.232c29.542-23.23,53.31-74.257,83.791-109.573
			c35.047-40.553,85.269-64.857,103.128-109.573c9.399-23.097,6.177-49.952,12.891-74.123
			c14.502-51.563,46.192-107.425,29.004-164.36c-72.915-26.05-130.387,39.479-151.469,106.351
			c-6.042,19.471-2.014,42.567-9.668,61.232c-19.068,47.267-64.32,72.243-113.199,92.788c-32.765-49.818-9.131-102.859,2.954-155.9
			c25.111-109.842,133.476-123.001,230.023-177.653" stroke-width="16" stroke="#9C6B54" fill="none" />
    </g>
  </g>
  <path stroke-linecap="round" d="M1136.241,420.976
	c-40.957-25.484-71.997-4.5-118.494,13.499" stroke-width="16" stroke="#FCB054" fill="none" />
  <path stroke-linecap="round" d="M1083.743,527.471
	c37.614-26.33,95.995-44.998,52.498-106.495" stroke-width="16" stroke="#FCB054" fill="none" />
</svg>
