<?xml version="1.0" encoding="UTF-8" standalone="no"?>
<!DOCTYPE svg PUBLIC "-//W3C//DTD SVG 1.1//EN" "http://www.w3.org/Graphics/SVG/1.1/DTD/svg11.dtd">
<svg enable-background="new -140.708 -446.507 3146 1214" x="0px" xmlns:xlink="http://www.w3.org/1999/xlink" y="0px" viewBox="-140.708 -446.507 3146 1214" version="1.0" height="1214px" xml:space="preserve" xmlns:a="http://ns.adobe.com/AdobeSVGViewerExtensions/3.0/" width="3146px" xmlns="http://www.w3.org/2000/svg">
  <defs></defs>
  <g id="XMLID_71_">
    <g></g>
    <g>
      <path stroke-linecap="round" d="M373.955,248.471
			c1.88-14.771,5.774-28.064,13.025-40.149c17.859-29.273,64.186-31.153,87.014-9.669c13.025,17.859,17.591,33.705,18.396,49.818" stroke-width="16" stroke="#FCB054" fill="none" />
      <path stroke-linecap="round" d="M492.391,248.471
			c1.343,26.99-7.654,54.787-3.357,93.997c6.714,61.366-32.765,132.804-9.4,180.205c21.216-20.008,20.276-53.578,25.782-80.568
			c19.203-91.715,45.387-172.015,77.346-244.929c22.559-35.048,88.491-47.67,109.573-3.223
			c-6.849,99.233-41.896,176.714-51.564,277.155c-2.82,29.677-9.4,68.887,12.891,90.237
			c61.5-79.629,112.796-187.188,138.578-306.161c9.803-44.715,18.799-87.417,67.678-80.568
			c71.975,10.071,32.496,149.052,19.336,199.811c-28.333,109.976-58.681,202.764-83.791,312.605
			c-12.085,53.041-32.765,117.765,0,167.583c48.878-20.545,122.732-49.415,141.8-96.683c7.654-18.665,3.626-41.761,9.668-61.231
			c21.082-66.872,78.554-132.401,151.469-106.351c17.188,56.935-14.502,112.796-29.004,164.359
			c-6.714,24.171-3.491,51.027-12.891,74.123c-17.859,44.716-68.081,69.021-103.128,109.573
			c-30.481,35.316-54.25,86.343-83.791,109.573c-24.171,19.068-71.303,35.719-109.573,61.232
			c-38.942,26.051-70.9,58.949-99.905,74.123c-29.408,15.576-57.741,16.785-70.9,38.673c-12.891,21.888-14.1,64.857-19.336,103.128
			c-34.645,258.894-69.021,523.83-109.573,767.013c-157.377,8.057-306.698-19.739-425.402-61.231
			c37.062-270.979,80.166-583.586,125.687-854.027c7.386-43.775,19.874-86.88,16.114-125.688
			c-1.746-19.604-11.011-38.941-12.891-58.009c-6.58-70.632,3.223-145.829,6.445-215.924c1.746-35.048-0.806-71.304,3.223-106.351
			c3.894-33.033,17.322-66.604,16.114-96.683c-1.611-42.701,14.368-115.481,3.76-163.822c-5.103-23.5-8.191-53.444-12.891-83.792
			c-8.057-53.578-13.562-124.479,44.582-130.118c71.303-6.848,54.25,104.202,68.215,152.678
			c16.919,58.681-5.909,153.617,25.245,199.272c34.376-29.81,55.324-116.287,55.592-195.378c0.269-39.882-3.894-74.93-0.134-104.605
			" stroke-width="16" stroke="#9C6B54" fill="none" />
    </g>
  </g>
</svg>
