<?xml version="1.0" encoding="UTF-8" standalone="no"?>
<!DOCTYPE svg PUBLIC "-//W3C//DTD SVG 1.1//EN" "http://www.w3.org/Graphics/SVG/1.1/DTD/svg11.dtd">
<svg enable-background="new 322.969 -233.465 3146 1214" x="0px" xmlns:xlink="http://www.w3.org/1999/xlink" y="0px" viewBox="322.969 -233.465 3146 1214" version="1.1" height="1214px" xml:space="preserve" xmlns:a="http://ns.adobe.com/AdobeSVGViewerExtensions/3.0/" width="3146px" xmlns="http://www.w3.org/2000/svg">
  <defs></defs>
  <g id="XMLID_47_">
    <g></g>
    <g>
      <path stroke-linecap="round" d="M603.332,89.15
			c-8.193,32.59-7.181,140.916-11.48,164.578c-8.231,45.75-13.895,217.835-13.655,267.819c0.054,22.675-28.5,91.221-37.166,123.334
			c-9.092,34.086-11.851,70.326-18.685,104.745c-13.401,68.878-34.056,141.844-37.838,212.681
			c-0.918,19.139,5.431,39.618,4.301,59.269c-1.935,38.941-20.57,79.766-34.255,121.998
			c-84.44,260.923-172.633,563.912-248.782,826.6c111.392,58.346,255.069,107.603,411.94,122.562
			c75.553-234.679,148.165-491.778,220.162-742.861c10.757-37.099,18.214-79.434,34.157-99.21
			c16.208-19.737,44.415-16.804,75.778-27.93c30.906-10.786,67.317-38.677,109.639-58.775
			c41.579-19.665,90.635-29.271,117.326-44.613c32.611-18.678,63.561-65.697,98.863-96.195
			c40.582-35.013,42.781-51.791,66.965-93.428c12.665-21.479,13.39-48.519,23.554-71.453c21.861-48.9,61.352-99.548,52.643-158.38
			c-85.069-32.481-153.257,58.188-165.348,83.146c-8.815,18.383-8.195,41.819-18.487,59.17
			c-25.751,43.984-47.935,48.997-99.285,62.2c-25.156-54.061,0.725-84.181,20.41-134.895
			c40.847-105.011,79.903-169.295,144.594-237.134c36.265-37.957,77.593-109.371,5.801-120.488
			c-35.697-5.528-58.029,16.157-92.788,48.499c-41.986,39.015-105.162,134.357-177.608,204.175
			c-18.942-24.37,5.021-1.839,10.295-31.194c26.383-145.96,70.256-129.59,91.49-226.767
			c-14.381-47.044-81.448-44.164-108.874-12.777c-42.242,67.48-70.232,93.489-112.301,191.127
			c-10.915,25.267,0.75,2.282-23.155,18.985c-16.209-50.3,9.206-56.058,24.36-117.483c14.982-61.179,42.033-76.197,28.742-125.117
			c-19.454-24.582-59.955-38.962-85.176-7.794c-17.604,21.838-21.753,37.108-54.008,87.463
			c-25.754,40.319-73.768,37.319-88.801,22.348c-7.229-54.136-21.463-292.944-14.706-353.57" stroke-width="8" stroke="#9C6B54" fill="none" />
    </g>
  </g>
  <path stroke-linecap="round" d="M658.88,4.329
	c-38.801-4.198-48.716,32.244-54.882,84.4" stroke-width="8" stroke="#FCB054" fill="none" />
  <path stroke-linecap="round" d="M700.918,112.587
	C700.683,49.904,706.583,9.838,658.88,4.329" stroke-width="8" stroke="#FCB054" fill="none" />
</svg>
