<?xml version="1.0" encoding="UTF-8" standalone="no"?>
<!DOCTYPE svg PUBLIC "-//W3C//DTD SVG 1.1//EN" "http://www.w3.org/Graphics/SVG/1.1/DTD/svg11.dtd">
<svg enable-background="new -140.708 -446.507 3146 1214" x="0px" xmlns:xlink="http://www.w3.org/1999/xlink" y="0px" viewBox="-140.708 -446.507 3146 1214" version="1.0" height="1214px" xml:space="preserve" xmlns:a="http://ns.adobe.com/AdobeSVGViewerExtensions/3.0/" width="3146px" xmlns="http://www.w3.org/2000/svg">
  <defs></defs>
  <g id="XMLID_42_">
    <g></g>
    <g>
      <path stroke-linecap="round" d="M756.34,85.44
			c-19.068,104.605-37.733,244.123-76.137,392.504c-11.951,46.461-41.761,83.388-44.984,1.477
			c-3.894-100.845,38.539-178.728,45.387-277.962c-21.082-44.447-87.014-31.824-109.573,3.224
			c-31.959,72.914-46.998,150.126-66.2,241.84c-5.506,26.99-6.043,85.402-26.991,80.971c-2.148-61.231,6.177-116.152-0.537-177.519
			c-6.714-62.575,5.237-123.404-15.04-169.866c-22.828-21.485-69.155-19.604-87.014,9.669
			c-14.502,24.036-12.622,110.916-12.891,170.805c-0.269,79.092-21.217,165.568-55.592,195.379
			c-31.153-45.655-8.326-140.727-25.245-199.407c-13.965-48.476,3.088-159.392-68.215-152.543
			c-58.144,5.64-52.638,76.406-44.581,129.984c4.7,30.347,7.788,60.292,12.891,83.791c10.608,48.341-5.372,121.256-3.76,163.957
			c1.209,30.079-12.219,63.649-16.113,96.683c-4.029,35.047-1.478,71.303-3.223,106.351c-3.223,70.095-13.025,145.292-6.445,215.924
			c1.88,19.067,11.146,38.404,12.891,58.009c3.76,38.808-8.729,81.911-16.114,125.688
			c-45.521,270.441-88.625,583.048-125.687,854.026c118.704,41.493,268.025,69.289,425.402,61.232
			c40.553-243.183,74.929-508.119,109.574-767.013c5.237-38.271,6.445-81.24,19.336-103.128
			c13.159-21.888,41.493-23.097,70.9-38.673c29.004-15.174,60.963-48.073,99.905-74.123c38.27-25.514,85.403-42.164,109.573-61.232
			c29.542-23.23,53.31-74.257,83.792-109.573c35.047-40.553,85.268-64.857,103.127-109.573c9.4-23.097,6.177-49.952,12.891-74.123
			c14.502-51.563,46.193-107.425,29.005-164.36c-72.915-26.05-130.387,39.479-151.469,106.351
			c-6.042,19.471-2.014,42.567-9.668,61.232c-19.068,47.267-92.922,76.138-141.801,96.683c-32.765-49.818-12.085-114.542,0-167.583
			c34.913-152.678,53.578-502.613,75.063-563.04" stroke-width="16" stroke="#9C6B54" fill="none" />
    </g>
  </g>
  <path stroke-linecap="round" d="M819.757,9.989
	c-59.997,4.5-49.104,37.065-62.997,77.996" stroke-width="16" stroke="#FCB054" fill="none" />
  <path stroke-linecap="round" d="M859.862,131.916
	c19.893-63.429,17.287-108.859-38.604-121.926" stroke-width="16" stroke="#FCB054" fill="none" />
</svg>
