<?xml version="1.0" encoding="utf-8"?>
<!-- Generator: Adobe Illustrator 13.0.2, SVG Export Plug-In  -->
<!DOCTYPE svg PUBLIC "-//W3C//DTD SVG 1.0//EN" "http://www.w3.org/TR/2001/REC-SVG-20010904/DTD/svg10.dtd" [
	<!ENTITY ns_flows "http://ns.adobe.com/Flows/1.0/">
]>
<svg version="1.0"
	 xmlns="http://www.w3.org/2000/svg" xmlns:xlink="http://www.w3.org/1999/xlink" xmlns:a="http://ns.adobe.com/AdobeSVGViewerExtensions/3.0/"
	 x="0px" y="0px" width="3146px" height="1214px" viewBox="-1333.657 -607.685 3146 1214"
	 enable-background="new -1333.657 -607.685 3146 1214" xml:space="preserve">
<defs>
</defs>
<g id="XMLID_12_" display="none">
	<g display="inline">
	</g>
	<g display="inline">
		<path fill="none" stroke="#898989" stroke-width="8" stroke-linecap="round" d="M788.881,398.329
			c31.153-45.656,8.326-140.727,25.245-199.407c13.965-48.476-3.088-159.392,68.215-152.544
			c58.144,5.64,52.638,76.406,44.581,129.984c-4.699,30.348-7.788,60.292-12.891,83.791c-10.608,48.342,5.371,121.256,3.76,163.957
			c-1.209,30.079,12.22,63.649,16.113,96.683c4.029,35.047,1.478,71.303,3.223,106.351c3.224,70.095,13.025,145.292,6.446,215.924
			c-1.88,19.067-11.146,38.404-12.892,58.009c-3.76,38.808,8.729,81.912,16.114,125.688
			c45.521,270.441,88.625,583.048,125.687,854.027c-118.704,41.492-268.024,69.289-425.402,61.231
			c-40.553-243.183-74.929-508.119-109.573-767.013c-5.236-38.27-6.445-81.24-19.336-103.128
			c-13.159-21.888-41.493-23.096-70.9-38.673c-29.005-15.174-60.964-48.072-99.905-74.123
			c-38.27-25.514-85.402-42.164-109.573-61.232c-29.542-23.23-53.31-74.257-83.791-109.573
			c-35.047-40.553-85.269-64.857-103.128-109.573c-9.4-23.096-6.177-49.952-12.891-74.123C23.479,553.02-8.21,497.159,8.978,440.224
			c72.915-26.051,130.387,39.479,151.469,106.351c6.042,19.471,2.014,42.566,9.668,61.231c19.068,47.268,92.922,76.138,141.8,96.683
			c32.765-49.818,12.086-114.542,0-167.583c-25.11-109.842-55.458-202.63-83.791-312.605
			c-13.16-50.759-52.638-189.739,19.336-199.811c48.879-6.848,57.875,35.854,67.678,80.568
			c25.782,118.974,77.077,226.532,138.578,306.161c22.291-21.351,15.711-60.561,12.891-90.237
			c-9.668-100.441-44.715-177.922-51.563-277.155c21.082-44.447,87.014-31.825,109.573,3.223
			c31.959,72.914,58.144,153.215,77.346,244.929c5.506,26.99,4.565,60.561,25.782,80.568
			c23.365-47.401-16.114-118.839-9.399-180.205c6.714-62.575-5.371-123.404,14.905-169.865
			c22.827-21.485,69.154-19.605,87.014,9.668c14.502,24.036,12.622,110.916,12.891,170.806
			C733.423,282.041,754.505,368.518,788.881,398.329z"/>
	</g>
</g>
<g id="XMLID_11_" display="none">
	<g display="inline">
	</g>
	<g display="inline">
		<path fill="none" stroke="#FCB054" stroke-width="8" stroke-linecap="round" d="M924.64,112.31
			c0.537-31.288-7.923-56.667-42.299-60.024c-38.404-3.625-56.667,25.111-67.006,60.024"/>
		<line fill="none" stroke="#FCB054" stroke-width="8" stroke-linecap="round" x1="924.64" y1="112.31" x2="815.335" y2="112.31"/>
		<path fill="none" stroke="#9C6B54" stroke-width="8" stroke-linecap="round" d="M815.335,112.31
			c-8.863,29.81-11.951,63.917-17.054,85.939c-11.951,52.101,21.753,154.423-9.4,200.079
			c-34.376-29.811-53.443-120.316-53.712-199.407c-0.269-59.89,1.611-146.77-12.891-170.806
			c-17.859-29.273-64.187-31.153-87.015-9.668c-20.276,46.461-8.191,107.29-14.905,169.865
			c-6.714,61.366,30.751,136.832,7.386,184.233c-21.217-20.008-20.276-53.578-25.782-80.568
			c-19.202-91.714-45.387-172.015-77.346-244.929c-22.56-35.048-88.491-47.67-109.573-3.223
			c6.849,99.233,41.896,176.714,51.563,277.155c2.82,29.677,9.4,68.887-12.891,90.237
			C392.215,331.59,340.92,224.032,315.138,105.058c-9.803-44.715-18.799-87.416-67.678-80.568
			c-71.974,10.071-32.496,149.052-19.336,199.811c28.333,109.976,58.681,202.764,83.791,312.605
			c12.086,53.041,32.765,117.765,0,167.583c-48.878-20.545-122.732-49.415-141.8-96.683c-7.654-18.665-3.626-41.761-9.668-61.231
			C139.364,479.703,81.892,414.173,8.978,440.224C-8.21,497.159,23.479,553.02,37.982,604.583
			c6.714,24.171,3.491,51.027,12.891,74.123c17.859,44.716,68.081,69.021,103.128,109.573
			c30.481,35.316,54.25,86.343,83.791,109.573c24.171,19.068,71.304,35.719,109.573,61.232c38.941,26.051,70.9,58.949,99.905,74.123
			c29.407,15.577,57.741,16.785,70.9,38.673c12.891,21.888,14.1,64.858,19.336,103.128
			c34.645,258.894,69.021,523.83,109.573,767.013c157.378,8.058,306.698-19.739,425.402-61.231
			c-37.062-270.979-80.165-583.586-125.687-854.027c-7.386-43.775-19.874-86.88-16.114-125.688
			c1.746-19.604,11.012-38.941,12.892-58.009c6.579-70.632-3.223-145.829-6.446-215.924c-1.745-35.048,0.807-71.304-3.223-106.351
			c-3.894-33.033-17.322-66.604-16.113-96.683c1.611-42.701-8.325-114.676-3.76-163.957c2.282-25.781-2.417-49.55,2.282-79.896
			c3.357-21.889,7.923-46.327,8.326-67.946"/>
	</g>
</g>
<g id="XMLID_10_" display="none">
	<g display="inline">
	</g>
	<g display="inline">
		<path fill="none" stroke="#FCB054" stroke-width="8" stroke-linecap="round" d="M733.423,98.344
			c-2.014-14.771-5.773-28.199-13.159-40.149c-17.726-29.273-64.187-31.153-87.014-9.669
			c-13.025,17.859-17.457,33.705-18.263,49.818"/>
		<line fill="none" stroke="#FCB054" stroke-width="8" stroke-linecap="round" x1="733.423" y1="98.344" x2="614.987" y2="98.344"/>
		<path fill="none" stroke="#9C6B54" stroke-width="8" stroke-linecap="round" d="M614.987,98.344
			c-1.343,26.991,7.52,54.787,3.357,93.997c-6.715,61.366,32.765,132.804,9.399,180.205c-21.217-20.008-20.276-53.578-25.782-80.568
			c-19.202-91.714-45.387-172.015-77.346-244.929c-22.56-35.048-88.491-47.67-109.573-3.223
			c6.849,99.233,41.896,176.714,51.563,277.155c2.82,29.677,9.4,68.887-12.891,90.237
			C392.215,331.59,340.92,224.032,315.138,105.058c-9.803-44.715-18.799-87.416-67.678-80.568
			c-71.974,10.071-32.496,149.052-19.336,199.811c28.333,109.976,58.681,202.764,83.791,312.605
			c12.086,53.041,32.765,117.765,0,167.583c-48.878-20.545-122.732-49.415-141.8-96.683c-7.654-18.665-3.626-41.761-9.668-61.231
			C139.364,479.703,81.892,414.173,8.978,440.224C-8.21,497.159,23.479,553.02,37.982,604.583
			c6.714,24.171,3.491,51.027,12.891,74.123c17.859,44.716,68.081,69.021,103.128,109.573
			c30.481,35.316,54.25,86.343,83.791,109.573c24.171,19.068,71.304,35.719,109.573,61.232c38.941,26.051,70.9,58.949,99.905,74.123
			c29.407,15.577,57.741,16.785,70.9,38.673c12.891,21.888,14.1,64.858,19.336,103.128
			c34.645,258.894,69.021,523.83,109.573,767.013c157.378,8.058,306.698-19.739,425.402-61.231
			c-37.062-270.979-80.165-583.586-125.687-854.027c-7.386-43.775-19.874-86.88-16.114-125.688
			c1.746-19.604,11.012-38.941,12.892-58.009c6.579-70.632-3.223-145.829-6.446-215.924c-1.745-35.048,0.807-71.304-3.223-106.351
			c-3.894-33.033-17.322-66.604-16.113-96.683c1.611-42.701-14.368-115.615-3.76-163.957c5.103-23.499,8.191-53.443,12.891-83.791
			c8.057-53.578,13.563-124.345-44.581-129.984c-71.303-6.848-54.25,104.068-68.215,152.544
			c-16.919,58.681,5.908,153.751-25.245,199.407c-34.376-29.811-55.458-116.288-55.727-195.379
			c-0.134-40.016,4.028-75.063,0.269-104.605"/>
	</g>
</g>
<g id="XMLID_9_" display="none">
	<g display="inline">
	</g>
	<g display="inline">
		<path fill="none" stroke="#9C6B54" stroke-width="8" stroke-linecap="round" d="M419.206,120.367
			c12.891,69.826,39.479,117.898,47.4,200.615c2.82,29.677,9.4,68.887-12.891,90.237C392.215,331.59,340.92,224.032,315.138,105.058
			c-9.803-44.715-18.799-87.416-67.678-80.568c-71.974,10.071-32.496,149.052-19.336,199.811
			c28.333,109.976,58.681,202.764,83.791,312.605c12.086,53.041,32.765,117.765,0,167.583
			c-48.878-20.545-122.732-49.415-141.8-96.683c-7.654-18.665-3.626-41.761-9.668-61.231
			C139.364,479.703,81.892,414.173,8.978,440.224C-8.21,497.159,23.479,553.02,37.982,604.583
			c6.714,24.171,3.491,51.027,12.891,74.123c17.859,44.716,68.081,69.021,103.128,109.573
			c30.481,35.316,54.25,86.343,83.791,109.573c24.171,19.068,71.304,35.719,109.573,61.232c38.941,26.051,70.9,58.949,99.905,74.123
			c29.407,15.577,57.741,16.785,70.9,38.673c12.891,21.888,14.1,64.858,19.336,103.128
			c34.645,258.894,69.021,523.83,109.573,767.013c157.378,8.058,306.698-19.739,425.402-61.231
			c-37.062-270.979-80.165-583.586-125.687-854.027c-7.386-43.775-19.874-86.88-16.114-125.688
			c1.746-19.604,11.012-38.941,12.892-58.009c6.579-70.632-3.223-145.829-6.446-215.924c-1.745-35.048,0.807-71.304-3.223-106.351
			c-3.894-33.033-17.322-66.604-16.113-96.683c1.611-42.701-14.368-115.615-3.76-163.957c5.103-23.499,8.191-53.443,12.891-83.791
			c8.057-53.578,13.563-124.345-44.581-129.984c-71.303-6.848-54.25,104.068-68.215,152.544
			c-16.919,58.681,5.908,153.751-25.245,199.407c-34.376-29.811-55.458-116.288-55.727-195.379
			c-0.269-59.89,1.611-146.77-12.891-170.806c-17.859-29.273-64.187-31.153-87.014-9.668
			c-20.276,46.461-8.191,107.29-14.905,169.865c-6.715,61.366,32.765,132.804,9.399,180.205
			c-21.217-20.008-20.276-53.578-25.782-80.568c-15.039-71.706-35.584-119.376-59.083-171.611"/>
		<path fill="none" stroke="#FCB054" stroke-width="8" stroke-linecap="round" d="M542.879,120.367
			c-6.58-14.637-13.294-29.407-20.276-45.253c-22.56-35.047-88.491-47.67-109.574-3.223c1.209,17.457,3.357,33.436,6.178,48.476
			H542.879z"/>
	</g>
</g>
<g id="XMLID_8_" display="none">
	<g display="inline">
	</g>
	<g display="inline">
		<path fill="none" stroke="#FCB054" stroke-width="8" stroke-linecap="round" d="M324.001,140.375
			c-3.357-11.683-6.312-23.365-8.863-35.316c-9.803-44.715-17.859-65.528-66.737-58.681c-42.433,5.908-46.73,49.147-40.284,93.997"
			/>
		
			<line fill="none" stroke="#FCB054" stroke-width="8" stroke-linecap="round" x1="324.001" y1="140.375" x2="208.116" y2="140.375"/>
		<path fill="none" stroke="#9C6B54" stroke-width="8" stroke-linecap="round" d="M208.116,140.375
			c4.565,31.153,14.368,63.112,20.008,83.926c30.213,109.976,58.681,202.764,83.791,312.605c12.086,53.041,32.765,117.765,0,167.583
			c-48.878-20.545-122.732-49.415-141.8-96.683c-7.654-18.665-3.626-41.761-9.668-61.231
			C139.364,479.703,81.892,414.173,8.978,440.224C-8.21,497.159,23.479,553.02,37.982,604.583
			c6.714,24.171,3.491,51.027,12.891,74.123c17.859,44.716,68.081,69.021,103.128,109.573
			c30.481,35.316,54.25,86.343,83.791,109.573c24.171,19.068,71.304,35.719,109.573,61.232c38.941,26.051,70.9,58.949,99.905,74.123
			c29.407,15.577,57.741,16.785,70.9,38.673c12.891,21.888,14.1,64.858,19.336,103.128
			c34.645,258.894,69.021,523.83,109.573,767.013c157.378,8.058,306.698-19.739,425.402-61.231
			c-37.062-270.979-80.165-583.586-125.687-854.027c-7.386-43.775-19.874-86.88-16.114-125.688
			c1.746-19.604,11.012-38.941,12.892-58.009c6.579-70.632-3.223-145.829-6.446-215.924c-1.745-35.048,0.807-71.304-3.223-106.351
			c-3.894-33.033-17.322-66.604-16.113-96.683c1.611-42.701-14.368-115.615-3.76-163.957c5.103-23.499,8.191-53.443,12.891-83.791
			c8.057-53.578,13.563-124.345-44.581-129.984c-71.303-6.848-54.25,104.068-68.215,152.544
			c-16.919,58.681,5.908,153.751-25.245,199.407c-34.376-29.811-55.458-116.288-55.727-195.379
			c-0.269-59.89,1.611-146.77-12.891-170.806c-17.859-29.273-64.187-31.153-87.014-9.668
			c-20.276,46.461-8.191,107.29-14.905,169.865c-6.715,61.366,32.765,132.804,9.399,180.205
			c-21.217-20.008-20.276-53.578-25.782-80.568c-19.202-91.714-45.387-172.015-77.346-244.929
			c-22.56-35.048-88.491-47.67-109.573-3.223c6.849,99.233,41.896,176.714,51.563,277.155c2.82,29.677,9.4,68.887-12.891,90.237
			c-42.567-76.406-99.905-166.911-129.715-270.845"/>
	</g>
</g>
<g id="XMLID_7_">
	<g>
	</g>
	<g>
		<path fill="none" stroke="#FCB054" stroke-width="8" stroke-linecap="round" d="M161.923,127.886
			c-6.311-8.729-12.085-17.188-17.591-25.514c-25.11-38.27-59.889-73.049-93.997-42.029c-32.228,29.273-25.782,69.289-9.131,105.813
			"/>
		<path fill="none" stroke="#FCB054" stroke-width="8" stroke-linecap="round" d="M161.923,127.886
			c-2.686-3.223-5.103-6.445-7.52-9.534L41.205,166.157"/>
		<path fill="none" stroke="#9C6B54" stroke-width="8" stroke-linecap="round" d="M41.205,166.157
			c6.177,13.428,13.563,26.318,21.083,38.136c65.529,102.859,224.518,222.771,249.628,332.613
			c12.086,53.041,32.765,117.765,0,167.583c-48.878-20.545-122.732-49.415-141.8-96.683c-7.654-18.665-3.626-41.761-9.668-61.231
			C139.364,479.703,81.892,414.173,8.978,440.224C-8.21,497.159,23.479,553.02,37.982,604.583
			c6.714,24.171,3.491,51.027,12.891,74.123c17.859,44.716,68.081,69.021,103.128,109.573
			c30.481,35.316,54.25,86.343,83.791,109.573c24.171,19.068,71.304,35.719,109.573,61.232c38.941,26.051,70.9,58.949,99.905,74.123
			c29.407,15.577,57.741,16.785,70.9,38.673c12.891,21.888,14.1,64.858,19.336,103.128
			c34.645,258.894,69.021,523.83,109.573,767.013c157.378,8.058,306.698-19.739,425.402-61.231
			c-37.062-270.979-80.165-583.586-125.687-854.027c-7.386-43.775-19.874-86.88-16.114-125.688
			c1.746-19.604,11.012-38.941,12.892-58.009c6.579-70.632-3.223-145.829-6.446-215.924c-1.745-35.048,0.807-71.304-3.223-106.351
			c-3.894-33.033-17.322-66.604-16.113-96.683c1.611-42.701-14.368-115.615-3.76-163.957c5.103-23.499,8.191-53.443,12.891-83.791
			c8.057-53.578,13.563-124.345-44.581-129.984c-71.303-6.848-54.25,104.068-68.215,152.544
			c-16.919,58.681,5.908,153.751-25.245,199.407c-34.376-29.811-55.458-116.288-55.727-195.379
			c-0.269-59.89,1.611-146.77-12.891-170.806c-17.859-29.273-64.187-31.153-87.014-9.668
			c-20.276,46.461-8.191,107.29-14.905,169.865c-6.715,61.366,19.336,132.535-4.028,179.937
			c-21.217-20.008-33.168-55.995-38.674-82.985c-19.202-91.714-47.267-170.94-51.026-242.243
			c-22.56-35.048-88.491-47.67-109.573-3.223c-12.757,94.533,15.576,174.028,25.245,274.47c2.819,29.677,22.29,68.618,0,89.969
			c-33.974-3.626-186.785-163.957-277.291-278.901c-0.537-0.537-0.94-1.074-1.074-1.478"/>
	</g>
</g>
</svg>
