<?xml version="1.0" encoding="UTF-8" standalone="no"?>
<!DOCTYPE svg PUBLIC "-//W3C//DTD SVG 1.1//EN" "http://www.w3.org/Graphics/SVG/1.1/DTD/svg11.dtd">
<svg enable-background="new 322.969 -233.465 3146 1214" x="0px" xmlns:xlink="http://www.w3.org/1999/xlink" y="0px" viewBox="322.969 -233.465 3146 1214" version="1.1" height="1214px" xml:space="preserve" xmlns:a="http://ns.adobe.com/AdobeSVGViewerExtensions/3.0/" width="3146px" xmlns="http://www.w3.org/2000/svg">
  <defs></defs>
  <g id="XMLID_60_">
    <g></g>
    <g>
      <path stroke-linecap="round" d="M2740.145,334.006
			c-4.461,33.202-7.257,100.483-9.593,124.5c-3.701,37.856-28.04,216.009-26.388,258.708c1.091,30.084,17.043,62.531,23.447,95.17
			c6.691,34.638,6.915,70.982,11.331,105.795c8.563,69.644,24.077,143.874,22.908,214.802c-0.419,19.155-8.181,39.143-8.425,58.824
			c-0.787,38.98,14.955,81.006,25.66,124.09c66.032,266.179,132.872,574.582,190.51,841.941
			c-115.19,50.433-261.953,89.546-419.486,93.525c-58.997-239.378-113.496-500.917-167.802-756.411
			c-8.143-37.759-12.628-80.511-27.152-101.351c-14.791-20.819-43.135-19.862-73.646-33.148
			c-30.078-12.915-64.455-43.278-105.271-66.281c-40.105-22.518-88.372-35.521-113.927-52.689
			c-31.229-20.907-58.822-69.971-91.911-102.857c-38.041-37.759-89.97-58.159-111.191-101.382
			c-11.135-22.312-9.972-49.335-18.511-72.923c-18.396-50.306-54.258-103.585-41.466-161.666
			c70.713-31.54,133.02,29.411,159.145,94.479c7.512,18.952,5.258,42.289,14.314,60.315c22.62,45.673,98.463,68.822,148.767,85.576
			c28.866-52.174,3.307-115.13-12.792-167.094c-33.422-107.604-84.899-153.763-141.724-252.169
			c-26.358-45.252-101.784-168.495-35.19-197.565c45.353-19.768,65.422,18.964,86.962,59.333
			c56.729,107.705,135.111,197.458,215.812,257.674c15.747-26.523-1.15-62.535-11.903-90.397
			c-36.3-94.187-90.983-159.356-124.153-253.109c8.278-48.443,75.191-53.97,106.397-26.326
			c64.185,78.449,96.916,131.295,140.367,215.103c12.515,24.495,19.746,48.587,45.561,62.098
			c9.762-51.923-4.188-125.061-26.896-184.194c-22.543-58.743-36.475-94.712-29.412-144.947
			c16.128-26.823,61.24-37.414,86.33-14.016c20.457,19.174,31.687,65.584,57.075,143.907
			c18.568,57.835,74.165,217.611,92.681,223.735c10.988-53.498,54.24-299.492,70.328-358.499" stroke-width="8" stroke="#9C6B54" fill="none" />
    </g>
  </g>
  <path stroke-linecap="round" d="M2709.687,205.984
	c57.366,11.025,37.021,73.601,29.978,127.322" stroke-width="8" stroke="#FCB054" fill="none" />
  <path stroke-linecap="round" d="M2640.488,315.995
	c15.832-57.501-0.093-123.33,69.198-110.011" stroke-width="8" stroke="#FCB054" fill="none" />
</svg>
