<?xml version="1.0" encoding="UTF-8" standalone="no"?>
<!DOCTYPE svg PUBLIC "-//W3C//DTD SVG 1.1//EN" "http://www.w3.org/Graphics/SVG/1.1/DTD/svg11.dtd">
<svg enable-background="new 322.969 -233.465 3146 1214" x="0px" xmlns:xlink="http://www.w3.org/1999/xlink" y="0px" viewBox="322.969 -233.465 3146 1214" version="1.1" height="1214px" xml:space="preserve" xmlns:a="http://ns.adobe.com/AdobeSVGViewerExtensions/3.0/" width="3146px" xmlns="http://www.w3.org/2000/svg">
  <defs></defs>
  <g id="XMLID_51_">
    <g></g>
    <g>
      <path stroke-linecap="round" d="M1333.204,137.533
			c-76.54,142.875-81.105,197.393-130.521,307.772c-50.49,85-58.681,139.786-51.027,24.036
			c6.849-102.725,76.674-133.476,83.389-230.695c-21.082-44.447-87.014-31.825-109.573,3.223
			c-31.959,72.915-79.226,122.062-98.428,213.776c-5.505,26.99-4.565,60.561-25.782,80.568
			c-23.365-47.401,2.148-115.079-4.565-176.445c-6.714-62.575,13.293-96.011-6.983-142.472
			c-22.828-21.485-76.003-22.693-87.014,9.668c-8.997,26.319-20.679,83.523-20.948,143.412
			c-0.269,79.091-7.251,161.809-41.627,191.619c-31.153-45.655-18.531-101.65-40.687-158.585
			c-19.739-51.027-13.697-135.087-85.806-138.041c-58.278-2.417-33.033,74.929-18.128,134.28c7.52,29.811-2.283,20.68,15.174,84.731
			c7.654,28.065-1.074,60.695,0.537,103.396c1.208,30.079-12.22,63.649-16.114,96.683c-4.028,35.047-1.477,71.303-3.223,106.351
			c-3.223,70.095-13.025,145.292-6.446,215.924c1.88,19.067,11.146,38.404,12.891,58.009c3.76,38.808-8.728,81.912-16.114,125.688
			c-45.521,270.441-88.625,583.048-125.687,854.027c118.705,41.492,268.025,69.288,425.402,61.231
			c40.553-243.183,82.851-527.187,117.496-786.081c5.237-38.27,6.446-81.239,19.336-103.127c13.16-21.888,41.493-23.097,70.9-38.673
			c29.005-15.174,58.547-50.759,98.965-82.449c36.122-28.468,67.006-33.839,91.177-52.906c29.542-23.23,53.31-74.258,83.791-109.573
			c35.047-40.553,84.329-55.727,102.188-100.442c9.4-23.097,6.177-49.952,12.891-74.123c14.502-51.564,58.546-97.488,41.358-154.423
			c-72.915-26.051-130.387,39.479-151.469,106.351c-6.043,19.471-16.651,45.924-31.825,59.218
			c-49.147,42.835-68.081,30.348-116.959,50.893c-32.764-49.818-10.876-122.33-12.354-176.714
			c-6.446-222.235,123.27-414.257,138.309-479.115" stroke-width="16" stroke="#9C6B54" fill="none" />
    </g>
  </g>
  <path stroke-linecap="round" d="M1419.701,37.578
	c-58.586-14.646-70.373,57.287-85.496,100.494" stroke-width="16" stroke="#FCB054" fill="none" />
  <path stroke-linecap="round" d="M1446.699,165.071
	c13.16-50.758,29.046-94.746-26.998-127.493" stroke-width="16" stroke="#FCB054" fill="none" />
</svg>
