<?xml version="1.0" encoding="UTF-8" standalone="no"?>
<!DOCTYPE svg PUBLIC "-//W3C//DTD SVG 1.1//EN" "http://www.w3.org/Graphics/SVG/1.1/DTD/svg11.dtd">
<svg enable-background="new -140.708 -446.507 3146 1214" x="0px" xmlns:xlink="http://www.w3.org/1999/xlink" y="0px" viewBox="-140.708 -446.507 3146 1214" version="1.0" height="1214px" xml:space="preserve" xmlns:a="http://ns.adobe.com/AdobeSVGViewerExtensions/3.0/" width="3146px" xmlns="http://www.w3.org/2000/svg">
  <defs></defs>
  <g id="XMLID_62_">
    <g></g>
    <g>
      <path stroke-linecap="round" d="M2117.533,243.53
			c0.537-31.287-7.923-56.666-42.299-60.023c-38.404-3.76-56.532,25.11-66.872,60.023" stroke-width="16" stroke="#9C6B54" fill="none" />
      <path stroke-linecap="round" d="M1671.317,365.458
			c-8.057,30.078-13.563,23.364,2.686,119.106c4.969,29.273-5.103,63.516-27.394,84.866
			c-61.5-79.629-112.796-187.188-138.577-306.161c-9.803-44.715-18.8-87.417-67.678-80.568
			c-71.975,10.071-32.496,149.052-19.337,199.811c28.333,109.976,58.681,202.764,83.792,312.605
			c12.085,53.041,32.764,117.765,0,167.583c-48.879-20.545-122.733-49.415-141.801-96.683c-7.654-18.665-3.625-41.761-9.668-61.231
			c-21.083-66.872-78.555-132.401-151.469-106.351c-17.188,56.935,14.502,112.796,29.005,164.359
			c6.714,24.171,3.491,51.027,12.891,74.123c17.859,44.716,68.08,69.021,103.127,109.573c30.482,35.316,54.25,86.343,83.792,109.573
			c24.17,19.068,71.303,35.719,109.573,61.232c38.942,26.051,70.9,58.949,99.905,74.123c29.408,15.576,57.741,16.785,70.9,38.673
			c12.892,21.888,14.1,64.857,19.337,103.128c34.645,258.894,69.021,523.83,109.573,767.013
			c157.377,8.057,306.697-19.739,425.402-61.232c-37.062-270.979-80.166-583.585-125.688-854.026
			c-7.386-43.775-19.873-86.88-16.113-125.688c1.745-19.604,11.011-38.941,12.891-58.009c6.58-70.632-3.223-145.829-6.445-215.924
			c-1.746-35.048,0.806-71.304-3.223-106.351c-3.895-33.033-17.322-66.604-16.114-96.683c1.611-42.701-8.325-114.676-3.76-163.957
			c2.417-25.916-2.282-76.54,2.417-106.888c3.223-21.888,7.923-46.327,8.191-67.946" stroke-width="16" stroke="#9C6B54" fill="none" />
      <path stroke-linecap="round" d="M2008.362,243.53
			c-8.862,29.677-4.028,91.982-9.131,114.005c-11.951,51.967,13.697,153.349-17.456,199.004
			c-34.376-29.81-53.31-120.315-53.578-199.407c-0.269-59.889,1.611-146.769-12.892-170.805
			c-17.859-29.273-64.186-31.153-87.014-9.669c-20.276,46.462-4.297,110.245-11.011,172.82
			c-6.178,56.397,29.541,128.238,3.356,181.279c-7.385-35.316-5.773-48.207-11.279-75.197
			c-19.202-91.714,2.283-21.889-29.676-94.803" stroke-width="16" stroke="#9C6B54" fill="none" />
    </g>
  </g>
  <path stroke-linecap="round" d="M1783.292,365.493c-24-38-88-42-110-6" stroke-width="16" stroke="#FCB054" fill="none" />
</svg>
