<?xml version="1.0" encoding="UTF-8" standalone="no"?>
<!DOCTYPE svg PUBLIC "-//W3C//DTD SVG 1.1//EN" "http://www.w3.org/Graphics/SVG/1.1/DTD/svg11.dtd">
<svg enable-background="new -140.708 -446.507 3146 1214" x="0px" xmlns:xlink="http://www.w3.org/1999/xlink" y="0px" viewBox="-140.708 -446.507 3146 1214" version="1.0" height="1214px" xml:space="preserve" xmlns:a="http://ns.adobe.com/AdobeSVGViewerExtensions/3.0/" width="3146px" xmlns="http://www.w3.org/2000/svg">
  <defs></defs>
  <g id="XMLID_50_">
    <g></g>
    <g>
      <path stroke-linecap="round" d="M1410.978,457.9
			c77.883,57.069,118.436,78.018,205.315,116.153c22.291-21.352,15.711-60.562,12.892-90.237
			c-9.669-100.442-44.716-177.922-51.564-277.156c21.082-44.446,87.015-31.824,109.573,3.224
			c31.959,72.914,58.144,153.214,77.346,244.928c5.506,26.991,4.565,60.561,25.782,80.569
			c23.365-47.401-16.113-118.839-9.399-180.205c6.714-62.575-5.371-123.404,14.905-169.866
			c22.827-21.484,69.154-19.604,87.014,9.669c14.502,24.036,12.622,110.916,12.891,170.805
			c0.269,79.092,21.351,165.568,55.727,195.379c31.153-45.655,8.191-140.727,25.111-199.407
			c13.965-48.476-2.954-159.392,68.349-152.543c58.144,5.64,52.504,76.406,44.447,129.984c-4.7,30.347-7.788,60.292-12.892,83.791
			c-10.607,48.341,5.506,121.256,3.895,163.957c-1.209,30.079,12.22,63.649,16.113,96.683c4.029,35.047,1.478,71.303,3.224,106.351
			c3.223,70.095,13.024,145.292,6.445,215.924c-1.88,19.067-11.146,38.404-12.892,58.009c-3.76,38.808,8.729,81.911,16.114,125.688
			c45.521,270.441,88.625,583.048,125.687,854.026c-118.704,41.493-268.024,69.289-425.401,61.232
			c-40.554-243.183-74.93-508.119-109.574-767.013c-5.236-38.271-6.445-81.24-19.336-103.128
			c-13.159-21.888-41.493-23.097-70.9-38.673c-29.005-15.174-60.964-48.073-99.905-74.123
			c-38.27-25.514-85.402-42.164-109.573-61.232c-29.542-23.23-53.31-74.257-83.791-109.573
			c-35.047-40.553-85.269-64.857-103.128-109.573c-9.399-23.097-6.177-49.952-12.891-74.123
			c-14.502-51.563-46.192-107.425-29.004-164.36c72.915-26.05,130.387,39.479,151.469,106.351
			c6.042,19.471,2.014,42.567,9.668,61.232c19.068,47.267,92.922,76.138,141.8,96.683c32.765-49.818,12.086-114.542,0-167.583
			c-25.11-109.842-44.044-75.332-119.107-153.349" stroke-width="16" stroke="#9C6B54" fill="none" />
    </g>
  </g>
  <path stroke-linecap="round" d="M1313.905,405.958
	c40.957-25.484,63.535,28.488,100.495,55.497" stroke-width="16" stroke="#FCB054" fill="none" />
  <path stroke-linecap="round" d="M1358.903,549.952
	c-36.345-37.798-112.495-101.995-44.998-143.993" stroke-width="16" stroke="#FCB054" fill="none" />
</svg>
