<?xml version="1.0" encoding="UTF-8" standalone="no"?>
<!DOCTYPE svg PUBLIC "-//W3C//DTD SVG 1.1//EN" "http://www.w3.org/Graphics/SVG/1.1/DTD/svg11.dtd">
<svg enable-background="new 322.969 -233.465 3146 1214" x="0px" xmlns:xlink="http://www.w3.org/1999/xlink" y="0px" viewBox="322.969 -233.465 3146 1214" version="1.1" height="1214px" xml:space="preserve" xmlns:a="http://ns.adobe.com/AdobeSVGViewerExtensions/3.0/" width="3146px" xmlns="http://www.w3.org/2000/svg">
  <defs></defs>
  <g id="XMLID_49_">
    <g></g>
    <g>
      <path stroke-linecap="round" d="M1000.93,109.076
			c-19.471,61.366-36.122,277.291-55.324,369.004c-5.506,26.99-4.565,60.561-25.782,80.568
			c-23.365-47.401,16.114-118.839,9.4-180.205c-6.714-62.575,2.551-105.948-17.725-152.409
			c-22.828-21.485-69.155-19.605-87.014,9.668c-14.502,24.036-9.937,93.459-10.205,153.349
			c-0.269,79.091-21.217,165.568-55.593,195.379c-31.153-45.656-8.325-140.727-25.245-199.407
			c-13.965-48.476,3.088-159.392-68.215-152.543c-58.144,5.64-52.638,76.406-44.581,129.984c4.7,30.348,7.788,60.292,12.891,83.791
			c10.608,48.342-5.371,121.256-3.76,163.957c1.208,30.079-12.219,63.649-16.114,96.683c-4.028,35.048-1.477,71.304-3.223,106.351
			c-3.223,70.095-13.025,145.292-6.445,215.924c1.88,19.068,11.145,38.404,12.891,58.01c3.76,38.807-8.729,81.911-16.114,125.687
			c-45.521,270.442-88.625,583.048-125.687,854.027c118.704,41.492,268.025,69.289,425.402,61.231
			c40.553-243.183,74.929-508.119,109.573-767.013c5.237-38.27,6.446-81.24,19.336-103.128c13.16-21.888,41.493-23.096,70.9-38.673
			c29.005-15.174,60.964-48.072,99.905-74.123c38.27-25.513,85.403-42.164,109.573-61.231
			c29.542-23.231,53.31-74.258,83.792-109.574c35.047-40.553,85.268-64.857,103.127-109.573c9.4-23.096,6.177-49.952,12.891-74.123
			c14.502-51.563,46.193-107.425,29.005-164.359c-72.915-26.051-130.387,39.479-151.469,106.351
			c-6.042,19.471-2.014,42.566-9.668,61.231c-19.068,47.268-92.922,76.138-141.801,96.683c-32.765-49.818-12.085-114.542,0-167.582
			c25.11-109.843,55.458-202.631,83.791-312.606c13.16-50.758,52.638-189.739-19.336-199.81
			c-48.878-6.849-57.875,35.853-67.677,80.568c-25.782,118.973-77.078,226.532-138.578,306.161
			c-22.291-21.351-15.711-60.561-12.891-90.236c8.594-90.103,2.551-285.482,22.022-384.581" stroke-width="16" stroke="#9C6B54" fill="none" />
    </g>
  </g>
  <path stroke-linecap="round" d="M1103.44,118.011
	c11.999-77.996-84.486-88.558-101.995-13.5" stroke-width="16" stroke="#FCB054" fill="none" />
</svg>
