<?xml version="1.0" encoding="UTF-8" standalone="no"?>
<!DOCTYPE svg PUBLIC "-//W3C//DTD SVG 1.1//EN" "http://www.w3.org/Graphics/SVG/1.1/DTD/svg11.dtd">
<svg enable-background="new 322.969 -233.465 3146 1214" x="0px" xmlns:xlink="http://www.w3.org/1999/xlink" y="0px" viewBox="322.969 -233.465 3146 1214" version="1.1" height="1214px" xml:space="preserve" xmlns:a="http://ns.adobe.com/AdobeSVGViewerExtensions/3.0/" width="3146px" xmlns="http://www.w3.org/2000/svg">
  <defs></defs>
  <g id="XMLID_62_">
    <g></g>
    <g>
      <path stroke-linecap="round" d="M2889.008,554.127
			c-20.545,26.454-45.118,32.228-60.157,53.31c-30.482,42.701-96.011,62.978-134.953,128.91
			c-15.308,25.916-36.793,124.612-32.898,157.646c4.028,35.048,1.478,71.304,3.223,106.351
			c3.223,70.095,13.025,145.292,6.445,215.924c-1.88,19.068-11.146,38.404-12.891,58.01c-3.76,38.807,8.729,81.911,16.113,125.687
			c45.521,270.442,88.626,583.048,125.688,854.027c-118.704,41.492-268.025,69.289-425.402,61.232
			c-40.553-243.184-74.929-508.12-109.573-767.014c-5.237-38.27-6.445-81.239-19.336-103.128
			c-13.16-21.888-41.493-23.096-70.9-38.673c-29.005-15.174-60.964-48.072-99.905-74.123
			c-38.271-25.513-85.403-42.164-109.573-61.231c-29.542-23.231-53.31-74.258-83.792-109.573
			c-35.047-40.554-85.269-64.858-103.128-109.573c-9.399-23.097-6.177-49.953-12.891-74.123
			c-14.502-51.564-46.192-107.425-29.004-164.36c72.915-26.051,130.387,39.479,151.469,106.351
			c6.043,19.471,2.014,42.567,9.668,61.232c19.067,47.267,92.922,76.137,141.801,96.682c32.765-49.818,12.085-114.541,0-167.582
			c-25.11-109.842-55.458-202.63-83.792-312.606c-13.159-50.758-52.638-189.739,19.337-199.811
			c48.878-6.848,57.875,35.854,67.678,80.569c25.782,118.973,77.077,226.531,138.578,306.16
			c22.29-21.351,15.711-60.561,12.891-90.236c-9.668-100.442-21.082-182.622-27.931-281.856
			c21.082-44.447,87.015-31.824,109.573,3.223c31.959,72.915,34.511,157.915,53.713,249.629c5.505,26.99,4.565,60.561,25.782,80.568
			c23.364-47.401,24.976-124.612,31.421-187.725c6.58-62.44-0.806-128.507,28.199-170c26.588-16.651,71.706-5.64,83.389,26.588
			c9.534,26.453,0.94,108.768,10.071,168.791c8.997,60.158,17.993,121.524,35.987,129.044
			c62.978-54.115,221.832-162.077,265.474-204.913" stroke-width="8" stroke="#9C6B54" fill="none" />
    </g>
  </g>
  <path stroke-linecap="round" d="M2924.617,446.862
	c43.966,38.465-2.538,63.685-35.727,106.513" stroke-width="8" stroke="#FCB054" fill="none" />
  <path stroke-linecap="round" d="M2809.365,506.927
	c42.683-41.655,62.148-106.526,115.252-60.064" stroke-width="8" stroke="#FCB054" fill="none" />
</svg>
