<?xml version="1.0" encoding="UTF-8" standalone="no"?>
<!DOCTYPE svg PUBLIC "-//W3C//DTD SVG 1.1//EN" "http://www.w3.org/Graphics/SVG/1.1/DTD/svg11.dtd">
<svg enable-background="new 322.969 -233.465 3146 1214" x="0px" xmlns:xlink="http://www.w3.org/1999/xlink" y="0px" viewBox="322.969 -233.465 3146 1214" version="1.1" height="1214px" xml:space="preserve" xmlns:a="http://ns.adobe.com/AdobeSVGViewerExtensions/3.0/" width="3146px" xmlns="http://www.w3.org/2000/svg">
  <defs></defs>
  <g id="XMLID_54_">
    <g></g>
    <g>
      <path stroke-linecap="round" d="M2135.337,123.945
			c19.605,61.501,81.509,272.457,100.711,364.17c5.505,26.99,4.565,60.561,25.782,80.568c23.364-47.401-16.114-118.839-9.4-180.205
			c6.714-62.575-5.236-123.404,15.04-169.865c22.827-21.485,69.154-19.605,87.014,9.668
			c14.503,24.037,12.622,110.916,12.891,170.806c0.269,79.092,21.217,165.568,55.593,195.379
			c31.153-45.655,8.325-140.727,25.245-199.407c13.965-48.476-3.089-159.392,68.215-152.543
			c58.144,5.64,52.638,76.406,44.581,129.984c-4.7,30.348-7.788,60.292-12.892,83.791c-10.607,48.342,5.372,121.256,3.761,163.957
			c-1.209,30.079,12.219,63.649,16.113,96.683c4.028,35.048,1.478,71.304,3.223,106.351c3.223,70.095,13.025,145.292,6.445,215.924
			c-1.88,19.068-11.146,38.404-12.891,58.01c-3.76,38.807,8.729,81.911,16.113,125.687
			c45.521,270.442,88.626,583.048,125.688,854.027c-118.704,41.492-268.025,69.289-425.402,61.232
			c-40.553-243.184-74.929-508.12-109.573-767.014c-5.237-38.27-6.445-81.239-19.336-103.128
			c-13.16-21.888-41.493-23.096-70.9-38.673c-29.005-15.174-60.964-48.072-99.905-74.123
			c-38.271-25.513-85.403-42.164-109.574-61.231c-29.542-23.231-53.309-74.258-83.791-109.573
			c-35.047-40.554-85.269-64.858-103.128-109.573c-9.399-23.097-6.177-49.953-12.891-74.124
			c-14.502-51.563-46.192-107.424-29.004-164.359c72.915-26.051,130.387,39.479,151.469,106.351
			c6.043,19.471,2.014,42.567,9.668,61.232c19.068,47.267,92.922,76.137,141.801,96.682c32.765-49.818,12.085-114.541,0-167.582
			c-25.11-109.842-55.458-202.63-83.792-312.606c-13.16-50.758-52.638-189.739,19.336-199.81
			c48.878-6.849,57.875,35.853,67.678,80.568c25.782,118.973,77.077,226.532,138.578,306.161
			c22.29-21.351,15.711-60.561,12.891-90.236c-8.729-90.103-65.798-286.556-85.269-385.655" stroke-width="8" stroke="#9C6B54" fill="none" />
    </g>
  </g>
  <path stroke-linecap="round" d="M2014.877,127.025
	c-6-107.994,79.496-97.494,119.994-7.499" stroke-width="8" stroke="#FCB054" fill="none" />
</svg>
