<?xml version="1.0" encoding="UTF-8" standalone="no"?>
<!DOCTYPE svg PUBLIC "-//W3C//DTD SVG 1.1//EN" "http://www.w3.org/Graphics/SVG/1.1/DTD/svg11.dtd">
<svg enable-background="new 322.969 -233.465 3146 1214" x="0px" xmlns:xlink="http://www.w3.org/1999/xlink" y="0px" viewBox="322.969 -233.465 3146 1214" version="1.1" height="1214px" xml:space="preserve" xmlns:a="http://ns.adobe.com/AdobeSVGViewerExtensions/3.0/" width="3146px" xmlns="http://www.w3.org/2000/svg">
  <defs></defs>
  <g id="XMLID_58_">
    <g></g>
    <g>
      <path stroke-linecap="round" d="M2900.465,125.531
			c3.356,33.302,15.711,124.479,16.382,148.515c1.611,46.461,20.68,246.54,19.068,289.242
			c-1.209,30.078,12.219,63.648,16.113,96.682c4.028,35.048,1.478,71.304,3.223,106.351c3.223,70.095,13.025,145.292,6.445,215.924
			c-1.88,19.068-11.146,38.404-12.891,58.01c-3.76,38.807,8.729,81.911,16.113,125.687
			c45.521,270.442,88.626,583.048,125.688,854.027c-118.704,41.492-268.025,69.289-425.402,61.232
			c-40.553-243.184-74.929-508.12-109.573-767.014c-5.237-38.27-6.445-81.239-19.336-103.128
			c-13.16-21.888-41.493-23.096-70.9-38.673c-29.005-15.174-60.964-48.072-99.905-74.123
			c-38.271-25.513-85.403-42.164-109.573-61.231c-29.542-23.231-53.31-74.258-83.792-109.573
			c-35.047-40.554-85.268-64.858-103.127-109.573c-9.4-23.097-6.178-49.953-12.892-74.123
			c-14.502-51.564-46.192-107.425-29.005-164.36c72.915-26.051,130.388,39.479,151.47,106.351
			c6.042,19.471,2.014,42.567,9.668,61.232c19.067,47.267,92.922,76.137,141.801,96.682c32.765-49.818,12.085-114.541,0-167.582
			c-25.11-109.842-55.458-202.63-83.792-312.606c-13.159-50.758-52.638-189.739,19.337-199.81
			c48.878-6.849,57.875,35.853,67.678,80.568c25.782,118.973,77.077,226.532,138.578,306.161
			c22.29-21.351,15.711-60.561,12.891-90.236c-9.668-100.442-44.716-177.923-51.563-277.156
			c21.082-44.447,87.014-31.825,109.573,3.223c31.959,72.915,58.144,153.215,77.346,244.929c5.505,26.99,4.565,60.561,25.782,80.568
			c23.364-47.401,17.591-114.676,11.548-177.788c-5.908-62.575-26.185-125.821-5.908-172.282
			c22.827-21.485,69.154-19.605,87.014,9.668c14.503,24.037,16.517,114.139,26.856,173.223
			c10.474,59.89,22.559,158.988,40.553,166.509c15.039-52.504-8.191-318.515-6.043-379.613" stroke-width="8" stroke="#9C6B54" fill="none" />
    </g>
  </g>
  <path stroke-linecap="round" d="M2841.374,8.027
	c58.363-2.484,52.979,63.095,58.498,116.994" stroke-width="8" stroke="#FCB054" fill="none" />
  <path stroke-linecap="round" d="M2799.376,131.02
	c2.162-59.602-28.498-119.992,41.998-122.992" stroke-width="8" stroke="#FCB054" fill="none" />
</svg>
