<?xml version="1.0" encoding="UTF-8" standalone="no"?>
<!DOCTYPE svg PUBLIC "-//W3C//DTD SVG 1.1//EN" "http://www.w3.org/Graphics/SVG/1.1/DTD/svg11.dtd">
<svg enable-background="new -140.708 -446.507 3146 1214" x="0px" xmlns:xlink="http://www.w3.org/1999/xlink" y="0px" viewBox="-140.708 -446.507 3146 1214" version="1.0" height="1214px" xml:space="preserve" xmlns:a="http://ns.adobe.com/AdobeSVGViewerExtensions/3.0/" width="3146px" xmlns="http://www.w3.org/2000/svg">
  <defs></defs>
  <g id="XMLID_56_">
    <g></g>
    <g>
      <path stroke-linecap="round" d="M2669.258,187.571
			c-18.611,24.212-29.91,21.915-59.952,53.863c-34.439,36.858-34.002,37.992-78.049,80.023
			c-21.75,20.735-66.614,67.564-105.93,138.065c-17.158,30.772-56.09,77.981-64.014,147.98
			c-8.026,69.609-22.862,146.569-11.211,216.544c3.045,18.916-0.982,39.977,2.329,59.378c6.262,38.483,29.33,76.978,47.635,117.422
			c112.987,249.89,234.391,541.166,339.335,793.732c-104.197,70.395-241.491,135.353-395.72,167.698
			c-101.23-224.799-202.037-472.208-301.562-713.705c-14.824-35.669-26.951-76.91-44.998-94.786
			c-18.307-17.809-46.012-11.751-78.419-19.313c-31.915-7.275-71.208-30.936-115.505-46.193
			c-43.512-14.909-93.332-18.989-121.566-31.263c-34.489-14.928-70.484-58.206-108.965-84.58
			c-44.231-30.274-98.99-40.968-127.662-79.649c-14.979-19.936-18.712-46.726-31.369-68.385
			c-27.173-46.16-72.062-92.092-69.962-151.527c63.86-43.785,136.144,4.92,173.583,64.204
			c10.809,17.286,12.803,40.646,24.964,56.741c30.492,40.842,109.268,49.922,161.77,57.322
			c18.976-56.527-17.526-113.836-42.739-162.041c-52.293-99.806-105.301-181.786-160.745-280.9
			c-25.669-45.724-99.287-170.04-32.261-198.134c45.516-19.088,65.105,19.907,85.987,60.645
			c55.271,108.464,213.012,234.757,261.117,227.068c16.108-26.33-0.254-62.565-10.549-90.541
			c-34.964-94.655-64.661-144.594-96.591-238.799c9.05-48.354,76.021-52.964,106.771-24.829
			c49.498,62.353,72.403,116.027,114.36,199.811c12.207,24.693,59.441,47.926,85.059,61.861
			c18.883-15.813,42.835-9.77,38.85-121.762c-2.147-62.898-7.533-111.75,2.117-161.512c17.612-25.893,63.202-34.168,87.035-9.624
			c19.381,20.302,43.51,110.733,56.836,169.155c17.574,77.161,29.187,65.905,70.028,85.963
			c94.661-37.049,122.829-118.221,308.011-238.027" stroke-width="16" stroke="#9C6B54" fill="none" />
    </g>
  </g>
  <path stroke-linecap="round" d="M2675.292,103.493c34,38,8.396,68.713-8,90" stroke-width="16" stroke="#FCB054" fill="none" />
  <path stroke-linecap="round" d="M2571.292,131.493c68.683-42.927,58-52,106-28" stroke-width="16" stroke="#FCB054" fill="none" />
</svg>
