<?xml version="1.0" encoding="UTF-8" standalone="no"?>
<!DOCTYPE svg PUBLIC "-//W3C//DTD SVG 1.1//EN" "http://www.w3.org/Graphics/SVG/1.1/DTD/svg11.dtd">
<svg enable-background="new -140.708 -446.507 3146 1214" x="0px" xmlns:xlink="http://www.w3.org/1999/xlink" y="0px" viewBox="-140.708 -446.507 3146 1214" version="1.0" height="1214px" xml:space="preserve" xmlns:a="http://ns.adobe.com/AdobeSVGViewerExtensions/3.0/" width="3146px" xmlns="http://www.w3.org/2000/svg">
  <defs></defs>
  <g id="XMLID_59_">
    <g></g>
    <g>
      <path stroke-linecap="round" d="M47.238,454.005
			c-9.002-49.543-0.763-63.108,4.537-67.492c10.336-8.495,54.022-39.023,78.945,31.479" stroke-width="16" stroke="#FCB054" fill="none" />
      <path stroke-linecap="round" d="M510.788,434.476
			c0.247-1.347,0.495-2.56,0.749-3.504c0.121-0.808,0.242-1.615,0.497-2.425c17.245-87.039,44.433-149.127,76.358-225.394
			c21.983-35.411,105.39-43.221,106.871,6.312c-28.134,86.411-45.91,140.958-53.935,241.545
			c-2.334,29.719,1.27,94.123,23.906,115.106c39.689-53.159,116.544-223.498,133.556-308.384
			c9.07-44.87,21.501-81.334,70.485-75.285c72.129,8.894,12.292,144.036-0.036,195.002
			c-26.532,110.425-36.857,201.782-60.169,312.021c-11.217,53.231-30.836,118.284,2.738,167.56
			c48.536-21.341,121.909-51.414,140.202-98.986c7.348-18.788,2.943-41.815,8.667-61.382
			c19.986-67.208,76.38-133.667,149.711-108.812c18.116,56.646-12.657,113.018-26.315,164.812
			c-6.318,24.277-2.657,51.077-11.678,74.324c-17.126,45.001-66.943,70.124-101.323,111.244
			c-29.9,35.809-52.831,87.218-81.989,110.928c-23.856,19.46-70.71,36.879-108.558,63.015c-38.511,26.684-69.928,60.1-98.681,75.746
			c-29.149,16.055-57.458,17.726-70.259,39.826c-12.532,22.096-13.038,65.079-17.648,103.43
			c-30.409,259.426-60.451,524.888-97.024,768.701c-157.225,10.628-306.979-14.725-426.346-54.272
			c32.628-271.548,70.619-584.816,111.714-855.967c6.669-43.891,18.451-87.192,14.058-125.934
			c-2.065-19.573-11.646-38.756-13.837-57.791c-8.374-76.816-10.728-138.689-27.179-208.524
			c-6.056-25.418,15.354-71.295-15.021-97.39c-28.469-24.515-89.263-219.061-93.012-243.038" stroke-width="16" stroke="#9C6B54" fill="none" />
      <path stroke-linecap="round" d="M254.224,570.955
			c27.113-25.558,27.503-124.945,43.487-206.994c11.53-58.743,73.568-141.41,87.675-165.681
			c17.379-29.562,63.669-32.198,86.845-11.089c21.033,46.124-41.62,99.39-50,161.842c-8.019,59.894-11.127,190.215,56.81,189.104
			c32.441-44.715,37.578-124.841,32.992-109.59" stroke-width="16" stroke="#9C6B54" fill="none" />
      <path stroke-linecap="round" d="M131.258,417.983
			c15.043,49.445,84.083,197.926,122.966,152.972" stroke-width="16" stroke="#9C6B54" fill="none" />
    </g>
  </g>
</svg>
