<?xml version="1.0" encoding="UTF-8" standalone="no"?>
<!DOCTYPE svg PUBLIC "-//W3C//DTD SVG 1.1//EN" "http://www.w3.org/Graphics/SVG/1.1/DTD/svg11.dtd">
<svg enable-background="new -140.708 -446.507 3146 1214" x="0px" xmlns:xlink="http://www.w3.org/1999/xlink" y="0px" viewBox="-140.708 -446.507 3146 1214" version="1.0" height="1214px" xml:space="preserve" xmlns:a="http://ns.adobe.com/AdobeSVGViewerExtensions/3.0/" width="3146px" xmlns="http://www.w3.org/2000/svg">
  <defs></defs>
  <g id="XMLID_40_">
    <g></g>
    <g>
      <path stroke-linecap="round" d="M339.571,123.445
			c-13.025,59.486-32.496,391.026-50.49,398.546c-15.04-52.504-8.594-232.038-10.742-293.001
			c-5.909-37.062-85.403-35.45-95.877,20.008c-3.357,33.436-3.625,11.951-4.431,35.987c-1.477,46.461-20.545,246.54-18.934,289.241
			c1.208,30.079-12.22,63.649-16.114,96.682c-4.028,35.048-1.477,71.304-3.223,106.351c-3.223,70.095-13.025,145.292-6.445,215.924
			c1.88,19.068,11.145,38.404,12.891,58.01c3.76,38.808-8.728,81.911-16.113,125.687
			c-45.521,270.442-88.625,583.049-125.687,854.027c118.704,41.493,268.024,69.289,425.402,61.232
			c40.553-243.183,74.929-508.119,109.573-767.013c5.237-38.271,6.446-81.24,19.336-103.128c13.16-21.888,41.493-23.097,70.9-38.673
			c29.005-15.174,60.964-48.073,99.905-74.123c38.27-25.514,85.402-42.165,109.573-61.232c29.542-23.23,53.31-74.258,83.791-109.573
			c35.047-40.553,85.269-64.857,103.128-109.573c9.4-23.097,6.177-49.953,12.891-74.123c14.502-51.564,46.192-107.425,29.004-164.36
			c-72.915-26.051-130.387,39.479-151.469,106.351c-6.042,19.471-2.014,42.567-9.668,61.232
			c-19.068,47.267-92.923,76.137-141.801,96.683c-32.765-49.818-12.085-114.542,0-167.583
			c25.11-109.842,55.458-202.63,83.791-312.606c13.16-50.758,69.155-186.784-2.82-196.855c-48.878-6.849-52.37,37.464-67.678,80.568
			C735.7,377.504,684.673,481.707,623.173,561.334c-22.291-21.351-15.711-60.561-12.891-90.236
			c9.668-100.442,64.187-167.448,71.035-266.682c-21.082-44.447-87.014-31.825-109.573,3.223
			c-31.959,72.914-77.614,142.74-96.816,234.454c-5.506,26.99-4.566,60.561-25.782,80.568
			c-23.365-47.4-13.697-335.836,1.611-397.203" stroke-width="16" stroke="#9C6B54" fill="none" />
    </g>
  </g>
  <path stroke-linecap="round" d="M409.586,9.944
	c-62.308-5.955-61.059,59.507-70.058,112.005" stroke-width="16" stroke="#FCB054" fill="none" />
  <path stroke-linecap="round" d="M450.774,123.983
	c4.5-59.997,7.5-110.994-41.188-114.039" stroke-width="16" stroke="#FCB054" fill="none" />
</svg>
