<?xml version="1.0" encoding="utf-8"?>
<!-- Generator: Adobe Illustrator 13.0.2, SVG Export Plug-In . SVG Version: 6.00 Build 14948)  -->
<!DOCTYPE svg PUBLIC "-//W3C//DTD SVG 1.0//EN" "http://www.w3.org/TR/2001/REC-SVG-20010904/DTD/svg10.dtd">
<svg version="1.0" id="Layer_1" xmlns="http://www.w3.org/2000/svg" xmlns:xlink="http://www.w3.org/1999/xlink" x="0px" y="0px"
	 width="987.274px" height="1619.987px" viewBox="0 0 987.274 1619.987" enable-background="new 0 0 987.274 1619.987"
	 xml:space="preserve">
<path fill="none" stroke="#000000" stroke-width="0.5" stroke-linecap="round" stroke-linejoin="round" d="M564.638,1572.356
	c-20.131-151.191-58.518-299.367-69.832-451.723c-4.541-61.139-20.056-77.17-72.176-103.727
	c-58.36-29.736-107.368-91.171-161.106-129.753c-55.319-39.717-85.746-90.433-122.6-146.227
	C106.517,691.853,87.012,629.111,53.42,584.11C35.162,559.651-11.631,481.239,3.061,452.654
	c25.577-49.707,111.793,0.158,133.86,24.371c64.295,70.547,70.284,152.069,157.089,199.44c8.545,4.663-9.014-118.235-11.692-131.273
	c-14.503-70.591-34.967-139.859-55.289-208.942c-18.213-61.913-43.449-124.849-53.674-188.737
	c-8.294-51.823,16.741-129.36,79.813-74.817c50.884,44.003,86.21,353.286,172.488,345.575
	c21.054-74.923-2.098-161.041-15.168-235.526c-7.948-45.297-50.25-196.176,40.983-181.492
	c64.797,10.428,66.693,104.694,78.904,153.955c7.66,30.903,31.077,223.268,61.601,228.504
	c64.418-86.787-52.426-282.233,40.399-355.982c85.646-68.046,85.365,125.045,86.547,158.913
	c1.41,40.439-16.075,201.321,32.894,220.829c57.853-90.469,0.957-214.106,48.11-310.045c21.765-44.282,84.195-50.96,95.019,4.542
	c8.84,45.31-10.969,110.773-14.85,157.326c-10.18,122.136,11.189,235.617,16.438,356.979
	c5.678,131.335-21.525,268.258,4.545,395.594c26.381,128.846,42.131,259.675,60.357,389.854
	c11.896,84.961,67.592,176.936-36.132,195.151C850.704,1609.973,613.405,1652.12,564.638,1572.356"/>
</svg>
