<?xml version="1.0" encoding="utf-8"?>
<!-- Generator: Adobe Illustrator 14.0.0, SVG Export Plug-In . SVG Version: 6.00 Build 43363)  -->
<!DOCTYPE svg PUBLIC "-//W3C//DTD SVG 1.1//EN" "http://www.w3.org/Graphics/SVG/1.1/DTD/svg11.dtd"[
     <!ENTITY stroke_color "#000000">
     <!ENTITY fill_color "#FFFFFF">
 ]>
<svg version="1.1" id="TurtleType" xmlns="http://www.w3.org/2000/svg" xmlns:xlink="http://www.w3.org/1999/xlink" x="0px" y="0px"
	 width="55px" height="55px" viewBox="0 0 55 55" enable-background="new 0 0 55 55" xml:space="preserve">
<path id="Key" fill="&fill_color;" stroke="&stroke_color;" stroke-width="3.5" d="M40.334,4.577C51.044,4.577,51,15.538,51,15.538
	s-0.044,12.973,0,23.931c0.044,10.954-10.666,10.954-10.666,10.954s-15.284,0-25.374,0C4,50.423,4,39.469,4,39.469
	s0-14.125,0-24.502C4,4.589,14.669,4.583,14.669,4.583L40.334,4.577L40.334,4.577z"/>
<path id="Shell" fill="&stroke_color;" stroke="none" d="M40.225,34.934c0.959,1.416-15.74,1.407-14.8,0c1.597-2.404,4.325-3.927,7.419-3.927
	C35.914,31.009,38.625,32.563,40.225,34.934z"/>
<path id="Turtle" fill="none" stroke="&stroke_color;" stroke-width="1.5" d="M33.102,37.941c-5.629,0-7.437-0.519-7.437-0.519
	s-0.146,2.753,0.867,2.905c1.005,0.154,2.512-1.717,2.512-1.717h6.942c0,0,1.244,1.869,2.244,1.869c0.998,0,1.049-1.97,1.049-1.97
	s6.533,1.917,6.533-0.948c0-2.867-4.414-1.989-4.574-0.387C41.234,37.178,38.73,37.941,33.102,37.941z"/>
<line id="T2" fill="none" stroke="&stroke_color;" stroke-width="3" x1="12.438" y1="25.037" x2="26.479" y2="25.037"/>
<line id="T1" fill="none" stroke="&stroke_color;" stroke-width="3" x1="19.578" y1="25.037" x2="19.578" y2="41.1"/>
</svg>
