<?xml version="1.0" encoding="utf-8"?>
<!-- Generator: Adobe Illustrator 13.0.0, SVG Export Plug-In . SVG Version: 6.00 Build 14948)  -->
<!DOCTYPE svg PUBLIC "-//W3C//DTD SVG 1.1//EN" "http://www.w3.org/Graphics/SVG/1.1/DTD/svg11.dtd" [
    <!ENTITY ns_svg "http://www.w3.org/2000/svg">
    <!ENTITY ns_xlink " http://www.w3.org/1999/xlink">
    <!ENTITY stroke_color "#000000">
    <!ENTITY fill_color "#FFFFFF">
]>
<svg version="1.1" id="Colors" xmlns:svg="http://www.w3.org/2000/svg"
	 xmlns="http://www.w3.org/2000/svg" xmlns:xlink="http://www.w3.org/1999/xlink" x="0px" y="0px" width="45px" height="45px"
	 viewBox="0 0 45 45" style="enable-background:new 0 0 45 45;" xml:space="preserve">
<path id="Paint" style="fill:&fill_color;;stroke:&stroke_color;;stroke-width:3.5;stroke-linejoin:round;" d="M18.875,21.875
	c0.75,0.5,9.5-8.375,9.5-8.375l4.25,3.5c0,0-7.5,9.75-7.125,10.125c1.214,1.078,1.793,1.652,2.864,2.797
	c0.536,0.572,2.928,2.76,2.147,3.904c-0.779,1.143-2.519,6.272-1.185,7.69c1.688,2.185,4.663,2.315,6.015-0.018
	c1.396-1.567-1.006-7.285-0.646-7.771c0.719-0.971,2.211-1.461,3.572-2.144c1.36-0.683,2.592-1.56,2.789-3.302
	c0.195-3.092-2.744-5.776-7.342-9.987c-4.597-4.21,0.504-0.321-5.851-5.083c-6.353-4.762-13.64-8.518-19.08-8.518
	c0,0-3.859,4.594,2.156,5.688c1.375,1.963-3.861,7.063-0.594,7.063C11.818,17.448,14.863,19.01,18.875,21.875z"/>
<path id="Brush_1_" style="fill:&fill_color;;stroke:&stroke_color;;stroke-width:3.5;stroke-linejoin:round;" d="M4.058,42.281
	c-1.605-3.517,12.824-18.809,17.861-22.566c1.679-1.494,7.304-6.475,7.304-6.475s0.807-3.884,3.578-6.47
	c3.709-3.46,5.655-1.625,7.729-4.974c0,0,0.688,2.771,0.457,3.74c-0.236,0.991-1.226,5.307-1.896,6.539
	c-1.738,3.217-6.662,4.476-6.662,4.476s-3.319,4.9-4.338,6.127C23.092,30.735,4.088,43.024,4.058,42.281z M27.842,13.052
	c1.018,0.939,4.31,3.213,4.875,3.856"/>
</svg>
